<svg width="617" height="396" viewBox="0 0 617 396" fill="none" xmlns="http://www.w3.org/2000/svg">
<g clip-path="url(#clip0_379_1157)">
<path d="M136.722 39.6677H97.3743C93.5915 39.6709 89.9646 41.0409 87.2897 43.4772C84.6148 45.9135 83.1106 49.2169 83.1071 52.6623V91.5162C82.6041 91.4888 82.101 91.4478 81.6053 91.3931C72.2836 90.4999 63.4212 87.2525 56.0174 82.0172C48.6136 76.7819 42.9627 69.7669 39.702 61.763C36.4412 53.7591 35.7003 45.0847 37.5626 36.7178C39.425 28.3509 43.8166 20.6242 50.2424 14.409C56.6681 8.19372 64.8724 3.73703 73.9303 1.54139C82.9882 -0.654244 92.5394 -0.501515 101.507 1.98237C110.475 4.46626 118.502 9.18252 124.684 15.5994C130.867 22.0163 134.958 29.8786 136.496 38.2999C136.579 38.7513 136.654 39.2095 136.722 39.6677Z" fill="#F2F2F2"/>
<path d="M601.231 38.2999H97.3745C93.1937 38.304 89.1854 39.8186 86.2292 42.5111C83.2729 45.2037 81.61 48.8544 81.6055 52.6623V294.772C81.61 298.58 83.2729 302.231 86.2292 304.923C89.1854 307.616 93.1937 309.131 97.3745 309.135H601.231C605.412 309.131 609.42 307.616 612.376 304.923C615.333 302.231 616.995 298.58 617 294.772V52.6623C616.995 48.8544 615.333 45.2037 612.376 42.5111C609.42 39.8186 605.412 38.304 601.231 38.2999ZM615.498 294.772C615.495 298.218 613.991 301.521 611.316 303.957C608.641 306.394 605.014 307.764 601.231 307.767H97.3745C93.5916 307.764 89.9647 306.394 87.2898 303.957C84.6149 301.521 83.1107 298.218 83.1073 294.772V52.6623C83.1107 49.2169 84.6149 45.9135 87.2898 43.4772C89.9647 41.0409 93.5916 39.6708 97.3745 39.6677H601.231C605.014 39.6708 608.641 41.0409 611.316 43.4772C613.991 45.9135 615.495 49.2169 615.498 52.6623V294.772Z" fill="#3F3D56"/>
<path d="M576.451 77.5365H122.154C121.955 77.5365 121.764 77.4644 121.623 77.3362C121.482 77.2079 121.403 77.034 121.403 76.8526C121.403 76.6712 121.482 76.4972 121.623 76.369C121.764 76.2407 121.955 76.1686 122.154 76.1686H576.451C576.65 76.1686 576.841 76.2407 576.982 76.369C577.123 76.4972 577.202 76.6712 577.202 76.8526C577.202 77.034 577.123 77.2079 576.982 77.3362C576.841 77.4644 576.65 77.5365 576.451 77.5365Z" fill="#3F3D56"/>
<path d="M250.559 279.726C250.36 279.726 250.169 279.654 250.028 279.526C249.887 279.397 249.808 279.223 249.808 279.042V54.0302C249.808 53.8488 249.887 53.6748 250.028 53.5466C250.169 53.4183 250.36 53.3463 250.559 53.3463C250.758 53.3463 250.949 53.4183 251.09 53.5466C251.231 53.6748 251.31 53.8488 251.31 54.0302V279.042C251.31 279.223 251.231 279.397 251.09 279.526C250.949 279.654 250.758 279.726 250.559 279.726Z" fill="#3F3D56"/>
<path d="M363.945 279.726C363.746 279.726 363.555 279.654 363.414 279.526C363.273 279.397 363.194 279.223 363.194 279.042V54.0302C363.194 53.8488 363.273 53.6748 363.414 53.5466C363.555 53.4183 363.746 53.3463 363.945 53.3463C364.144 53.3463 364.335 53.4183 364.476 53.5466C364.617 53.6748 364.696 53.8488 364.696 54.0302V279.042C364.696 279.223 364.617 279.397 364.476 279.526C364.335 279.654 364.144 279.726 363.945 279.726Z" fill="#3F3D56"/>
<path d="M477.332 279.726C477.133 279.726 476.942 279.654 476.801 279.526C476.66 279.397 476.581 279.223 476.581 279.042V54.0302C476.581 53.8488 476.66 53.6748 476.801 53.5466C476.942 53.4183 477.133 53.3463 477.332 53.3463C477.531 53.3463 477.722 53.4183 477.863 53.5466C478.004 53.6748 478.083 53.8488 478.083 54.0302V279.042C478.083 279.223 478.004 279.397 477.863 279.526C477.722 279.654 477.531 279.726 477.332 279.726Z" fill="#3F3D56"/>
<path d="M177.658 148.13H150.22C149.324 148.129 148.465 147.804 147.832 147.227C147.198 146.65 146.842 145.868 146.841 145.052V115.562C146.842 114.746 147.198 113.963 147.832 113.386C148.465 112.809 149.324 112.485 150.22 112.484H177.658C178.554 112.485 179.413 112.809 180.046 113.386C180.68 113.963 181.036 114.746 181.037 115.562V145.052C181.036 145.868 180.68 146.65 180.046 147.227C179.413 147.804 178.554 148.129 177.658 148.13Z" fill="#D51F1F"/>
<path d="M216.705 232.253H189.267C188.371 232.252 187.512 231.927 186.879 231.35C186.245 230.773 185.889 229.991 185.888 229.175V199.685C185.889 198.869 186.245 198.086 186.879 197.509C187.512 196.932 188.371 196.608 189.267 196.607H216.705C217.601 196.608 218.46 196.932 219.093 197.509C219.727 198.086 220.083 198.869 220.084 199.685V229.175C220.083 229.991 219.727 230.773 219.093 231.35C218.46 231.927 217.601 232.252 216.705 232.253Z" fill="#D51F1F"/>
<path d="M305.312 165.912H277.874C276.978 165.911 276.119 165.586 275.485 165.01C274.852 164.433 274.496 163.65 274.495 162.834V133.344C274.496 132.528 274.852 131.745 275.485 131.168C276.119 130.591 276.978 130.267 277.874 130.266H305.312C306.208 130.267 307.066 130.591 307.7 131.168C308.333 131.745 308.69 132.528 308.691 133.344V162.834C308.69 163.65 308.333 164.433 307.7 165.01C307.066 165.587 306.208 165.911 305.312 165.912Z" fill="#D51F1F"/>
<path d="M420.2 133.767H392.762C391.866 133.766 391.007 133.442 390.374 132.865C389.74 132.288 389.384 131.506 389.383 130.69V101.199C389.384 100.383 389.74 99.6008 390.374 99.0239C391.007 98.4469 391.866 98.1223 392.762 98.1214H420.2C421.096 98.1223 421.955 98.4469 422.588 99.0239C423.222 99.6008 423.578 100.383 423.579 101.199V130.69C423.578 131.506 423.222 132.288 422.588 132.865C421.955 133.442 421.096 133.766 420.2 133.767Z" fill="#D51F1F"/>
<path d="M526.077 133.767H498.639C497.743 133.766 496.885 133.442 496.251 132.865C495.618 132.288 495.261 131.506 495.26 130.69V101.199C495.261 100.383 495.618 99.6008 496.251 99.0239C496.885 98.4469 497.743 98.1223 498.639 98.1214H526.077C526.973 98.1223 527.832 98.4469 528.466 99.0239C529.099 99.6008 529.455 100.383 529.456 101.199V130.69C529.455 131.506 529.099 132.288 528.466 132.865C527.832 133.442 526.973 133.766 526.077 133.767Z" fill="#D51F1F"/>
<path d="M574.886 141.975H547.448C546.552 141.974 545.693 141.649 545.06 141.072C544.426 140.495 544.07 139.713 544.069 138.897V109.406C544.07 108.59 544.426 107.808 545.06 107.231C545.693 106.654 546.552 106.329 547.448 106.329H574.886C575.782 106.329 576.641 106.654 577.274 107.231C577.908 107.808 578.264 108.59 578.265 109.406V138.897C578.264 139.713 577.908 140.495 577.274 141.072C576.641 141.649 575.782 141.974 574.886 141.975Z" fill="#E6E6E6"/>
<path d="M553.11 194.637H525.672C524.776 194.636 523.917 194.311 523.284 193.734C522.65 193.157 522.294 192.375 522.293 191.559V162.069C522.294 161.253 522.65 160.47 523.284 159.893C523.917 159.316 524.776 158.992 525.672 158.991H553.11C554.006 158.992 554.865 159.316 555.498 159.893C556.132 160.47 556.488 161.253 556.489 162.069V191.559C556.488 192.375 556.132 193.157 555.498 193.734C554.865 194.311 554.006 194.636 553.11 194.637Z" fill="#E6E6E6"/>
<path d="M459.998 183.694H432.56C431.664 183.693 430.805 183.369 430.171 182.792C429.538 182.215 429.182 181.432 429.181 180.616V151.126C429.182 150.31 429.538 149.527 430.171 148.95C430.805 148.374 431.664 148.049 432.56 148.048H459.998C460.894 148.049 461.753 148.374 462.386 148.95C463.019 149.527 463.376 150.31 463.377 151.126V180.616C463.376 181.432 463.019 182.215 462.386 182.792C461.753 183.369 460.894 183.693 459.998 183.694Z" fill="#FF6584"/>
<path d="M406.684 194.637H379.246C378.35 194.636 377.491 194.311 376.857 193.734C376.224 193.157 375.868 192.375 375.867 191.559V162.069C375.868 161.253 376.224 160.47 376.857 159.893C377.491 159.316 378.35 158.992 379.246 158.991H406.684C407.58 158.992 408.439 159.316 409.072 159.893C409.705 160.47 410.062 161.253 410.063 162.069V191.559C410.062 192.375 409.705 193.157 409.072 193.734C408.439 194.311 407.58 194.636 406.684 194.637Z" fill="#E6E6E6"/>
<path d="M291.795 241.144H264.357C263.461 241.143 262.602 240.818 261.969 240.241C261.335 239.664 260.979 238.882 260.978 238.066V208.576C260.979 207.76 261.335 206.977 261.969 206.4C262.602 205.823 263.461 205.499 264.357 205.498H291.795C292.691 205.499 293.55 205.823 294.183 206.4C294.817 206.977 295.173 207.76 295.174 208.576V238.066C295.173 238.882 294.817 239.664 294.183 240.241C293.55 240.818 292.691 241.143 291.795 241.144Z" fill="#E6E6E6"/>
<path d="M152.878 202.16H125.44C124.544 202.159 123.685 201.835 123.052 201.258C122.418 200.681 122.062 199.898 122.061 199.082V169.592C122.062 168.776 122.418 167.993 123.052 167.417C123.685 166.84 124.544 166.515 125.44 166.514H152.878C153.774 166.515 154.633 166.84 155.266 167.417C155.9 167.993 156.256 168.776 156.257 169.592V199.082C156.256 199.898 155.9 200.681 155.266 201.258C154.633 201.835 153.774 202.159 152.878 202.16Z" fill="#FF6584"/>
<path d="M230.221 148.13H202.783C201.887 148.129 201.028 147.804 200.395 147.227C199.761 146.65 199.405 145.868 199.404 145.052V115.562C199.405 114.746 199.761 113.963 200.395 113.386C201.028 112.809 201.887 112.485 202.783 112.484H230.221C231.117 112.485 231.976 112.809 232.609 113.386C233.243 113.963 233.599 114.746 233.6 115.562V145.052C233.599 145.868 233.243 146.65 232.609 147.227C231.976 147.804 231.117 148.129 230.221 148.13Z" fill="#E6E6E6"/>
<path d="M207.757 66.3409H164.956C164.159 66.3409 163.395 66.0526 162.832 65.5396C162.269 65.0265 161.952 64.3307 161.952 63.6052C161.952 62.8796 162.269 62.1838 162.832 61.6707C163.395 61.1577 164.159 60.8694 164.956 60.8694H207.757C208.554 60.8694 209.318 61.1577 209.881 61.6707C210.444 62.1838 210.761 62.8796 210.761 63.6052C210.761 64.3307 210.444 65.0265 209.881 65.5396C209.318 66.0526 208.554 66.3409 207.757 66.3409Z" fill="#CCCCCC"/>
<path d="M328.653 66.3409H285.851C285.055 66.3409 284.291 66.0526 283.727 65.5396C283.164 65.0265 282.848 64.3307 282.848 63.6052C282.848 62.8796 283.164 62.1838 283.727 61.6707C284.291 61.1577 285.055 60.8694 285.851 60.8694H328.653C329.449 60.8694 330.213 61.1577 330.777 61.6707C331.34 62.1838 331.656 62.8796 331.656 63.6052C331.656 64.3307 331.34 65.0265 330.777 65.5396C330.213 66.0526 329.449 66.3409 328.653 66.3409Z" fill="#CCCCCC"/>
<path d="M442.04 66.3409H399.238C398.441 66.3409 397.677 66.0526 397.114 65.5396C396.551 65.0265 396.234 64.3307 396.234 63.6052C396.234 62.8796 396.551 62.1838 397.114 61.6707C397.677 61.1577 398.441 60.8694 399.238 60.8694H442.04C442.836 60.8694 443.6 61.1577 444.163 61.6707C444.727 62.1838 445.043 62.8796 445.043 63.6052C445.043 64.3307 444.727 65.0265 444.163 65.5396C443.6 66.0526 442.836 66.3409 442.04 66.3409Z" fill="#CCCCCC"/>
<path d="M547.917 66.3409H505.115C504.319 66.3409 503.555 66.0526 502.992 65.5396C502.428 65.0265 502.112 64.3307 502.112 63.6052C502.112 62.8796 502.428 62.1838 502.992 61.6707C503.555 61.1577 504.319 60.8694 505.115 60.8694H547.917C548.714 60.8694 549.478 61.1577 550.041 61.6707C550.604 62.1838 550.921 62.8796 550.921 63.6052C550.921 64.3307 550.604 65.0265 550.041 65.5396C549.478 66.0526 548.714 66.3409 547.917 66.3409Z" fill="#CCCCCC"/>
<path d="M111.892 266.657C110.793 266.559 109.731 266.243 108.781 265.731C107.831 265.219 107.016 264.523 106.393 263.693C105.771 262.863 105.355 261.918 105.176 260.926C104.998 259.934 105.06 258.918 105.359 257.95L86.1108 241.631L96.2877 239.28L115.215 253.262C116.967 253.827 118.43 254.958 119.328 256.44C120.226 257.922 120.495 259.653 120.086 261.304C119.676 262.955 118.616 264.412 117.105 265.398C115.595 266.385 113.74 266.833 111.892 266.657Z" fill="#FFB8B8"/>
<path d="M138.47 387.275H147.676L152.055 354.934H138.468L138.47 387.275Z" fill="#FFB8B8"/>
<path d="M165.43 395.06L136.497 395.061L136.497 384.88L154.251 384.879C157.216 384.879 160.059 385.952 162.156 387.861C164.252 389.77 165.43 392.36 165.43 395.06Z" fill="#2F2E41"/>
<path d="M75.3496 381.221L84.2463 383.378L97.6132 353.152L84.4836 349.969L75.3496 381.221Z" fill="#FFB8B8"/>
<path d="M99.2041 395.063L71.2448 388.285L74.1202 378.446L91.277 382.605C94.142 383.3 96.5867 385.002 98.0733 387.339C99.5599 389.675 99.9667 392.453 99.2041 395.063Z" fill="#2F2E41"/>
<path d="M150.152 381.152H136.104C135.217 381.155 134.361 380.855 133.704 380.312C133.047 379.768 132.637 379.021 132.555 378.216L124.028 297.559C123.965 296.968 123.679 296.414 123.218 295.994C122.757 295.573 122.15 295.312 121.5 295.254C120.851 295.196 120.199 295.346 119.658 295.677C119.116 296.009 118.717 296.501 118.53 297.071L93.7706 372.439C93.5087 373.24 92.9174 373.918 92.1199 374.332C91.3225 374.745 90.3805 374.862 89.4904 374.659L76.4224 371.683C75.9663 371.579 75.5372 371.394 75.1599 371.138C74.7826 370.883 74.4645 370.562 74.2239 370.194C73.9833 369.826 73.825 369.419 73.758 368.995C73.6911 368.571 73.7168 368.139 73.8338 367.725C74.0472 366.965 95.1675 291.79 95.3519 291.017C100.137 258.894 105.862 250.286 108.938 245.663C109.193 245.28 109.427 244.928 109.637 244.595C109.901 244.179 111.524 240.051 112.553 237.37C112.687 236.934 112.919 236.528 113.233 236.177C113.548 235.827 113.939 235.539 114.382 235.333C127.305 229.314 142.426 233.481 146.753 234.901C147.47 235.131 148.086 235.567 148.508 236.143C161.488 253.974 155.118 357.534 153.709 378.113C153.651 378.936 153.25 379.708 152.59 380.273C151.929 380.837 151.057 381.152 150.152 381.152Z" fill="#2F2E41"/>
<path d="M113.9 176.853C124.086 176.853 132.343 169.333 132.343 160.055C132.343 150.778 124.086 143.257 113.9 143.257C103.714 143.257 95.457 150.778 95.457 160.055C95.457 169.333 103.714 176.853 113.9 176.853Z" fill="#FFB8B8"/>
<path d="M111.946 240.631L111.814 240.514C111.565 240.295 86.992 218.369 90.1722 198.094C91.5323 189.422 99.2358 183.881 112.45 182.069C117.304 181.413 122.256 182.374 126.395 184.777C130.533 187.179 133.581 190.861 134.977 195.147L148.042 235.83L111.946 240.631Z" fill="#CCCCCC"/>
<path d="M99.3691 256.227L81.8592 240.379C80.662 239.29 79.7927 237.938 79.3351 236.453C78.8775 234.969 78.8469 233.403 79.2463 231.905L87.7229 200.499C87.9768 199.558 88.4401 198.675 89.084 197.903C89.728 197.132 90.5389 196.489 91.4667 196.015C92.3944 195.54 93.4192 195.244 94.4775 195.145C95.5359 195.046 96.6054 195.146 97.6198 195.438C99.5532 196.006 101.168 197.236 102.122 198.87C103.077 200.503 103.296 202.41 102.733 204.188L93.8086 231.816L108.24 245.93L99.3691 256.227Z" fill="#CCCCCC"/>
<path d="M193.286 202.143C192.823 203.056 192.146 203.865 191.302 204.514C190.459 205.162 189.47 205.634 188.404 205.897C187.338 206.16 186.223 206.207 185.135 206.034C184.048 205.861 183.015 205.474 182.11 204.898L158.734 215.933L159.768 206.559L180.49 194.879C181.652 193.558 183.306 192.671 185.138 192.386C186.97 192.102 188.853 192.439 190.431 193.334C192.008 194.23 193.17 195.621 193.696 197.245C194.222 198.868 194.076 200.611 193.286 202.143Z" fill="#FFB8B8"/>
<path d="M179.557 209.121L156.77 218.089C155.253 218.682 153.595 218.908 151.954 218.748C150.313 218.588 148.745 218.046 147.401 217.174L118.424 198.264C117.56 197.699 116.831 196.979 116.284 196.148C115.737 195.317 115.383 194.393 115.244 193.432C115.105 192.471 115.184 191.495 115.477 190.563C115.769 189.631 116.268 188.764 116.942 188.015C118.239 186.59 120.094 185.682 122.114 185.482C124.133 185.282 126.159 185.806 127.762 186.942L152.608 204.753L172.357 197.794L179.557 209.121Z" fill="#CCCCCC"/>
<path d="M116.958 165.438C119.233 162.842 123.484 162.702 126.609 160.989C130.703 158.746 132.395 153.732 131.076 149.55C129.757 145.368 125.866 142.108 121.405 140.549C116.945 138.99 111.982 138.971 107.276 139.725C100.27 140.847 93.3727 143.825 89.0997 149.005C84.8267 154.185 83.7393 161.771 87.6118 167.206C89.3916 169.704 92.1392 171.766 92.8497 174.672C93.7826 178.488 90.8438 182.169 87.6954 184.826C84.1085 187.853 79.9933 190.389 76.8509 193.801C73.7084 197.213 71.6128 201.876 73.0468 206.134C74.2482 209.701 77.7444 212.33 81.5781 213.646C85.4119 214.962 89.5873 215.152 93.6836 215.225C97.6613 215.296 101.886 215.208 105.237 213.255C108.824 211.164 110.74 207.196 110.881 203.319C111.023 199.442 109.6 195.644 107.694 192.175C106.557 190.107 105.236 188.104 104.481 185.896C103.726 183.689 103.595 181.184 104.805 179.151C106.076 177.014 108.647 175.725 111.265 175.257C111.401 175.232 111.545 175.211 111.696 175.191C112.441 175.103 113.159 174.878 113.805 174.531C114.452 174.183 115.015 173.719 115.46 173.167C115.904 172.616 116.221 171.988 116.392 171.322C116.562 170.655 116.583 169.964 116.452 169.29C116.153 167.776 116.179 166.326 116.958 165.438Z" fill="#2F2E41"/>
<path d="M362.859 387.991H353.653L349.273 355.65L362.86 355.651L362.859 387.991Z" fill="#A0616A"/>
<path d="M347.077 385.596H364.831V395.777H335.898C335.898 394.44 336.188 393.116 336.749 391.881C337.311 390.646 338.135 389.523 339.173 388.578C340.211 387.632 341.443 386.882 342.799 386.371C344.155 385.859 345.609 385.596 347.077 385.596Z" fill="#2F2E41"/>
<path d="M429.655 378.494L421.282 381.977L402.544 354.217L414.903 349.075L429.655 378.494Z" fill="#A0616A"/>
<path d="M414.208 382.286L430.357 375.568L435.001 384.829L408.684 395.778C408.074 394.561 407.733 393.248 407.681 391.912C407.628 390.575 407.865 389.243 408.378 387.99C408.891 386.737 409.67 385.589 410.67 384.61C411.67 383.632 412.872 382.842 414.208 382.286Z" fill="#2F2E41"/>
<path d="M402.846 278.944C403.728 278.34 404.454 277.566 404.972 276.679C405.491 275.791 405.789 274.81 405.846 273.806C405.904 272.802 405.719 271.799 405.304 270.867C404.89 269.935 404.256 269.097 403.448 268.413L414.269 246.048L400.521 248.171L392.353 269.083C391.18 270.396 390.576 272.055 390.657 273.746C390.738 275.438 391.497 277.043 392.79 278.259C394.084 279.474 395.822 280.215 397.675 280.342C399.528 280.468 401.368 279.971 402.846 278.944Z" fill="#A0616A"/>
<path d="M362.272 379.464H353.477C352.624 379.461 351.804 379.166 351.179 378.637C350.555 378.108 350.172 377.384 350.107 376.609L345.311 259.96C345.275 259.513 345.347 259.064 345.522 258.645C345.697 258.226 345.969 257.847 346.322 257.534C346.674 257.221 347.097 256.982 347.561 256.833C348.026 256.685 348.52 256.63 349.01 256.674L399.872 261.593C400.696 261.667 401.462 262.013 402.025 262.567C402.587 263.121 402.906 263.844 402.922 264.598L403.988 316.054C403.994 316.333 404.053 316.609 404.164 316.87L425.028 366.149C425.189 366.529 425.265 366.936 425.253 367.343C425.24 367.751 425.138 368.153 424.954 368.525C424.769 368.896 424.505 369.231 424.177 369.509C423.849 369.787 423.463 370.002 423.043 370.143L414.131 373.134C413.357 373.394 412.505 373.387 411.737 373.114C410.968 372.841 410.335 372.322 409.958 371.654L384.328 326.263C384.188 326.016 384.086 325.753 384.024 325.481L379.646 306.267C379.519 305.71 379.178 305.212 378.685 304.863C378.191 304.514 377.578 304.337 376.954 304.362C376.33 304.388 375.736 304.615 375.279 305.004C374.823 305.392 374.533 305.915 374.462 306.481L365.629 376.736C365.535 377.487 365.141 378.18 364.522 378.683C363.902 379.186 363.102 379.464 362.272 379.464Z" fill="#2F2E41"/>
<path d="M366.651 168.751C376.837 168.751 385.094 161.231 385.094 151.953C385.094 142.676 376.837 135.155 366.651 135.155C356.465 135.155 348.208 142.676 348.208 151.953C348.208 161.231 356.465 168.751 366.651 168.751Z" fill="#A0616A"/>
<path d="M379.299 270.626C366.792 270.5 354.583 267.132 344.102 260.915L343.922 260.802L343.941 260.604L350.996 185.772C351.239 183.233 352.483 180.86 354.498 179.092C356.513 177.325 359.163 176.281 361.958 176.155C371.101 175.772 383.382 176.255 389.956 180.714C399.891 187.454 404.68 197.603 403.094 208.559C399.805 231.278 403.53 261.925 403.966 265.344L403.998 265.591L403.75 265.694C396.091 268.94 387.746 270.623 379.299 270.626Z" fill="#D51F1F"/>
<path d="M403.881 265.471C403.361 265.471 402.847 265.372 402.372 265.181C401.896 264.99 401.469 264.711 401.117 264.362L397.083 260.353C396.647 259.918 396.342 259.387 396.196 258.813C396.05 258.238 396.069 257.64 396.25 257.074L405.449 228.716L391.453 201.944C390.799 200.691 390.639 199.271 390.999 197.923C391.317 196.74 392.021 195.672 393.018 194.861C394.016 194.049 395.26 193.532 396.587 193.378C397.913 193.224 399.26 193.439 400.449 193.996C401.639 194.553 402.615 195.425 403.249 196.498L422.243 224.568C423.014 225.706 423.467 227 423.561 228.336C423.656 229.671 423.389 231.007 422.784 232.226L407.307 263.458C407.053 263.974 406.661 264.425 406.167 264.768C405.673 265.112 405.093 265.339 404.479 265.428C404.282 265.457 404.082 265.471 403.881 265.471Z" fill="#D51F1F"/>
<path d="M273.883 211.301C274.769 211.901 275.788 212.317 276.87 212.519C277.951 212.722 279.068 212.706 280.142 212.472C281.215 212.239 282.22 211.794 283.084 211.169C283.949 210.544 284.653 209.754 285.146 208.854L311.756 211.997L305.641 200.584L281.308 199.349C279.594 198.694 277.676 198.636 275.918 199.184C274.159 199.731 272.682 200.848 271.767 202.321C270.852 203.794 270.562 205.522 270.952 207.177C271.342 208.832 272.385 210.299 273.883 211.301Z" fill="#A0616A"/>
<path d="M332.537 217.534C332.074 217.534 331.611 217.505 331.152 217.447L289.288 212.159C288.604 212.073 287.954 211.834 287.397 211.462C286.84 211.091 286.393 210.599 286.096 210.031C286.001 209.848 285.921 209.658 285.858 209.464C285.696 208.959 285.65 208.429 285.725 207.907C285.799 207.385 285.991 206.884 286.289 206.433L289.754 201.202C290.126 200.643 290.651 200.18 291.276 199.858C291.901 199.537 292.607 199.367 293.325 199.365H293.331L329.821 199.403L357.075 177.163C358.343 176.131 359.962 175.528 361.661 175.454C363.152 175.391 364.63 175.741 365.898 176.459C367.166 177.176 368.166 178.227 368.766 179.472C369.365 180.718 369.536 182.099 369.256 183.435C368.976 184.771 368.258 185.998 367.197 186.954L340.003 214.502C339.062 215.456 337.91 216.219 336.624 216.742C335.338 217.264 333.946 217.534 332.537 217.534Z" fill="#D51F1F"/>
<path d="M368.748 166.897C370.433 163.344 371.859 158.613 368.627 156.101C366.752 154.644 364.051 154.641 361.594 154.46C354.673 153.949 347.548 151.049 344.165 145.526C340.782 140.002 342.671 131.789 349.054 129.297C353.356 127.618 358.288 128.762 362.791 129.925L376.312 133.417C380.329 134.455 384.547 135.599 387.439 138.342C392.052 142.718 391.707 150.114 388.043 155.179C384.38 160.245 378.863 165.528 372.546 167.451L368.748 166.897Z" fill="#2F2E41"/>
<path d="M555.282 396H0.894241C0.77661 396 0.660071 395.979 0.551295 395.939C0.44252 395.898 0.343656 395.838 0.260357 395.762C0.177058 395.687 0.110965 395.597 0.0658705 395.498C0.0207759 395.399 -0.00244141 395.293 -0.00244141 395.186C-0.00244141 395.078 0.0207759 394.972 0.0658705 394.873C0.110965 394.775 0.177058 394.685 0.260357 394.609C0.343656 394.533 0.44252 394.473 0.551295 394.433C0.660071 394.392 0.77661 394.371 0.894241 394.371H555.282C555.4 394.371 555.516 394.392 555.625 394.433C555.734 394.473 555.833 394.533 555.916 394.609C555.999 394.685 556.065 394.775 556.111 394.873C556.156 394.972 556.179 395.078 556.179 395.186C556.179 395.293 556.156 395.399 556.111 395.498C556.065 395.597 555.999 395.687 555.916 395.762C555.833 395.838 555.734 395.898 555.625 395.939C555.516 395.979 555.4 396 555.282 396Z" fill="#3F3D56"/>
</g>
<defs>
<clipPath id="clip0_379_1157">
<rect width="617" height="396" fill="white"/>
</clipPath>
</defs>
</svg>
