<svg width="568" height="331" viewBox="0 0 568 331" fill="none" xmlns="http://www.w3.org/2000/svg">
<g clip-path="url(#clip0_379_1261)">
<path d="M77.2793 264.635H504.458V4.2432H77.2793V264.635Z" fill="white"/>
<path d="M507.981 268.878H73.7554V0H507.981V268.878ZM80.8031 260.392H500.934V8.48603H80.8031V260.392Z" fill="#E5E5E5"/>
<path d="M276.653 59.3303V147.71H169.954L150.242 176.189L152.493 147.71H142.901V59.3303H276.653Z" fill="#A22C2C"/>
<path d="M341.224 64.5739V121.24H409.635L422.273 139.498L420.831 121.24H426.98V64.5739H341.224Z" fill="#F0F0F0"/>
<path d="M58.8903 322.642H65.0624L67.9988 293.977H58.8896L58.8903 322.642Z" fill="#FFB7B7"/>
<path d="M57.3164 320.216L69.4714 320.215C71.5257 320.215 73.4964 321.198 74.949 322.947C76.4017 324.696 77.2178 327.068 77.218 329.542V329.845L57.3167 329.846L57.3164 320.216Z" fill="#2F2E41"/>
<path d="M133.043 322.398L139.036 320.622L136.199 291.943L127.354 294.564L133.043 322.398Z" fill="#FFB7B7"/>
<path d="M131.033 320.495L142.835 316.997C144.83 316.406 146.939 316.794 148.697 318.074C150.454 319.355 151.718 321.423 152.209 323.825L152.269 324.12L132.944 329.846L131.033 320.495Z" fill="#2F2E41"/>
<path d="M55.0947 315.807L56.3769 307.909C56.3769 307.909 58.737 277.411 75.6746 246.973L81.1878 213.909C81.1878 213.909 79.5505 188.882 95.3536 175.334L100.226 171.293L117.307 172.472L121.253 198.479L129.202 260.015C129.202 260.015 131.253 260.247 132.022 267.363C133.586 270.351 134.511 273.759 134.715 277.282C134.715 277.282 138.783 290.795 139.873 300.745L139.745 310.48L131.154 315.991L113.25 255.023L100.444 220.938C100.444 220.938 94.2808 244.953 84.8401 265.526C84.8401 265.526 71.9096 299.225 69.3264 306.072L66.5057 317.277L55.0947 315.807Z" fill="#2F2E41"/>
<path d="M112.208 118.961C118.952 118.961 124.418 112.379 124.418 104.26C124.418 96.1407 118.952 89.5588 112.208 89.5588C105.465 89.5588 99.999 96.1407 99.999 104.26C99.999 112.379 105.465 118.961 112.208 118.961Z" fill="#FFB7B7"/>
<path d="M112.208 118.961C118.952 118.961 124.418 112.379 124.418 104.26C124.418 96.1407 118.952 89.5588 112.208 89.5588C105.465 89.5588 99.999 96.1407 99.999 104.26C99.999 112.379 105.465 118.961 112.208 118.961Z" fill="#FFB8B8"/>
<path d="M95.3896 175.491L99.4202 163.369C96.5725 152.263 96.747 140.351 99.9183 129.373L100.689 128.609C107.407 121.947 113.304 123.16 118.775 131.309C119.656 132.633 120.687 133.803 121.837 134.784C124.25 136.823 128.078 147.899 123.023 154.391L118.979 182.795C119.405 198.478 109.954 192.572 95.3896 175.491Z" fill="#3F3D56"/>
<path d="M153.181 159.004C152.66 158.529 152.058 158.198 151.419 158.033C150.78 157.869 150.119 157.875 149.482 158.051C148.845 158.228 148.248 158.57 147.733 159.055C147.218 159.539 146.798 160.153 146.501 160.855L136.317 159.9L134.326 167.21L148.723 168.315C149.735 168.837 150.87 168.894 151.914 168.475C152.958 168.056 153.838 167.191 154.387 166.043C154.937 164.896 155.117 163.545 154.895 162.248C154.673 160.95 154.063 159.796 153.181 159.004Z" fill="#FFB7B7"/>
<path d="M143.431 170.863L114.411 164.338L104.973 145.284C104.366 143.26 104.452 141.028 105.213 139.08C105.973 137.132 107.344 135.627 109.026 134.897C110.708 134.167 112.561 134.271 114.179 135.186C115.797 136.101 117.046 137.753 117.653 139.778L122.08 154.518L145.03 159.092L143.431 170.863Z" fill="#CCCCCC"/>
<path d="M90.4449 101.04C96.914 101.04 102.158 94.7255 102.158 86.9361C102.158 79.1467 96.914 72.8321 90.4449 72.8321C83.9757 72.8321 78.7314 79.1467 78.7314 86.9361C78.7314 94.7255 83.9757 101.04 90.4449 101.04Z" fill="#2F2E41"/>
<path d="M80.3417 98.6151C81.8578 99.9345 83.6143 100.798 85.4642 101.132C87.314 101.466 89.2035 101.263 90.9746 100.538C92.7456 99.8125 94.3467 98.5872 95.6438 96.9643C96.941 95.3414 97.8965 93.3681 98.4304 91.2094C98.2283 93.1439 97.6954 95.007 96.8652 96.681C96.035 98.355 94.9256 99.8036 93.607 100.935C92.2883 102.067 90.7892 102.857 89.2041 103.256C87.6191 103.655 85.9826 103.654 84.3979 103.253C82.8133 102.851 81.3149 102.059 79.9974 100.926C78.6799 99.792 77.5719 98.3418 76.7433 96.6666C75.9148 94.9914 75.3837 93.1276 75.1836 91.1927C74.9834 89.2579 75.1186 87.2941 75.5806 85.4254C75.3182 87.936 75.6218 90.4854 76.4595 92.8061C77.2972 95.1268 78.6382 97.1333 80.3417 98.6151Z" fill="#2F2E41"/>
<path d="M126.568 98.6308C124.523 94.2227 123.74 92.3814 121.104 89.7009C118.772 87.3303 115.904 86.6341 113.591 88.8803C110.855 87.4567 107.81 87.1339 104.909 87.9599C102.008 88.7858 99.4056 90.7165 97.4885 93.4651C95.5714 96.2138 94.4417 99.6337 94.2674 103.217C94.093 106.8 94.8832 110.355 96.5207 113.355C98.1581 116.354 100.555 118.638 103.356 119.866C106.157 121.094 109.213 121.202 112.069 120.172C114.924 119.143 117.428 117.032 119.208 114.153C120.989 111.274 121.95 107.781 121.95 104.191C121.948 103.561 121.916 102.931 121.855 102.305C123.866 101.965 124.557 98.9708 126.568 98.6308Z" fill="#2F2E41"/>
<path d="M486.656 204.146C486.695 203.174 486.91 202.223 487.286 201.361C487.663 200.499 488.192 199.747 488.836 199.157C489.48 198.568 490.223 198.156 491.014 197.95C491.804 197.744 492.623 197.75 493.411 197.966L500.728 185.55L508.079 189.064L497.542 206.422C497.152 207.994 496.297 209.338 495.14 210.201C493.982 211.065 492.601 211.387 491.259 211.106C489.918 210.825 488.708 209.962 487.86 208.679C487.011 207.397 486.583 205.784 486.656 204.146Z" fill="#A0616A"/>
<path d="M494.683 193.469L507.691 167.125L502.391 150.107L509.61 126.928L509.876 127.066C510.051 127.156 514.152 129.36 514.76 137.252L523.055 168.644L500.916 203.226L494.683 193.469Z" fill="#3F3D56"/>
<path d="M424.031 96.6195C424.833 96.7406 425.604 97.0722 426.289 97.5908C426.973 98.1094 427.555 98.8025 427.993 99.6212C428.431 100.44 428.715 101.364 428.825 102.329C428.934 103.294 428.866 104.276 428.626 105.207L438.341 114.95L434.863 123.503L421.305 109.511C420.034 108.922 418.986 107.792 418.361 106.335C417.736 104.878 417.576 103.196 417.912 101.607C418.248 100.018 419.057 98.6327 420.184 97.7134C421.312 96.7942 422.681 96.4049 424.031 96.6195Z" fill="#A0616A"/>
<path d="M432.251 107.08L453.059 124.734L467.56 119.687L486.194 130.145L486.06 130.454C485.971 130.657 483.83 135.41 477.248 135.53L450.613 143.061L423.69 113.809L432.251 107.08Z" fill="#3F3D56"/>
<path d="M470.326 321.758H463.092L459.651 288.161L470.327 288.162L470.326 321.758Z" fill="#A0616A"/>
<path d="M457.925 319.269H471.876V329.845H449.141C449.141 328.457 449.368 327.081 449.81 325.798C450.251 324.515 450.898 323.349 451.714 322.367C452.529 321.385 453.498 320.606 454.564 320.074C455.629 319.542 456.771 319.269 457.925 319.269Z" fill="#2F2E41"/>
<path d="M499.238 321.758H492.004L488.563 288.161L499.239 288.162L499.238 321.758Z" fill="#A0616A"/>
<path d="M486.837 319.269H500.787V329.845H478.053C478.053 328.457 478.28 327.081 478.721 325.798C479.163 324.515 479.81 323.349 480.625 322.367C481.441 321.385 482.409 320.606 483.475 320.074C484.541 319.542 485.683 319.269 486.837 319.269Z" fill="#2F2E41"/>
<path d="M501.81 199.129L501.22 248.861L500.63 314.223L487.649 312.802L481.159 222.574L472.898 312.802H459.497L458.147 221.863L462.868 201.97L501.81 199.129Z" fill="#2F2E41"/>
<path d="M461.574 202.274L459.596 202.171L468.782 141.242L465.021 122.826C464.825 121.868 464.928 120.857 465.311 119.984C465.693 119.112 466.328 118.438 467.095 118.092L473.862 115.036L476.253 107.12L495.115 109.567L495.579 115.754C497.623 116.544 514.455 123.293 513.293 130.984C512.147 138.575 505.379 162.457 505.035 163.667L503.85 197.918L503.704 198.005C503.529 198.111 490.528 205.808 476.404 205.807C471.308 205.91 466.253 204.705 461.574 202.274Z" fill="#3F3D56"/>
<path d="M484.945 103.203C492.445 103.203 498.525 95.8813 498.525 86.8501C498.525 77.8188 492.445 70.4976 484.945 70.4976C477.444 70.4976 471.364 77.8188 471.364 86.8501C471.364 95.8813 477.444 103.203 484.945 103.203Z" fill="#A0616A"/>
<path d="M495.945 102.68C493.357 105.999 488.55 104.217 488.213 99.6822C488.186 99.3301 488.188 98.9758 488.219 98.6241C488.393 96.6153 489.357 94.7915 489.126 92.6704C489.073 92.1425 488.91 91.6395 488.651 91.2089C486.589 87.8834 481.747 92.6962 479.801 89.6858C478.607 87.8399 480.01 84.9336 479.094 82.8704C477.886 80.1474 474.305 81.4907 472.06 79.9995C469.561 78.3403 469.711 73.725 471.355 70.9177C473.361 67.4942 476.877 65.6674 480.35 65.4041C483.822 65.1408 487.271 66.2711 490.513 67.7924C494.197 69.5209 497.849 71.9096 500.116 75.8096C502.873 80.5523 503.138 86.9285 501.759 92.4742C500.921 95.8478 498.058 99.9689 495.945 102.68Z" fill="#2F2E41"/>
<path d="M348.804 317.24L350.821 310.991L331.764 298.647L328.786 307.87L348.804 317.24Z" fill="#FFB8B8"/>
<path d="M359.614 300.939C358.758 300.538 357.846 300.344 356.928 300.368C356.011 300.392 355.106 300.633 354.266 301.079C353.426 301.524 352.667 302.164 352.033 302.963C351.398 303.761 350.901 304.702 350.569 305.733L349.208 309.945L347.109 316.447L346.596 318.042L353.321 321.191L359.825 301.04L359.614 300.939Z" fill="#2F2E41"/>
<path d="M347.11 305.214L346.232 308.016L344.042 315.01L343.99 315.184C338.41 316.048 332.294 314.355 326.637 311.727C324.373 310.675 322.156 309.484 319.995 308.158C316.795 306.211 313.931 304.157 311.645 302.4C308.205 299.741 306.077 297.745 306.077 297.745C306.077 297.745 305.515 298.356 304.498 299.405C303.135 300.809 300.957 303.002 298.197 305.584C297.145 306.576 296.015 307.613 294.807 308.696C285.905 316.646 274.48 295.431 274.48 295.431C274.48 295.431 277.694 292.968 278.533 292.49C281.236 290.95 287.586 287.317 293.064 284.088C295.886 282.422 298.474 280.86 300.211 279.75C306.363 275.806 314.011 283.269 314.011 283.269L347.11 305.214Z" fill="#2F2E41"/>
<path opacity="0.14" d="M347.11 305.214L346.232 308.016L344.042 315.01L343.99 315.184C338.41 316.048 332.294 314.355 326.637 311.727C324.373 310.675 322.156 309.484 319.995 308.158C316.795 306.211 313.931 304.157 311.645 302.4C308.205 299.741 306.077 297.745 306.077 297.745C306.077 297.745 305.515 298.356 304.498 299.405C303.135 300.809 300.957 303.002 298.197 305.584C297.145 306.576 296.015 307.613 294.807 308.696C285.905 316.646 274.48 295.431 274.48 295.431C274.48 295.431 277.694 292.968 278.533 292.49C281.236 290.95 287.586 287.317 293.064 284.088C295.886 282.422 298.474 280.86 300.211 279.75C306.363 275.806 314.011 283.269 314.011 283.269L347.11 305.214Z" fill="black"/>
<path d="M258.065 246.399H231.723C231.182 246.398 230.662 246.139 230.279 245.677C229.896 245.216 229.68 244.591 229.68 243.938V230.267C229.68 225.408 231.283 220.748 234.136 217.313C236.989 213.877 240.859 211.947 244.894 211.947C248.93 211.947 252.799 213.877 255.653 217.313C258.506 220.748 260.109 225.408 260.109 230.267V243.938C260.108 244.591 259.893 245.216 259.51 245.677C259.127 246.139 258.607 246.398 258.065 246.399Z" fill="#2F2E41"/>
<path d="M283.116 263.571C282.503 263.701 281.921 263.991 281.411 264.421C280.901 264.851 280.475 265.41 280.164 266.059C279.853 266.709 279.664 267.432 279.61 268.179C279.556 268.926 279.639 269.678 279.853 270.382L272.69 278.315L275.632 284.732L285.617 273.358C286.575 272.848 287.345 271.931 287.78 270.783C288.215 269.634 288.285 268.334 287.977 267.128C287.668 265.921 287.003 264.893 286.108 264.237C285.212 263.582 284.148 263.345 283.116 263.571Z" fill="#FFB8B8"/>
<path d="M261.564 299.638C261.24 299.638 260.916 299.621 260.591 299.587C258.659 299.393 256.8 298.611 255.187 297.314C253.575 296.018 252.262 294.249 251.373 292.174L239.897 265.579C239.145 263.836 238.98 261.812 239.437 259.926C239.893 258.041 240.935 256.44 242.347 255.456C243.758 254.473 245.43 254.182 247.015 254.645C248.6 255.108 249.976 256.289 250.856 257.942L261.443 286.545L275.849 272.451L284.19 276.361L270.104 295.086C269.021 296.518 267.702 297.662 266.232 298.445C264.761 299.229 263.172 299.635 261.564 299.638Z" fill="#A22C2C"/>
<path d="M347.193 326.029L349.604 319.986L331.391 305.915L327.833 314.835L347.193 326.029Z" fill="#FFB8B8"/>
<path d="M359.012 310.776C358.185 310.297 357.287 310.019 356.371 309.958C355.455 309.897 354.537 310.054 353.671 310.421C352.805 310.787 352.008 311.355 351.324 312.092C350.641 312.83 350.085 313.722 349.688 314.719L348.062 318.793L345.555 325.082L344.942 326.624L351.446 330.386L359.216 310.896L359.012 310.776Z" fill="#2F2E41"/>
<path d="M346.273 313.882L345.219 316.594L342.589 323.365L342.526 323.534C336.908 323.879 330.917 321.626 325.444 318.481C323.255 317.224 321.12 315.831 319.05 314.309C315.984 312.072 313.259 309.759 311.093 307.796C307.832 304.826 305.838 302.639 305.838 302.639C305.838 302.639 305.239 303.196 304.158 304.148C302.709 305.422 300.397 307.407 297.481 309.726C296.369 310.617 295.176 311.547 293.902 312.515C284.519 319.619 271.176 328.27 259.826 330.096C239.892 333.307 244.584 301.277 244.584 301.277L260.448 291.357L267.184 293.003L274.682 294.83L277.339 295.48C277.339 295.48 277.843 295.251 278.71 294.851C281.504 293.566 288.066 290.531 293.734 287.819C296.655 286.419 299.334 285.101 301.137 284.155C307.523 280.792 314.672 288.94 314.672 288.94L346.273 313.882Z" fill="#2F2E41"/>
<path d="M215.554 330.861C216.161 330.694 216.73 330.368 217.221 329.907C217.712 329.446 218.113 328.861 218.396 328.193C218.679 327.525 218.837 326.791 218.858 326.041C218.88 325.292 218.765 324.546 218.521 323.856L225.334 315.488L222.12 309.263L212.637 321.243C211.702 321.813 210.973 322.776 210.587 323.95C210.202 325.124 210.188 326.427 210.548 327.612C210.907 328.798 211.616 329.783 212.539 330.382C213.461 330.981 214.534 331.151 215.554 330.861Z" fill="#FFB8B8"/>
<path d="M248.624 247.009C254.49 247.009 259.246 241.284 259.246 234.22C259.246 227.157 254.49 221.431 248.624 221.431C242.758 221.431 238.003 227.157 238.003 234.22C238.003 241.284 242.758 247.009 248.624 247.009Z" fill="#FFB8B8"/>
<path d="M234.806 269.721L244.058 301.305L244.003 301.416C242.716 303.977 242.295 306.044 242.787 307.391C242.916 307.734 243.106 308.038 243.342 308.284C243.579 308.53 243.857 308.711 244.158 308.815L266.053 290.388L265.286 283.002L265.329 282.92C267.445 278.842 268.13 275.15 267.366 271.946C266.673 269.353 265.177 267.181 263.189 265.881L263.113 265.808L252.193 249.804L237.595 252.927L234.806 269.721Z" fill="#A22C2C"/>
<path d="M220.736 325.159L214.538 315.974L229.48 286.274L236.446 260.346C236.826 258.929 237.455 257.628 238.288 256.528C239.122 255.429 240.142 254.558 241.279 253.973C242.416 253.388 243.644 253.104 244.88 253.139C246.116 253.174 247.332 253.528 248.445 254.176C249.557 254.825 250.542 255.753 251.332 256.898C252.122 258.044 252.698 259.38 253.023 260.816C253.348 262.253 253.413 263.756 253.214 265.226C253.016 266.695 252.558 268.096 251.871 269.334L239.082 292.406L220.736 325.159Z" fill="#A22C2C"/>
<path d="M263.709 231.634H247.601L247.436 228.849L246.61 231.634H244.13L243.803 226.115L242.166 231.634H237.367V231.36C237.37 227.518 238.639 223.835 240.896 221.118C243.152 218.401 246.211 216.873 249.402 216.868H251.673C254.864 216.873 257.923 218.401 260.179 221.118C262.436 223.835 263.705 227.518 263.709 231.36V231.634Z" fill="#2F2E41"/>
<path d="M247.469 248.951C247.348 248.951 247.227 248.938 247.108 248.912L235.313 246.407V222.936H248.297L247.975 223.387C243.503 229.667 246.872 239.851 249.279 245.362C249.456 245.766 249.535 246.222 249.507 246.677C249.478 247.132 249.344 247.569 249.119 247.936C248.93 248.25 248.682 248.506 248.395 248.683C248.109 248.859 247.791 248.951 247.469 248.951Z" fill="#2F2E41"/>
<path d="M423.684 206.901V239.967H302.03L284.463 265.345L286.469 239.967H277.922V206.901H423.684Z" fill="#F0F0F0"/>
<path d="M328.499 229.374C331.248 229.374 333.476 226.691 333.476 223.381C333.476 220.072 331.248 217.389 328.499 217.389C325.75 217.389 323.522 220.072 323.522 223.381C323.522 226.691 325.75 229.374 328.499 229.374Z" fill="white"/>
<path d="M311.702 229.374C314.45 229.374 316.679 226.691 316.679 223.381C316.679 220.072 314.45 217.389 311.702 217.389C308.953 217.389 306.725 220.072 306.725 223.381C306.725 226.691 308.953 229.374 311.702 229.374Z" fill="white"/>
<path d="M294.904 229.374C297.653 229.374 299.881 226.691 299.881 223.381C299.881 220.072 297.653 217.389 294.904 217.389C292.156 217.389 289.927 220.072 289.927 223.381C289.927 226.691 292.156 229.374 294.904 229.374Z" fill="white"/>
<path d="M567.378 330.501H0.622125C0.457127 330.501 0.298887 330.422 0.182216 330.282C0.0655446 330.141 0 329.951 0 329.752C0 329.554 0.0655446 329.363 0.182216 329.223C0.298887 329.082 0.457127 329.003 0.622125 329.003H567.378C567.543 329.003 567.701 329.082 567.818 329.223C567.934 329.363 568 329.554 568 329.752C568 329.951 567.934 330.141 567.818 330.282C567.701 330.422 567.543 330.501 567.378 330.501Z" fill="#CACACA"/>
</g>
<defs>
<clipPath id="clip0_379_1261">
<rect width="568" height="331" fill="white"/>
</clipPath>
</defs>
</svg>
