<svg width="531" height="497" viewBox="0 0 531 497" fill="none" xmlns="http://www.w3.org/2000/svg">
<g clip-path="url(#clip0_379_1312)">
<path d="M419.004 111.082H126.874C123.916 111.078 121.081 109.848 118.99 107.661C116.899 105.473 115.723 102.508 115.719 99.415V11.6672C115.723 8.57414 116.899 5.60879 118.99 3.42166C121.081 1.23454 123.916 0.00423497 126.874 0.000640869H443.727C446.685 0.00423497 449.52 1.23454 451.611 3.42166C453.702 5.60879 454.878 8.57414 454.882 11.6672V73.5534C454.871 83.5024 451.087 93.0407 444.361 100.076C437.635 107.111 428.516 111.069 419.004 111.082Z" fill="#333333"/>
<path d="M318.234 31.2076H184.835C184.072 31.2076 183.34 30.8906 182.801 30.3263C182.261 29.762 181.958 28.9967 181.958 28.1986C181.958 27.4006 182.261 26.6353 182.801 26.071C183.34 25.5067 184.072 25.1897 184.835 25.1897H318.234C318.997 25.1897 319.729 25.5067 320.269 26.071C320.808 26.6353 321.111 27.4006 321.111 28.1986C321.111 28.9967 320.808 29.762 320.269 30.3263C319.729 30.8906 318.997 31.2076 318.234 31.2076Z" fill="white"/>
<path d="M385.764 43.5137H184.835C184.072 43.5137 183.34 43.1967 182.801 42.6324C182.261 42.0681 181.958 41.3028 181.958 40.5047C181.958 39.7067 182.261 38.9414 182.801 38.3771C183.34 37.8128 184.072 37.4958 184.835 37.4958H385.764C386.527 37.4958 387.259 37.8128 387.799 38.3771C388.338 38.9414 388.641 39.7067 388.641 40.5047C388.641 41.3028 388.338 42.0681 387.799 42.6324C387.259 43.1967 386.527 43.5137 385.764 43.5137Z" fill="white"/>
<path d="M385.764 57.6395H184.835C184.072 57.6395 183.34 57.3225 182.801 56.7582C182.261 56.1939 181.958 55.4286 181.958 54.6306C181.958 53.8325 182.261 53.0672 182.801 52.5029C183.34 51.9386 184.072 51.6216 184.835 51.6216H385.764C386.527 51.6216 387.259 51.9386 387.799 52.5029C388.338 53.0672 388.641 53.8325 388.641 54.6306C388.641 55.4286 388.338 56.1939 387.799 56.7582C387.259 57.3225 386.527 57.6395 385.764 57.6395Z" fill="white"/>
<path d="M385.764 71.7647H184.835C184.072 71.7647 183.34 71.4477 182.801 70.8834C182.261 70.3191 181.958 69.5538 181.958 68.7558C181.958 67.9578 182.261 67.1924 182.801 66.6281C183.34 66.0638 184.072 65.7468 184.835 65.7468H385.764C386.527 65.7468 387.259 66.0638 387.799 66.6281C388.338 67.1924 388.641 67.9578 388.641 68.7558C388.641 69.5538 388.338 70.3191 387.799 70.8834C387.259 71.4477 386.527 71.7647 385.764 71.7647Z" fill="white"/>
<path d="M385.764 85.8886H184.835C184.072 85.8886 183.34 85.5716 182.801 85.0073C182.261 84.443 181.958 83.6777 181.958 82.8797C181.958 82.0816 182.261 81.3163 182.801 80.752C183.34 80.1877 184.072 79.8707 184.835 79.8707H385.764C386.527 79.8707 387.259 80.1877 387.799 80.752C388.338 81.3163 388.641 82.0816 388.641 82.8797C388.641 83.6777 388.338 84.443 387.799 85.0073C387.259 85.5716 386.527 85.8886 385.764 85.8886Z" fill="white"/>
<path d="M343.058 191.818H11.1545C8.19721 191.814 5.36202 190.584 3.27088 188.396C1.17974 186.209 0.00343636 183.244 0 180.151V76.6594C0.00343636 73.5663 1.17974 70.6009 3.27088 68.4138C5.36202 66.2267 8.19721 64.9964 11.1545 64.9928H343.058C346.015 64.9964 348.85 66.2267 350.941 68.4138C353.033 70.6009 354.209 73.5663 354.212 76.6594V180.151C354.209 183.244 353.033 186.209 350.941 188.396C348.85 190.584 346.015 191.814 343.058 191.818Z" fill="#333333"/>
<path d="M310.811 183.949H18.6809C15.7236 183.945 12.8884 182.715 10.7972 180.528C8.70611 178.341 7.5298 175.375 7.52637 172.282V84.5345C7.5298 81.4414 8.70611 78.4761 10.7972 76.2889C12.8884 74.1018 15.7236 72.8715 18.6809 72.8679H335.534C338.492 72.8715 341.327 74.1018 343.418 76.2889C345.509 78.4761 346.685 81.4414 346.689 84.5345V146.421C346.678 156.37 342.894 165.908 336.168 172.943C329.443 179.979 320.323 183.936 310.811 183.949Z" fill="white"/>
<path d="M210.041 104.076H76.6415C75.8785 104.076 75.1468 103.759 74.6073 103.194C74.0677 102.63 73.7646 101.865 73.7646 101.067C73.7646 100.269 74.0677 99.5032 74.6073 98.9389C75.1468 98.3746 75.8785 98.0576 76.6415 98.0576H210.041C210.419 98.0576 210.793 98.1354 211.142 98.2867C211.491 98.4379 211.808 98.6595 212.075 98.9389C212.342 99.2183 212.554 99.55 212.699 99.9151C212.843 100.28 212.918 100.671 212.918 101.067C212.918 101.462 212.843 101.853 212.699 102.218C212.554 102.583 212.342 102.915 212.075 103.194C211.808 103.474 211.491 103.695 211.142 103.846C210.793 103.998 210.419 104.076 210.041 104.076Z" fill="#CB1C16"/>
<path d="M277.571 116.381H76.6415C75.8785 116.381 75.1468 116.064 74.6073 115.5C74.0677 114.935 73.7646 114.17 73.7646 113.372C73.7646 112.574 74.0677 111.809 74.6073 111.244C75.1468 110.68 75.8785 110.363 76.6415 110.363H277.571C277.949 110.363 278.323 110.441 278.672 110.592C279.021 110.743 279.338 110.965 279.605 111.244C279.872 111.524 280.084 111.855 280.229 112.221C280.373 112.586 280.448 112.977 280.448 113.372C280.448 113.767 280.373 114.158 280.229 114.524C280.084 114.889 279.872 115.22 279.605 115.5C279.338 115.779 279.021 116.001 278.672 116.152C278.323 116.303 277.949 116.381 277.571 116.381Z" fill="#333333"/>
<path d="M277.571 130.508H76.6415C75.8785 130.508 75.1468 130.19 74.6073 129.626C74.0677 129.062 73.7646 128.297 73.7646 127.499C73.7646 126.701 74.0677 125.935 74.6073 125.371C75.1468 124.807 75.8785 124.49 76.6415 124.49H277.571C278.334 124.49 279.066 124.807 279.605 125.371C280.145 125.935 280.448 126.701 280.448 127.499C280.448 128.297 280.145 129.062 279.605 129.626C279.066 130.19 278.334 130.508 277.571 130.508Z" fill="#333333"/>
<path d="M277.571 144.633H76.6415C75.8785 144.633 75.1468 144.316 74.6073 143.751C74.0677 143.187 73.7646 142.422 73.7646 141.624C73.7646 140.826 74.0677 140.06 74.6073 139.496C75.1468 138.932 75.8785 138.615 76.6415 138.615H277.571C277.949 138.615 278.323 138.693 278.672 138.844C279.021 138.995 279.338 139.217 279.605 139.496C279.872 139.775 280.084 140.107 280.229 140.472C280.373 140.837 280.448 141.229 280.448 141.624C280.448 142.019 280.373 142.41 280.229 142.775C280.084 143.14 279.872 143.472 279.605 143.751C279.338 144.031 279.021 144.252 278.672 144.404C278.323 144.555 277.949 144.633 277.571 144.633Z" fill="#333333"/>
<path d="M277.571 158.757H76.6415C75.8785 158.757 75.1468 158.44 74.6073 157.875C74.0677 157.311 73.7646 156.546 73.7646 155.748C73.7646 154.95 74.0677 154.184 74.6073 153.62C75.1468 153.056 75.8785 152.739 76.6415 152.739H277.571C278.334 152.739 279.066 153.056 279.605 153.62C280.145 154.184 280.448 154.95 280.448 155.748C280.448 156.546 280.145 157.311 279.605 157.875C279.066 158.44 278.334 158.757 277.571 158.757Z" fill="#333333"/>
<path d="M336.656 322.283C332.415 322.283 328.269 323.598 324.742 326.063C321.215 328.528 318.467 332.031 316.843 336.129C315.22 340.228 314.796 344.738 315.623 349.088C316.45 353.439 318.493 357.436 321.492 360.573C324.491 363.71 328.313 365.846 332.472 366.711C336.632 367.577 340.944 367.133 344.863 365.435C348.782 363.737 352.131 360.862 354.487 357.174C356.844 353.485 358.102 349.149 358.102 344.713C358.102 338.764 355.842 333.059 351.82 328.852C347.799 324.646 342.344 322.283 336.656 322.283Z" fill="#CB1C16"/>
<path d="M335.38 356.479L326.506 350.121C326.111 349.838 325.841 349.402 325.753 348.911C325.665 348.419 325.768 347.911 326.039 347.498C326.309 347.086 326.726 346.802 327.196 346.711C327.666 346.619 328.152 346.727 328.546 347.01L334.285 351.122V335.011C334.285 334.424 334.508 333.861 334.905 333.446C335.302 333.031 335.84 332.798 336.401 332.798C336.962 332.798 337.5 333.031 337.897 333.446C338.293 333.861 338.516 334.424 338.516 335.011V351.324L344.535 347.01C344.93 346.727 345.415 346.619 345.886 346.711C346.356 346.802 346.772 347.086 347.043 347.498C347.313 347.911 347.416 348.419 347.328 348.911C347.241 349.402 346.97 349.838 346.576 350.121L337.7 356.479C337.345 356.687 336.946 356.795 336.54 356.795C336.134 356.795 335.734 356.687 335.38 356.479Z" fill="white"/>
<path d="M114.364 271.974C110.123 271.974 105.977 270.659 102.45 268.194C98.9232 265.729 96.1744 262.226 94.5513 258.128C92.9282 254.029 92.5035 249.519 93.3311 245.168C94.1586 240.817 96.2011 236.821 99.2004 233.684C102.2 230.547 106.021 228.411 110.181 227.546C114.341 226.68 118.653 227.124 122.571 228.822C126.49 230.52 129.839 233.395 132.196 237.084C134.552 240.772 135.81 245.109 135.81 249.545C135.81 252.491 135.255 255.407 134.177 258.129C133.1 260.85 131.52 263.323 129.529 265.405C127.537 267.488 125.173 269.14 122.571 270.268C119.969 271.395 117.181 271.974 114.364 271.974Z" fill="#333333"/>
<path d="M122.826 247.332H116.48V240.695C116.48 240.108 116.257 239.545 115.861 239.13C115.464 238.715 114.926 238.482 114.365 238.482C113.804 238.482 113.266 238.715 112.869 239.13C112.472 239.545 112.249 240.108 112.249 240.695V247.332H105.903C105.342 247.332 104.804 247.565 104.407 247.98C104.01 248.395 103.788 248.958 103.788 249.545C103.788 250.131 104.01 250.694 104.407 251.109C104.804 251.524 105.342 251.757 105.903 251.757H112.249V258.395C112.249 258.981 112.472 259.544 112.869 259.959C113.266 260.374 113.804 260.607 114.365 260.607C114.926 260.607 115.464 260.374 115.861 259.959C116.257 259.544 116.48 258.981 116.48 258.395V251.757H122.826C123.387 251.757 123.925 251.524 124.322 251.109C124.719 250.694 124.942 250.131 124.942 249.545C124.942 248.958 124.719 248.395 124.322 247.98C123.925 247.565 123.387 247.332 122.826 247.332Z" fill="white"/>
<path d="M177.106 271.974C172.864 271.974 168.718 270.659 165.192 268.194C161.665 265.729 158.916 262.226 157.293 258.128C155.67 254.029 155.245 249.519 156.073 245.169C156.9 240.818 158.943 236.821 161.942 233.684C164.941 230.547 168.762 228.411 172.922 227.546C177.082 226.68 181.394 227.124 185.313 228.822C189.231 230.52 192.581 233.395 194.937 237.083C197.294 240.772 198.551 245.108 198.551 249.544C198.551 255.493 196.292 261.198 192.27 265.405C188.248 269.611 182.794 271.974 177.106 271.974Z" fill="#333333"/>
<path d="M185.567 247.333H168.644C168.083 247.333 167.545 247.566 167.148 247.981C166.752 248.396 166.529 248.959 166.529 249.545C166.529 250.132 166.752 250.695 167.148 251.11C167.545 251.525 168.083 251.758 168.644 251.758H185.567C186.129 251.758 186.667 251.525 187.063 251.11C187.46 250.695 187.683 250.132 187.683 249.545C187.683 248.959 187.46 248.396 187.063 247.981C186.667 247.566 186.129 247.333 185.567 247.333Z" fill="white"/>
<path d="M239.7 272.019C235.459 272.019 231.312 270.703 227.786 268.239C224.259 265.774 221.51 262.271 219.887 258.172C218.264 254.074 217.839 249.564 218.667 245.213C219.494 240.862 221.537 236.866 224.536 233.729C227.535 230.592 231.356 228.456 235.516 227.59C239.676 226.725 243.988 227.169 247.907 228.867C251.826 230.564 255.175 233.439 257.531 237.128C259.888 240.816 261.146 245.153 261.146 249.589C261.146 255.538 258.886 261.243 254.864 265.449C250.843 269.656 245.388 272.019 239.7 272.019Z" fill="#CB1C16"/>
<path d="M238.424 237.822L229.55 244.182C229.355 244.322 229.188 244.501 229.059 244.709C228.93 244.917 228.841 245.149 228.798 245.392C228.754 245.636 228.757 245.886 228.806 246.128C228.855 246.371 228.949 246.6 229.083 246.805C229.217 247.009 229.388 247.184 229.587 247.319C229.785 247.454 230.008 247.547 230.24 247.592C230.473 247.637 230.712 247.634 230.944 247.583C231.176 247.532 231.395 247.433 231.591 247.293L237.33 243.181V259.291C237.33 259.878 237.553 260.44 237.949 260.855C238.346 261.27 238.884 261.503 239.445 261.503C240.006 261.503 240.544 261.27 240.941 260.855C241.338 260.44 241.561 259.878 241.561 259.291V242.978L247.582 247.293C247.977 247.576 248.462 247.683 248.933 247.591C249.403 247.5 249.819 247.217 250.09 246.804C250.36 246.392 250.463 245.883 250.375 245.392C250.288 244.9 250.017 244.464 249.623 244.181L240.749 237.823C240.394 237.615 239.994 237.505 239.587 237.505C239.18 237.505 238.779 237.614 238.424 237.822Z" fill="white"/>
<path d="M498.503 496.121H471.305L471.188 495.899C470.84 495.24 470.504 494.541 470.191 493.822C467.389 487.55 466.204 480.372 465.16 474.043L464.373 469.271C464.277 468.693 464.349 468.098 464.579 467.563C464.808 467.028 465.185 466.577 465.662 466.268C466.138 465.958 466.692 465.804 467.252 465.826C467.812 465.847 468.354 466.043 468.807 466.389C472.941 469.536 477.076 472.679 481.213 475.818C482.78 477.01 484.569 478.39 486.283 479.881C486.448 479.04 486.622 478.199 486.795 477.368C486.914 476.795 487.194 476.272 487.599 475.866C488.004 475.46 488.516 475.19 489.069 475.09C489.622 474.99 490.19 475.064 490.702 475.304C491.214 475.545 491.646 475.939 491.943 476.437L495.125 481.785C497.446 485.69 499.495 489.539 499.078 493.69C499.08 493.74 499.076 493.791 499.067 493.84C498.983 494.522 498.828 495.192 498.605 495.839L498.503 496.121Z" fill="#F0F0F0"/>
<path d="M530.073 496.737L284.588 497C284.338 496.985 284.104 496.871 283.932 496.681C283.761 496.492 283.665 496.24 283.665 495.979C283.665 495.718 283.761 495.467 283.932 495.277C284.104 495.087 284.338 494.973 284.588 494.958L530.073 494.695C530.323 494.71 530.557 494.824 530.729 495.014C530.9 495.203 530.996 495.455 530.996 495.716C530.996 495.977 530.9 496.228 530.729 496.418C530.557 496.608 530.323 496.722 530.073 496.737Z" fill="#333333"/>
<path d="M352.73 308.505C352.73 308.505 341.99 331.908 349.15 332.844C356.311 333.781 358.101 311.782 358.101 311.782L352.73 308.505Z" fill="#FFB9B9"/>
<path d="M379.134 196.639C376.615 197.332 374.348 198.789 372.617 200.825C370.887 202.861 369.77 205.387 369.407 208.085L363.023 255.615L354.073 293.528C354.073 293.528 349.597 297.74 351.39 300.081C353.183 302.423 349.152 312.251 349.152 312.251L360.343 315.995C360.343 315.995 361.686 306.166 363.923 305.698C365.889 305.287 387.903 243.782 393.209 228.882C393.941 226.827 394.355 225.659 394.355 225.659C394.355 225.659 393.455 194.299 379.134 196.639Z" fill="#D6D6E3"/>
<path d="M393.455 458.285L384.725 475.613L399.272 480.049L402.371 464.378L393.455 458.285Z" fill="#FFB9B9"/>
<path d="M385.351 473.618L369.973 481.847C369.973 481.847 345.906 487.848 361.576 492.836C377.245 497.824 384.299 494.278 384.299 494.278C384.299 494.278 404.797 495.393 404.467 489.411C404.137 483.43 400.193 475.019 400.193 475.019C400.193 475.019 386.474 478.767 385.351 473.618Z" fill="#090814"/>
<path d="M425.229 308.272L418.516 393.225C418.516 393.225 418.293 444.009 411.132 453.839C403.972 463.668 403.748 468.583 403.748 468.583L388.979 460.629C388.979 460.629 396.584 447.372 395.021 445.34C394.055 444.053 393.368 442.562 393.007 440.97L397.035 388.547L389.43 297.275L425.229 308.272Z" fill="#090814"/>
<path d="M406.88 458.285L413.145 475.603L431.046 468.582L419.855 456.412L406.88 458.285Z" fill="#FFB9B9"/>
<path d="M368.394 308.505L364.814 386.671C364.814 386.671 382.267 438.626 397.483 447.051C397.483 447.051 397.483 457.349 401.063 459.221C402.13 459.797 403.075 460.591 403.844 461.556C404.613 462.52 405.189 463.636 405.538 464.838L425.229 459.689L416.278 444.711L396.588 394.628C396.588 394.628 393.455 393.224 392.56 388.544C391.666 383.863 389.875 383.863 394.353 382.927C398.832 381.991 398.828 377.31 398.828 377.31L413.597 306.165L368.394 308.505Z" fill="#090814"/>
<path d="M384.505 185.873C394.391 185.873 402.405 177.491 402.405 167.151C402.405 156.811 394.391 148.429 384.505 148.429C374.618 148.429 366.604 156.811 366.604 167.151C366.604 177.491 374.618 185.873 384.505 185.873Z" fill="#FFB9B9"/>
<path d="M400.391 168.321C400.391 168.321 401.734 192.192 403.524 194.532C405.315 196.873 384.728 196.408 384.728 196.408C384.728 196.408 386.071 176.281 384.728 174.409C383.386 172.536 400.391 168.321 400.391 168.321Z" fill="#FFB9B9"/>
<path d="M406.435 187.278C406.435 187.278 389.432 185.403 383.164 191.022C381.163 192.809 379.018 194.414 376.755 195.818C374.865 197.004 373.29 198.667 372.175 200.656C371.061 202.645 370.442 204.895 370.377 207.199L367.05 313.654C367.05 313.654 417.62 308.974 427.018 313.654C427.018 313.654 427.466 302.889 428.36 301.485C429.013 300.461 430.141 259.638 430.704 237.586C431.09 225.133 426.885 213.001 418.957 203.701C416.244 200.56 413.214 197.929 410.014 196.641C410.013 196.639 410.908 187.745 406.435 187.278Z" fill="#D6D6E3"/>
<path opacity="0.1" d="M394.127 225.424L367.052 302.031C367.052 302.031 393.231 250.232 394.127 225.424Z" fill="black"/>
<path d="M394.932 176.694C393.55 176.038 391.987 175.985 390.512 175.614C385.232 174.298 381.404 168.39 382.19 162.774C382.353 162.049 382.402 161.302 382.334 160.561C382.045 158.931 380.376 157.975 378.815 157.695C377.253 157.416 375.613 157.575 374.108 157.064C371.78 156.274 370.127 153.926 369.652 151.415C369.268 148.866 369.664 146.255 370.784 143.956L371.438 145.596C372.243 144.791 372.816 143.765 373.091 142.635C373.73 142.706 374.341 142.948 374.866 143.336C375.39 143.725 375.81 144.248 376.086 144.855C377.011 145.349 377.009 143.077 377.976 142.681C378.406 142.597 378.852 142.682 379.226 142.921C381.271 143.764 383.533 142.788 385.635 142.114C389.275 140.953 393.125 140.703 396.874 141.386C399.365 141.842 401.857 142.754 403.725 144.538C405.194 146.083 406.36 147.913 407.157 149.925C409.33 154.766 410.887 160.054 410.573 165.391C410.307 169.759 408.81 173.947 406.271 177.426C404.947 179.232 400.654 185.509 398.049 184.651C394.773 183.578 398.821 178.54 394.932 176.694Z" fill="#090814"/>
<path d="M414.649 466.552C414.649 466.552 408.732 462.717 407.993 464.251C407.253 465.785 404.295 472.304 404.295 472.304L400.966 481.891C400.966 481.891 380.625 495.313 398.008 496.08C415.391 496.847 419.826 486.493 419.826 486.493C419.826 486.493 439.426 477.674 436.467 472.304C433.509 466.935 423.154 461.367 423.154 461.367C423.154 461.367 417.977 470.77 414.649 466.552Z" fill="#090814"/>
</g>
<defs>
<clipPath id="clip0_379_1312">
<rect width="531" height="497" fill="white"/>
</clipPath>
</defs>
</svg>
