<svg width="696" height="410" viewBox="0 0 696 410" fill="none" xmlns="http://www.w3.org/2000/svg">
<g clip-path="url(#clip0_372_1153)">
<path d="M695.076 409.909H0.923978C0.679327 409.908 0.444943 409.796 0.272198 409.598C0.0994528 409.4 0.00244141 409.132 0.00244141 408.853C0.00244141 408.573 0.0994528 408.305 0.272198 408.107C0.444943 407.909 0.679327 407.797 0.923978 407.797H695.076C695.32 407.797 695.555 407.909 695.727 408.107C695.9 408.305 695.997 408.573 695.997 408.853C695.997 409.132 695.9 409.4 695.727 409.598C695.555 409.796 695.32 409.908 695.076 409.909Z" fill="#333335"/>
<path d="M217.61 50.9513C220.383 50.9513 222.63 48.3833 222.63 45.2156C222.63 42.0479 220.383 39.48 217.61 39.48C214.838 39.48 212.591 42.0479 212.591 45.2156C212.591 48.3833 214.838 50.9513 217.61 50.9513Z" fill="white"/>
<path d="M197.605 50.9513C200.377 50.9513 202.625 48.3833 202.625 45.2156C202.625 42.0479 200.377 39.48 197.605 39.48C194.833 39.48 192.585 42.0479 192.585 45.2156C192.585 48.3833 194.833 50.9513 197.605 50.9513Z" fill="white"/>
<path d="M177.6 50.9513C180.372 50.9513 182.619 48.3833 182.619 45.2156C182.619 42.0479 180.372 39.48 177.6 39.48C174.827 39.48 172.58 42.0479 172.58 45.2156C172.58 48.3833 174.827 50.9513 177.6 50.9513Z" fill="white"/>
<path d="M157.595 50.9513C160.367 50.9513 162.614 48.3833 162.614 45.2156C162.614 42.0479 160.367 39.48 157.595 39.48C154.823 39.48 152.575 42.0479 152.575 45.2156C152.575 48.3833 154.823 50.9513 157.595 50.9513Z" fill="white"/>
<path d="M217.61 74.8982C220.383 74.8982 222.63 72.3302 222.63 69.1625C222.63 65.9948 220.383 63.4269 217.61 63.4269C214.838 63.4269 212.591 65.9948 212.591 69.1625C212.591 72.3302 214.838 74.8982 217.61 74.8982Z" fill="white"/>
<path d="M197.605 74.8982C200.377 74.8982 202.625 72.3302 202.625 69.1625C202.625 65.9948 200.377 63.4269 197.605 63.4269C194.833 63.4269 192.585 65.9948 192.585 69.1625C192.585 72.3302 194.833 74.8982 197.605 74.8982Z" fill="white"/>
<path d="M177.6 74.8982C180.372 74.8982 182.619 72.3302 182.619 69.1625C182.619 65.9948 180.372 63.4269 177.6 63.4269C174.827 63.4269 172.58 65.9948 172.58 69.1625C172.58 72.3302 174.827 74.8982 177.6 74.8982Z" fill="white"/>
<path d="M157.595 74.8982C160.367 74.8982 162.614 72.3302 162.614 69.1625C162.614 65.9948 160.367 63.4269 157.595 63.4269C154.823 63.4269 152.575 65.9948 152.575 69.1625C152.575 72.3302 154.823 74.8982 157.595 74.8982Z" fill="white"/>
<path d="M217.61 98.8452C220.383 98.8452 222.63 96.2772 222.63 93.1095C222.63 89.9418 220.383 87.3739 217.61 87.3739C214.838 87.3739 212.591 89.9418 212.591 93.1095C212.591 96.2772 214.838 98.8452 217.61 98.8452Z" fill="white"/>
<path d="M197.605 98.8452C200.377 98.8452 202.625 96.2772 202.625 93.1095C202.625 89.9418 200.377 87.3739 197.605 87.3739C194.833 87.3739 192.585 89.9418 192.585 93.1095C192.585 96.2772 194.833 98.8452 197.605 98.8452Z" fill="white"/>
<path d="M177.6 98.8452C180.372 98.8452 182.619 96.2772 182.619 93.1095C182.619 89.9418 180.372 87.3739 177.6 87.3739C174.827 87.3739 172.58 89.9418 172.58 93.1095C172.58 96.2772 174.827 98.8452 177.6 98.8452Z" fill="white"/>
<path d="M157.595 98.8452C160.367 98.8452 162.614 96.2772 162.614 93.1095C162.614 89.9418 160.367 87.3739 157.595 87.3739C154.823 87.3739 152.575 89.9418 152.575 93.1095C152.575 96.2772 154.823 98.8452 157.595 98.8452Z" fill="white"/>
<path d="M217.61 122.792C220.383 122.792 222.63 120.224 222.63 117.056C222.63 113.889 220.383 111.321 217.61 111.321C214.838 111.321 212.591 113.889 212.591 117.056C212.591 120.224 214.838 122.792 217.61 122.792Z" fill="white"/>
<path d="M197.605 122.792C200.377 122.792 202.625 120.224 202.625 117.056C202.625 113.889 200.377 111.321 197.605 111.321C194.833 111.321 192.585 113.889 192.585 117.056C192.585 120.224 194.833 122.792 197.605 122.792Z" fill="white"/>
<path d="M177.6 122.792C180.372 122.792 182.619 120.224 182.619 117.056C182.619 113.889 180.372 111.321 177.6 111.321C174.827 111.321 172.58 113.889 172.58 117.056C172.58 120.224 174.827 122.792 177.6 122.792Z" fill="white"/>
<path d="M157.595 122.792C160.367 122.792 162.614 120.224 162.614 117.056C162.614 113.889 160.367 111.321 157.595 111.321C154.823 111.321 152.575 113.889 152.575 117.056C152.575 120.224 154.823 122.792 157.595 122.792Z" fill="white"/>
<path d="M217.61 146.739C220.383 146.739 222.63 144.171 222.63 141.003C222.63 137.836 220.383 135.268 217.61 135.268C214.838 135.268 212.591 137.836 212.591 141.003C212.591 144.171 214.838 146.739 217.61 146.739Z" fill="white"/>
<path d="M197.605 146.739C200.377 146.739 202.625 144.171 202.625 141.003C202.625 137.836 200.377 135.268 197.605 135.268C194.833 135.268 192.585 137.836 192.585 141.003C192.585 144.171 194.833 146.739 197.605 146.739Z" fill="white"/>
<path d="M177.6 146.739C180.372 146.739 182.619 144.171 182.619 141.003C182.619 137.836 180.372 135.268 177.6 135.268C174.827 135.268 172.58 137.836 172.58 141.003C172.58 144.171 174.827 146.739 177.6 146.739Z" fill="white"/>
<path d="M157.595 146.739C160.367 146.739 162.614 144.171 162.614 141.003C162.614 137.836 160.367 135.268 157.595 135.268C154.823 135.268 152.575 137.836 152.575 141.003C152.575 144.171 154.823 146.739 157.595 146.739Z" fill="white"/>
<path d="M217.61 170.686C220.383 170.686 222.63 168.118 222.63 164.95C222.63 161.783 220.383 159.215 217.61 159.215C214.838 159.215 212.591 161.783 212.591 164.95C212.591 168.118 214.838 170.686 217.61 170.686Z" fill="white"/>
<path d="M197.605 170.686C200.377 170.686 202.625 168.118 202.625 164.95C202.625 161.783 200.377 159.215 197.605 159.215C194.833 159.215 192.585 161.783 192.585 164.95C192.585 168.118 194.833 170.686 197.605 170.686Z" fill="white"/>
<path d="M177.6 170.686C180.372 170.686 182.619 168.118 182.619 164.95C182.619 161.783 180.372 159.215 177.6 159.215C174.827 159.215 172.58 161.783 172.58 164.95C172.58 168.118 174.827 170.686 177.6 170.686Z" fill="white"/>
<path d="M157.595 170.686C160.367 170.686 162.614 168.118 162.614 164.95C162.614 161.783 160.367 159.215 157.595 159.215C154.823 159.215 152.575 161.783 152.575 164.95C152.575 168.118 154.823 170.686 157.595 170.686Z" fill="white"/>
<path d="M173.503 321.421V323.195C173.505 326.135 174.528 328.953 176.347 331.032C178.166 333.11 180.633 334.279 183.205 334.282H253.063C255.636 334.281 258.104 333.112 259.923 331.033C261.743 328.954 262.765 326.135 262.766 323.195V321.421C262.771 318.827 261.974 316.314 260.515 314.326C260.029 313.666 259.48 313.071 258.877 312.552C258.877 312.552 220.471 311.559 220.471 310.335H183.205C180.633 310.339 178.167 311.508 176.349 313.586C174.53 315.665 173.506 318.482 173.503 321.421Z" fill="#CCCCCC"/>
<path d="M223.741 333.841H213.65V408.343H223.741V333.841Z" fill="#CCCCCC"/>
<path d="M252.46 407.938C252.46 409.184 237.17 408.42 218.308 408.42C199.446 408.42 184.155 409.184 184.155 407.938C184.155 406.692 199.446 396.813 218.308 396.813C237.17 396.813 252.46 406.692 252.46 407.938Z" fill="#CCCCCC"/>
<path d="M238.587 319.917C239.316 318.8 239.821 317.514 240.068 316.15C240.314 314.786 240.296 313.376 240.014 312.021C239.732 310.666 239.194 309.398 238.437 308.306C237.68 307.214 236.723 306.325 235.632 305.702L214.246 222.433L197.96 231.547L224.104 310.532C223.309 312.694 223.235 315.114 223.898 317.334C224.56 319.554 225.912 321.419 227.698 322.575C229.483 323.732 231.577 324.1 233.585 323.61C235.592 323.12 237.372 321.806 238.587 319.917Z" fill="#A0616A"/>
<path d="M219.091 236.339L200.864 241.977C200.345 242.138 199.802 242.168 199.272 242.067C198.742 241.967 198.237 241.736 197.792 241.392C197.347 241.049 196.972 240.599 196.693 240.075C196.414 239.55 196.236 238.963 196.173 238.354L193.97 216.99C193.267 213.953 193.647 210.722 195.025 208.005C196.404 205.287 198.669 203.305 201.325 202.494C203.98 201.682 206.809 202.106 209.191 203.674C211.573 205.241 213.314 207.825 214.032 210.856L221.541 230.507C221.756 231.07 221.862 231.679 221.852 232.293C221.842 232.906 221.717 233.511 221.484 234.064C221.252 234.618 220.918 235.107 220.505 235.5C220.092 235.892 219.609 236.179 219.091 236.339Z" fill="#121115"/>
<path d="M243.351 399.205L252.867 399.205L257.395 371.004H243.35L243.351 399.205Z" fill="#A0616A"/>
<path d="M240.924 395.655L259.664 395.655H259.665C261.233 395.654 262.786 396.007 264.235 396.693C265.684 397.379 267.001 398.384 268.11 399.651C269.219 400.919 270.099 402.423 270.699 404.079C271.299 405.734 271.608 407.509 271.608 409.301V409.744L240.924 409.746L240.924 395.655Z" fill="#434350"/>
<path d="M254.397 384.083C254.286 384.083 254.175 384.077 254.063 384.065L240.894 382.969C240.361 382.913 239.847 382.717 239.391 382.398C238.935 382.078 238.549 381.643 238.264 381.127C237.978 380.61 237.8 380.025 237.743 379.417C237.687 378.81 237.753 378.195 237.937 377.621L255.562 332.375C255.688 331.972 255.739 331.543 255.713 331.116C255.687 330.689 255.583 330.272 255.409 329.893C255.236 329.509 254.993 329.172 254.697 328.903C254.402 328.634 254.059 328.439 253.693 328.332C245.405 325.857 224.142 319.265 205.734 311.553C197.848 308.249 192.881 303.474 190.972 297.361C188.455 289.301 192.179 281.951 192.339 281.643L192.463 281.401L209.784 283.2L228.561 285.025L269.71 310.239C273.158 312.369 275.777 315.906 277.046 320.144C278.314 324.382 278.139 329.01 276.555 333.107L257.584 381.717C257.31 382.421 256.863 383.019 256.297 383.439C255.732 383.859 255.072 384.083 254.397 384.083Z" fill="#434350"/>
<path d="M212.796 193.684C223.325 193.684 231.86 183.931 231.86 171.9C231.86 159.869 223.325 150.116 212.796 150.116C202.267 150.116 193.731 159.869 193.731 171.9C193.731 183.931 202.267 193.684 212.796 193.684Z" fill="#A0616A"/>
<path d="M237.918 398.319L247.434 398.318L251.962 370.117H237.917L237.918 398.319Z" fill="#A0616A"/>
<path d="M235.49 394.768L254.231 394.768H254.231C255.8 394.768 257.353 395.12 258.802 395.806C260.251 396.492 261.567 397.497 262.676 398.764C263.785 400.032 264.665 401.536 265.265 403.192C265.866 404.847 266.174 406.622 266.174 408.414V408.857L235.491 408.859L235.49 394.768Z" fill="#434350"/>
<path d="M248.963 386.744C248.853 386.744 248.741 386.738 248.63 386.725L235.46 385.63C234.928 385.573 234.413 385.378 233.957 385.058C233.501 384.739 233.116 384.304 232.83 383.787C232.544 383.271 232.366 382.686 232.31 382.078C232.253 381.471 232.319 380.856 232.503 380.282L250.128 335.036C250.254 334.633 250.306 334.204 250.279 333.777C250.253 333.349 250.15 332.933 249.976 332.554C249.802 332.17 249.56 331.832 249.264 331.563C248.968 331.294 248.626 331.1 248.259 330.993C239.972 328.518 218.708 321.926 200.301 314.214C192.415 310.91 187.448 306.135 185.538 300.022C183.021 291.962 186.745 284.612 186.905 284.304L187.03 284.062L204.351 285.861L223.128 287.686L264.277 312.899C267.725 315.03 270.344 318.566 271.612 322.804C272.881 327.042 272.706 331.671 271.122 335.768L252.151 384.378C251.876 385.082 251.429 385.68 250.864 386.1C250.298 386.52 249.638 386.743 248.963 386.744Z" fill="#434350"/>
<path d="M218.675 206.036L198.494 198.054C198.494 198.054 185.825 209.176 191.911 236.767C195.089 251.005 194.163 266.034 189.272 279.623C188.683 281.305 188.004 282.943 187.239 284.529C187.239 284.529 209.749 315.571 230.706 292.511L222.556 247.722C222.556 247.722 235.364 218.01 218.675 206.036Z" fill="#434350"/>
<path d="M215.163 194.425C212.449 189.784 210.308 183.349 213.295 178.934C216.244 174.575 222.06 175.217 226.577 173.289C232.867 170.603 236.515 162.158 235.377 154.596C234.239 147.034 228.927 140.765 222.598 138.2C216.269 135.635 209.132 136.469 202.934 139.423C195.305 143.059 188.76 150.093 186.016 159.003C183.271 167.913 184.738 178.611 190.432 185.46C196.536 192.802 206.115 194.759 214.977 194.64" fill="#434350"/>
<path d="M197.429 154.839C194.01 158.019 188.793 156.607 185.123 153.816C181.453 151.024 178.475 147.05 174.504 144.861C167.503 141.003 159.039 143.568 152.226 147.842C145.412 152.115 139.372 158.019 132.175 161.373C124.978 164.726 115.795 164.892 110.345 158.56C109.004 162.999 108.894 167.804 110.031 172.318C111.168 176.831 113.496 180.834 116.697 183.78C119.898 186.726 123.817 188.472 127.919 188.779C132.02 189.086 136.105 187.94 139.616 185.497C147.501 180.008 151.857 168.5 160.702 165.471C165.596 163.794 170.852 165.145 175.798 166.607C180.745 168.069 185.903 169.649 190.895 168.404C195.887 167.16 200.556 162.034 199.921 156.241L197.429 154.839Z" fill="#434350"/>
<path d="M259.489 360.097C257.47 345.115 257.47 329.868 259.489 314.886C259.617 313.994 260.018 313.183 260.62 312.598C261.222 312.012 261.987 311.69 262.778 311.688H293.727C294.228 311.686 294.724 311.815 295.175 312.065C295.626 312.315 296.022 312.679 296.331 313.13C296.648 313.587 296.868 314.121 296.977 314.69C297.086 315.26 297.079 315.85 296.958 316.416C294.063 330.272 294.063 344.711 296.958 358.567C297.079 359.133 297.086 359.723 296.977 360.293C296.868 360.862 296.648 361.396 296.331 361.853C296.022 362.304 295.626 362.668 295.175 362.918C294.724 363.168 294.228 363.297 293.727 363.295H262.778C261.987 363.293 261.222 362.971 260.62 362.385C260.018 361.8 259.617 360.989 259.489 360.097Z" fill="#121115"/>
<path d="M284.203 333.574H267.962C267.345 333.573 266.753 333.293 266.316 332.794C265.88 332.295 265.634 331.619 265.633 330.913V329.874C265.634 329.168 265.88 328.492 266.316 327.993C266.753 327.494 267.345 327.214 267.962 327.213H284.203C284.82 327.214 285.412 327.494 285.849 327.993C286.285 328.492 286.531 329.168 286.531 329.874V330.913C286.531 331.619 286.285 332.295 285.849 332.794C285.412 333.293 284.82 333.573 284.203 333.574Z" fill="white"/>
<path d="M284.203 344.523H267.962C267.345 344.522 266.753 344.242 266.316 343.743C265.88 343.244 265.634 342.568 265.633 341.862V340.822C265.634 340.117 265.88 339.441 266.316 338.942C266.753 338.443 267.345 338.162 267.962 338.162H284.203C284.82 338.162 285.412 338.443 285.849 338.942C286.285 339.441 286.531 340.117 286.531 340.822V341.862C286.531 342.568 286.285 343.244 285.849 343.743C285.412 344.242 284.82 344.522 284.203 344.523Z" fill="white"/>
<path d="M267.627 315.926C268.089 314.637 268.297 313.248 268.237 311.856C268.177 310.465 267.852 309.106 267.283 307.874C266.713 306.642 265.915 305.568 264.943 304.727C263.971 303.886 262.85 303.298 261.658 303.006L222.743 228.483L208.967 241.957L251.551 310.974C251.254 313.294 251.712 315.659 252.839 317.619C253.966 319.579 255.683 320.999 257.664 321.609C259.646 322.22 261.755 321.978 263.591 320.931C265.427 319.884 266.863 318.103 267.627 315.926Z" fill="#A0616A"/>
<path d="M230.475 240.565L214.059 251.228C213.592 251.531 213.073 251.716 212.538 251.769C212.002 251.823 211.463 251.744 210.957 251.538C210.451 251.332 209.99 251.004 209.605 250.576C209.219 250.148 208.919 249.63 208.725 249.058L201.921 229.001C200.576 226.261 200.237 223.024 200.978 219.999C201.719 216.975 203.479 214.409 205.873 212.865C208.266 211.321 211.098 210.924 213.747 211.762C216.396 212.6 218.647 214.604 220.005 217.335L231.572 234.218C231.903 234.702 232.139 235.261 232.264 235.858C232.389 236.456 232.4 237.076 232.296 237.679C232.191 238.281 231.975 238.851 231.661 239.349C231.347 239.847 230.942 240.261 230.475 240.565Z" fill="#434350"/>
<path d="M405.152 266.742H90.0141C88.676 266.742 87.3927 267.35 86.4465 268.431C85.5003 269.512 84.9688 270.978 84.9688 272.507C84.9688 274.036 85.5003 275.503 86.4465 276.584C87.3927 277.665 88.676 278.272 90.0141 278.272H98.9404V403.772C98.9404 405.301 99.4719 406.767 100.418 407.848C101.364 408.93 102.648 409.537 103.986 409.537C105.324 409.537 106.607 408.93 107.553 407.848C108.499 406.767 109.031 405.301 109.031 403.772V289.35L165.594 406.493C166.264 407.814 167.366 408.777 168.657 409.171C169.948 409.564 171.323 409.357 172.481 408.593C173.638 407.83 174.483 406.573 174.83 405.098C175.177 403.624 174.998 402.052 174.332 400.728L115.205 278.272H385.358V278.347L326.267 400.728C325.598 402.052 325.417 403.626 325.763 405.102C326.109 406.579 326.955 407.838 328.114 408.603C329.272 409.367 330.649 409.575 331.942 409.179C333.234 408.783 334.336 407.817 335.005 406.493L385.358 302.21V403.772C385.358 405.301 385.89 406.767 386.836 407.848C387.782 408.93 389.066 409.537 390.404 409.537C391.742 409.537 393.025 408.93 393.971 407.848C394.917 406.767 395.449 405.301 395.449 403.772V281.312L396.917 278.272H405.152C406.49 278.272 407.773 277.665 408.719 276.584C409.665 275.503 410.197 274.036 410.197 272.507C410.197 270.978 409.665 269.512 408.719 268.431C407.773 267.35 406.49 266.742 405.152 266.742Z" fill="#333335"/>
<path d="M274.749 263.194H213.43C211.929 263.194 210.713 264.584 210.713 266.299C210.713 268.013 211.929 269.403 213.43 269.403H274.749C276.25 269.403 277.466 268.013 277.466 266.299C277.466 264.584 276.25 263.194 274.749 263.194Z" fill="#CCCCCC"/>
<path d="M315.888 269.403H246.807C245.469 269.401 244.186 268.793 243.241 267.712C242.295 266.632 241.763 265.166 241.761 263.638V220.179C241.763 218.65 242.295 217.185 243.241 216.104C244.187 215.023 245.469 214.415 246.807 214.414H315.888C317.226 214.415 318.508 215.023 319.454 216.104C320.4 217.185 320.932 218.65 320.934 220.179V263.638C320.932 265.166 320.4 266.632 319.454 267.712C318.508 268.793 317.226 269.401 315.888 269.403Z" fill="#CCCCCC"/>
<path d="M281.347 247.23C283.919 247.23 286.004 244.847 286.004 241.908C286.004 238.969 283.919 236.587 281.347 236.587C278.775 236.587 276.69 238.969 276.69 241.908C276.69 244.847 278.775 247.23 281.347 247.23Z" fill="white"/>
<path d="M368.608 162.326V6.67093C368.61 4.90231 369.226 3.2067 370.32 1.95609C371.415 0.705481 372.899 0.00201176 374.447 0H482.128C483.676 0.00201176 485.159 0.705481 486.254 1.95609C487.348 3.2067 487.964 4.90231 487.966 6.67093V162.326C487.964 164.095 487.348 165.79 486.254 167.041C485.159 168.292 483.676 168.995 482.128 168.997H374.447C372.899 168.995 371.415 168.292 370.32 167.041C369.226 165.79 368.61 164.095 368.608 162.326ZM374.447 1.48243C373.243 1.48398 372.088 2.03112 371.237 3.00382C370.386 3.97652 369.907 5.29533 369.906 6.67093V162.326C369.907 163.702 370.386 165.021 371.237 165.993C372.088 166.966 373.243 167.513 374.447 167.515H482.128C483.332 167.513 484.486 166.966 485.337 165.993C486.188 165.021 486.667 163.702 486.668 162.326V6.67093C486.667 5.29533 486.188 3.97652 485.337 3.00382C484.486 2.03112 483.332 1.48398 482.128 1.48243H374.447Z" fill="#E6E6E6"/>
<path d="M434.326 71.484V39.5231C434.327 38.6388 434.634 37.7909 435.182 37.1656C435.729 36.5403 436.471 36.1886 437.245 36.1876H460.948C461.721 36.1886 462.463 36.5403 463.011 37.1656C463.558 37.7909 463.866 38.6388 463.867 39.5231V71.484C463.866 72.3683 463.558 73.2162 463.011 73.8415C462.463 74.4668 461.721 74.8185 460.948 74.8195H437.245C436.471 74.8185 435.729 74.4668 435.182 73.8415C434.634 73.2162 434.327 72.3683 434.326 71.484Z" fill="#121115"/>
<path d="M388.269 86.3084V54.3475C388.27 53.4631 388.578 52.6153 389.125 51.99C389.672 51.3647 390.414 51.0129 391.188 51.012H414.891C415.665 51.0129 416.407 51.3647 416.954 51.99C417.501 52.6153 417.809 53.4631 417.81 54.3475V86.3084C417.809 87.1927 417.501 88.0405 416.954 88.6658C416.407 89.2911 415.665 89.6429 414.891 89.6438H391.188C390.414 89.6429 389.672 89.2911 389.125 88.6658C388.578 88.0405 388.27 87.1927 388.269 86.3084Z" fill="#CCCCCC"/>
<path d="M425.244 131.523V99.5615C425.245 98.6772 425.553 97.8294 426.1 97.2041C426.647 96.5788 427.389 96.2271 428.163 96.2261H451.866C452.64 96.2271 453.382 96.5788 453.929 97.2041C454.476 97.8294 454.784 98.6772 454.785 99.5615V131.522C454.784 132.407 454.476 133.255 453.929 133.88C453.382 134.505 452.64 134.857 451.866 134.858H428.163C427.389 134.857 426.647 134.505 426.1 133.88C425.553 133.255 425.245 132.407 425.244 131.523Z" fill="#930B26"/>
<path d="M606.012 16.2193C608.784 16.2193 611.031 13.6514 611.031 10.4837C611.031 7.31598 608.784 4.74805 606.012 4.74805C603.24 4.74805 600.992 7.31598 600.992 10.4837C600.992 13.6514 603.24 16.2193 606.012 16.2193Z" fill="white"/>
<path d="M606.012 39.0783C608.784 39.0783 611.031 36.5104 611.031 33.3427C611.031 30.175 608.784 27.6071 606.012 27.6071C603.24 27.6071 600.992 30.175 600.992 33.3427C600.992 36.5104 603.24 39.0783 606.012 39.0783Z" fill="white"/>
<path d="M606.012 61.9372C608.784 61.9372 611.031 59.3693 611.031 56.2016C611.031 53.0339 608.784 50.4659 606.012 50.4659C603.24 50.4659 600.992 53.0339 600.992 56.2016C600.992 59.3693 603.24 61.9372 606.012 61.9372Z" fill="white"/>
<path d="M606.012 84.7962C608.784 84.7962 611.031 82.2283 611.031 79.0606C611.031 75.8929 608.784 73.325 606.012 73.325C603.24 73.325 600.992 75.8929 600.992 79.0606C600.992 82.2283 603.24 84.7962 606.012 84.7962Z" fill="white"/>
<path d="M585.054 16.2193C587.826 16.2193 590.074 13.6514 590.074 10.4837C590.074 7.31598 587.826 4.74805 585.054 4.74805C582.282 4.74805 580.035 7.31598 580.035 10.4837C580.035 13.6514 582.282 16.2193 585.054 16.2193Z" fill="white"/>
<path d="M585.054 39.0783C587.826 39.0783 590.074 36.5104 590.074 33.3427C590.074 30.175 587.826 27.6071 585.054 27.6071C582.282 27.6071 580.035 30.175 580.035 33.3427C580.035 36.5104 582.282 39.0783 585.054 39.0783Z" fill="white"/>
<path d="M585.054 61.9372C587.826 61.9372 590.074 59.3693 590.074 56.2016C590.074 53.0339 587.826 50.4659 585.054 50.4659C582.282 50.4659 580.035 53.0339 580.035 56.2016C580.035 59.3693 582.282 61.9372 585.054 61.9372Z" fill="white"/>
<path d="M585.054 84.7962C587.826 84.7962 590.074 82.2283 590.074 79.0606C590.074 75.8929 587.826 73.325 585.054 73.325C582.282 73.325 580.035 75.8929 580.035 79.0606C580.035 82.2283 582.282 84.7962 585.054 84.7962Z" fill="white"/>
<path d="M564.097 16.2193C566.869 16.2193 569.117 13.6514 569.117 10.4837C569.117 7.31598 566.869 4.74805 564.097 4.74805C561.325 4.74805 559.078 7.31598 559.078 10.4837C559.078 13.6514 561.325 16.2193 564.097 16.2193Z" fill="white"/>
<path d="M564.097 39.0783C566.869 39.0783 569.117 36.5104 569.117 33.3427C569.117 30.175 566.869 27.6071 564.097 27.6071C561.325 27.6071 559.078 30.175 559.078 33.3427C559.078 36.5104 561.325 39.0783 564.097 39.0783Z" fill="white"/>
<path d="M564.097 61.9372C566.869 61.9372 569.117 59.3693 569.117 56.2016C569.117 53.0339 566.869 50.4659 564.097 50.4659C561.325 50.4659 559.078 53.0339 559.078 56.2016C559.078 59.3693 561.325 61.9372 564.097 61.9372Z" fill="white"/>
<path d="M564.097 84.7962C566.869 84.7962 569.117 82.2283 569.117 79.0606C569.117 75.8929 566.869 73.325 564.097 73.325C561.325 73.325 559.078 75.8929 559.078 79.0606C559.078 82.2283 561.325 84.7962 564.097 84.7962Z" fill="white"/>
<path d="M543.14 16.2193C545.912 16.2193 548.159 13.6514 548.159 10.4837C548.159 7.31598 545.912 4.74805 543.14 4.74805C540.367 4.74805 538.12 7.31598 538.12 10.4837C538.12 13.6514 540.367 16.2193 543.14 16.2193Z" fill="white"/>
<path d="M543.14 39.0783C545.912 39.0783 548.159 36.5104 548.159 33.3427C548.159 30.175 545.912 27.6071 543.14 27.6071C540.367 27.6071 538.12 30.175 538.12 33.3427C538.12 36.5104 540.367 39.0783 543.14 39.0783Z" fill="white"/>
<path d="M543.14 61.9372C545.912 61.9372 548.159 59.3693 548.159 56.2016C548.159 53.0339 545.912 50.4659 543.14 50.4659C540.367 50.4659 538.12 53.0339 538.12 56.2016C538.12 59.3693 540.367 61.9372 543.14 61.9372Z" fill="white"/>
<path d="M543.14 84.7962C545.912 84.7962 548.159 82.2283 548.159 79.0606C548.159 75.8929 545.912 73.325 543.14 73.325C540.367 73.325 538.12 75.8929 538.12 79.0606C538.12 82.2283 540.367 84.7962 543.14 84.7962Z" fill="white"/>
<path d="M522.182 16.2193C524.954 16.2193 527.202 13.6514 527.202 10.4837C527.202 7.31598 524.954 4.74805 522.182 4.74805C519.41 4.74805 517.163 7.31598 517.163 10.4837C517.163 13.6514 519.41 16.2193 522.182 16.2193Z" fill="white"/>
<path d="M522.182 39.0783C524.954 39.0783 527.202 36.5104 527.202 33.3427C527.202 30.175 524.954 27.6071 522.182 27.6071C519.41 27.6071 517.163 30.175 517.163 33.3427C517.163 36.5104 519.41 39.0783 522.182 39.0783Z" fill="white"/>
<path d="M522.182 61.9372C524.954 61.9372 527.202 59.3693 527.202 56.2016C527.202 53.0339 524.954 50.4659 522.182 50.4659C519.41 50.4659 517.163 53.0339 517.163 56.2016C517.163 59.3693 519.41 61.9372 522.182 61.9372Z" fill="white"/>
<path d="M522.182 84.7962C524.954 84.7962 527.202 82.2283 527.202 79.0606C527.202 75.8929 524.954 73.325 522.182 73.325C519.41 73.325 517.163 75.8929 517.163 79.0606C517.163 82.2283 519.41 84.7962 522.182 84.7962Z" fill="white"/>
<path d="M501.225 16.2193C503.997 16.2193 506.244 13.6514 506.244 10.4837C506.244 7.31598 503.997 4.74805 501.225 4.74805C498.452 4.74805 496.205 7.31598 496.205 10.4837C496.205 13.6514 498.452 16.2193 501.225 16.2193Z" fill="white"/>
<path d="M501.225 39.0783C503.997 39.0783 506.244 36.5104 506.244 33.3427C506.244 30.175 503.997 27.6071 501.225 27.6071C498.452 27.6071 496.205 30.175 496.205 33.3427C496.205 36.5104 498.452 39.0783 501.225 39.0783Z" fill="white"/>
<path d="M501.225 61.9372C503.997 61.9372 506.244 59.3693 506.244 56.2016C506.244 53.0339 503.997 50.4659 501.225 50.4659C498.452 50.4659 496.205 53.0339 496.205 56.2016C496.205 59.3693 498.452 61.9372 501.225 61.9372Z" fill="white"/>
<path d="M501.225 84.7962C503.997 84.7962 506.244 82.2283 506.244 79.0606C506.244 75.8929 503.997 73.325 501.225 73.325C498.452 73.325 496.205 75.8929 496.205 79.0606C496.205 82.2283 498.452 84.7962 501.225 84.7962Z" fill="white"/>
<path d="M521.447 213.973C521.036 212.681 520.867 211.304 520.954 209.933C521.04 208.562 521.379 207.227 521.948 206.016C522.517 204.805 523.304 203.744 524.257 202.905C525.209 202.065 526.307 201.465 527.477 201.144C527.847 201.045 528.224 200.975 528.603 200.935L547.467 163.153L542.703 153.802L554.56 143.35L563.632 157.747C564.713 159.478 565.278 161.561 565.242 163.687C565.205 165.813 564.57 167.87 563.43 169.551L537.532 207.435C537.626 207.736 537.706 208.042 537.773 208.352C538.054 209.689 538.084 211.079 537.862 212.43C537.64 213.781 537.171 215.064 536.485 216.193C535.799 217.323 534.912 218.274 533.882 218.985C532.852 219.695 531.702 220.149 530.508 220.317C530.161 220.367 529.812 220.392 529.463 220.391C527.713 220.385 526.007 219.766 524.574 218.619C523.141 217.471 522.05 215.85 521.447 213.973Z" fill="#FFB8B8"/>
<path d="M484.644 399.904L475.128 399.903L470.601 357.962L484.646 357.963L484.644 399.904Z" fill="#FFB8B8"/>
<path d="M468.331 396.796H486.683V409.999H456.776C456.776 408.265 457.075 406.548 457.655 404.946C458.236 403.344 459.087 401.889 460.16 400.663C461.233 399.437 462.507 398.464 463.909 397.801C465.311 397.137 466.814 396.796 468.331 396.796Z" fill="#434350"/>
<path d="M563.041 399.904L553.524 399.903L548.998 357.962L563.042 357.963L563.041 399.904Z" fill="#FFB8B8"/>
<path d="M546.727 396.796H565.079V409.999H535.172C535.172 408.265 535.471 406.548 536.051 404.946C536.632 403.344 537.483 401.889 538.556 400.663C539.629 399.437 540.903 398.464 542.305 397.801C543.707 397.137 545.21 396.796 546.727 396.796Z" fill="#434350"/>
<path d="M557.2 145.393L535.835 154.669L530.619 138.113C529.926 135.915 529.936 133.508 530.647 131.317C531.357 129.126 532.722 127.292 534.501 126.14C536.301 124.975 538.406 124.584 540.436 125.036C542.466 125.489 544.288 126.757 545.572 128.61L557.2 145.393Z" fill="#121115"/>
<path d="M485.466 365.935L467.547 361.265C466.595 361.015 465.76 360.362 465.211 359.437C464.662 358.513 464.44 357.385 464.589 356.281C471.778 304.21 478.696 273.717 496.522 234.992C496.771 234.27 499.554 219.615 501.371 209.905C501.35 208.835 501.67 207.794 502.272 206.974C502.874 206.154 503.716 205.612 504.641 205.449L538.053 199.574C538.556 199.374 539.088 199.283 539.622 199.304L539.955 199.376L539.951 199.752C539.947 200.14 539.609 200.199 539.482 200.222L539.038 200.3C539.545 200.569 540.01 200.931 540.416 201.37C555.055 221.488 562.667 287.437 572.335 360.293C572.389 360.884 572.326 361.482 572.151 362.042C571.976 362.602 571.693 363.109 571.323 363.528C570.973 363.965 570.55 364.315 570.078 364.559C569.606 364.803 569.095 364.935 568.577 364.948L547.231 365.542C546.293 365.566 545.38 365.2 544.661 364.512C543.942 363.823 543.466 362.86 543.323 361.801L528.944 266.857C528.845 266.115 528.542 265.429 528.078 264.898C527.614 264.367 527.014 264.019 526.365 263.905C525.716 263.79 525.052 263.916 524.47 264.262C523.887 264.609 523.417 265.159 523.127 265.832C511.527 292.825 500.71 316.169 490.056 362.742C489.845 363.687 489.364 364.524 488.691 365.122C488.017 365.721 487.189 366.046 486.336 366.047C486.043 366.047 485.751 366.009 485.466 365.935Z" fill="#434350"/>
<path d="M502.858 210.99C502.409 210.626 502.032 210.158 501.753 209.615C501.474 209.072 501.3 208.468 501.241 207.842C498.505 178.654 500.411 155.812 507.067 138.01C508.24 134.94 510.006 132.213 512.233 130.035C514.46 127.857 517.091 126.284 519.926 125.434L537.197 124.438L537.286 124.487C541.183 126.668 544.361 130.226 546.349 134.634C548.337 139.041 549.029 144.064 548.323 148.956C542.768 165.686 538.117 183.105 541.664 197.157C541.813 197.744 541.856 198.36 541.792 198.967C541.727 199.574 541.556 200.16 541.289 200.69C541.029 201.202 540.681 201.648 540.265 202C539.849 202.352 539.374 202.603 538.87 202.738L505.976 211.679C505.443 211.824 504.89 211.837 504.352 211.718C503.815 211.6 503.305 211.351 502.858 210.99Z" fill="#121115"/>
<path d="M495.424 169.102L462.3 139.243C462.036 139.349 461.768 139.44 461.496 139.514C460.327 139.827 459.113 139.855 457.934 139.596C456.755 139.338 455.636 138.799 454.651 138.014C453.66 137.229 452.827 136.211 452.207 135.028C451.588 133.845 451.197 132.525 451.06 131.155C450.838 128.966 451.27 126.755 452.286 124.881C453.302 123.008 454.842 121.581 456.656 120.833C457.788 120.369 458.994 120.183 460.194 120.289C461.393 120.394 462.56 120.788 463.617 121.444C464.674 122.1 465.598 123.004 466.328 124.097C467.058 125.189 467.578 126.446 467.854 127.784C467.939 128.208 467.998 128.639 468.031 129.072L501.006 150.808L509.211 145.41L518.301 159.008L505.561 169.385C504.069 170.59 502.278 171.213 500.451 171.162C498.625 171.111 496.862 170.389 495.424 169.102Z" fill="#FFB8B8"/>
<path d="M522.343 163.243L503.444 148.558L512.326 134.184C513.505 132.275 515.237 130.904 517.216 130.314C519.194 129.723 521.291 129.95 523.137 130.955C525.005 131.972 526.492 133.719 527.331 135.879C528.17 138.04 528.305 140.472 527.712 142.736L522.343 163.243Z" fill="#121115"/>
<path d="M531.433 117.067C541.962 117.067 550.497 107.314 550.497 95.2835C550.497 83.2527 541.962 73.4998 531.433 73.4998C520.904 73.4998 512.369 83.2527 512.369 95.2835C512.369 107.314 520.904 117.067 531.433 117.067Z" fill="#FFB8B8"/>
<path d="M524.443 92.0391C519.543 95.871 513.11 99.8101 508.105 95.7293C504.819 93.0498 503.784 88.0881 505.116 83.7338C507.513 75.9035 514.097 72.4563 520.392 69.8139C528.577 66.3788 537.489 63.646 545.938 66.1061C554.387 68.5661 561.854 77.9136 560.329 87.723C559.103 95.6115 552.591 102.175 553.515 110.117C554.445 118.111 562.312 122.318 569.257 123.746C576.203 125.175 583.975 125.634 588.966 131.334C595.333 138.606 593.743 151.603 587.752 159.281C581.76 166.958 572.719 170.438 563.958 172.804C552.35 175.939 539.796 177.586 528.771 172.384C517.747 167.182 509.168 153.178 512.362 140.047C513.71 134.5 516.888 129.813 519.959 125.249C523.031 120.686 526.14 115.913 527.312 110.314C528.288 105.648 527.566 100.231 524.858 96.7312C524.365 96.1186 524.055 95.3434 523.972 94.517C523.889 93.6905 524.038 92.8553 524.396 92.1313L524.443 92.0391Z" fill="#434350"/>
</g>
<defs>
<clipPath id="clip0_372_1153">
<rect width="696" height="410" fill="white"/>
</clipPath>
</defs>
</svg>
