<svg width="500" height="500" viewBox="0 0 500 500" fill="none" xmlns="http://www.w3.org/2000/svg">
<path d="M249.05 458.98C379.378 458.98 485.03 392.226 485.03 309.88C485.03 227.534 379.378 160.78 249.05 160.78C118.722 160.78 13.0698 227.534 13.0698 309.88C13.0698 392.226 118.722 458.98 249.05 458.98Z" fill="#B22222"/>
<path d="M284.09 398.13C270.81 405.79 270.81 418.22 284.09 425.89C297.37 433.56 318.89 433.55 332.16 425.89C345.43 418.23 345.44 405.79 332.16 398.13C318.88 390.47 297.36 390.46 284.09 398.13Z" fill="#E0E0E0"/>
<path d="M394 379.75C409.033 379.75 421.22 372.712 421.22 364.03C421.22 355.348 409.033 348.31 394 348.31C378.967 348.31 366.78 355.348 366.78 364.03C366.78 372.712 378.967 379.75 394 379.75Z" fill="#E0E0E0"/>
<path d="M137.76 370.65L131.26 366.9C129.26 365.72 129.26 363.8 131.26 362.62L219.07 312.11C220.217 311.524 221.487 311.218 222.775 311.218C224.063 311.218 225.333 311.524 226.48 312.11L232.97 315.85C235.02 317.03 235.02 318.95 232.97 320.13L145.16 370.65C144.014 371.232 142.746 371.535 141.46 371.535C140.175 371.535 138.907 371.232 137.76 370.65Z" fill="#E0E0E0"/>
<path d="M57.6801 377.48L41.5201 368.14C41.2577 368.048 41.0303 367.877 40.8694 367.651C40.7085 367.424 40.6221 367.153 40.6221 366.875C40.6221 366.597 40.7085 366.326 40.8694 366.099C41.0303 365.873 41.2577 365.702 41.5201 365.61L256.28 241.61C256.958 241.265 257.709 241.085 258.47 241.085C259.231 241.085 259.982 241.265 260.66 241.61L276.83 251C277.092 251.092 277.32 251.263 277.481 251.489C277.642 251.716 277.728 251.987 277.728 252.265C277.728 252.543 277.642 252.814 277.481 253.041C277.32 253.267 277.092 253.438 276.83 253.53L62.0601 377.53C61.3764 377.863 60.6245 378.032 59.8641 378.023C59.1038 378.014 58.356 377.828 57.6801 377.48Z" fill="#E0E0E0"/>
<path d="M283.67 263.45L257.23 248.18C256.968 248.088 256.74 247.917 256.579 247.691C256.418 247.464 256.332 247.193 256.332 246.915C256.332 246.637 256.418 246.366 256.579 246.139C256.74 245.913 256.968 245.742 257.23 245.65L331.6 202.71C332.28 202.365 333.032 202.185 333.795 202.185C334.558 202.185 335.31 202.365 335.99 202.71L362.42 218C362.682 218.092 362.91 218.263 363.071 218.489C363.232 218.716 363.318 218.987 363.318 219.265C363.318 219.543 363.232 219.814 363.071 220.041C362.91 220.267 362.682 220.438 362.42 220.53L288.05 263.47C287.369 263.807 286.618 263.981 285.858 263.978C285.097 263.974 284.348 263.794 283.67 263.45Z" fill="#E0E0E0"/>
<path d="M281.38 206.4L323.3 230.6C324.172 231.044 325.137 231.275 326.115 231.275C327.094 231.275 328.058 231.044 328.93 230.6L386.83 196.83C388.39 195.93 388.39 194.47 386.83 193.58L344.92 169.38C344.048 168.937 343.084 168.705 342.105 168.705C341.127 168.705 340.162 168.937 339.29 169.38L281.38 203.15C279.83 204.05 279.83 205.51 281.38 206.4Z" fill="#E0E0E0"/>
<path d="M56.9999 336.91C56.9999 336.91 56.4699 325.67 51.4799 316.64C46.4899 307.61 39.2299 301.71 32.1499 300.64C25.0699 299.57 18.8899 305.78 26.2099 310.77C33.5299 315.76 46.7599 321.25 51.8799 338.48L56.9999 336.91Z" fill="black"/>
<g opacity="0.2">
<path d="M56.9999 336.91C56.9999 336.91 56.4699 325.67 51.4799 316.64C46.4899 307.61 39.2299 301.71 32.1499 300.64C25.0699 299.57 18.8899 305.78 26.2099 310.77C33.5299 315.76 46.7599 321.25 51.8799 338.48L56.9999 336.91Z" fill="black"/>
</g>
<path d="M55.1001 333.88H55.1801C55.2755 333.848 55.3543 333.78 55.3993 333.69C55.4443 333.6 55.4518 333.495 55.4201 333.4C49.1301 314.4 35.3401 305.74 28.9301 303.82C28.8822 303.804 28.8317 303.799 28.7815 303.803C28.7313 303.807 28.6825 303.821 28.6378 303.845C28.5932 303.868 28.5536 303.9 28.5213 303.938C28.4891 303.977 28.4649 304.022 28.4501 304.07C28.422 304.168 28.4335 304.273 28.4821 304.363C28.5307 304.453 28.6126 304.52 28.7101 304.55C34.9901 306.43 48.5001 314.95 54.7101 333.64C54.7415 333.716 54.7961 333.78 54.8662 333.823C54.9362 333.866 55.0181 333.886 55.1001 333.88Z" fill="white"/>
<path d="M16.7801 332.27C17.3701 333.86 19.0001 334.78 20.5301 335.51C22.0601 336.24 23.7101 337.04 24.4601 338.51C25.9801 341.57 22.9001 345.51 24.5401 348.51C24.9246 349.122 25.4296 349.65 26.0244 350.061C26.6192 350.471 27.2914 350.757 28.0001 350.9C29.1601 351.19 30.3501 351.27 31.5301 351.45C32.093 351.48 32.6571 351.48 33.2201 351.45C34.8851 351.191 36.5891 351.486 38.0701 352.29C40.3201 353.76 40.8501 356.77 42.1201 359.14C42.9108 360.546 43.997 361.764 45.3038 362.711C46.6107 363.657 48.1072 364.308 49.6901 364.62C50.6901 364.83 52.6901 365.14 53.8001 364.62C53.88 364.583 53.9569 364.539 54.0301 364.49C54.1876 364.347 54.3346 364.194 54.4701 364.03V363.96C54.9901 362.46 54.4101 360.82 54.4701 359.24C54.4651 359.143 54.4651 359.047 54.4701 358.95C54.6601 357.12 54.8301 355.3 54.9901 353.47C55.3034 350.097 55.5601 346.723 55.7601 343.35C55.8801 341.16 56.3001 338.78 55.5101 336.65C54.6301 334.32 52.0801 334.1 51.2601 331.81C50.9401 330.89 50.7901 329.93 50.4801 329.01C49.9876 327.655 49.1319 326.462 48.0066 325.56C46.8813 324.659 45.5299 324.085 44.1001 323.9C39.6601 323.38 35.4201 326.73 30.9901 326.11C29.8525 325.874 28.7277 325.581 27.6201 325.23C24.0601 324.32 19.8201 325.07 17.6201 327.99C17.1439 328.582 16.8186 329.281 16.6723 330.026C16.5259 330.772 16.5629 331.542 16.7801 332.27Z" fill="black"/>
<path d="M55.3798 356.92C55.4783 356.898 55.5646 356.839 55.6205 356.755C55.6765 356.672 55.6977 356.569 55.6798 356.47C51.0698 333 26.9998 328 21.2198 328.06C21.1191 328.06 21.0224 328.1 20.9511 328.171C20.8799 328.243 20.8398 328.339 20.8398 328.44C20.8398 328.541 20.8799 328.637 20.9511 328.709C21.0224 328.78 21.1191 328.82 21.2198 328.82C26.8198 328.82 50.4098 333.62 54.9498 356.62C54.9693 356.716 55.0248 356.8 55.1048 356.856C55.1849 356.912 55.2834 356.935 55.3798 356.92Z" fill="white"/>
<path d="M29.0999 343.44C29.1792 343.432 29.2533 343.396 29.3099 343.34C31.6864 341.541 34.4304 340.289 37.3463 339.672C40.2623 339.055 43.2784 339.088 46.1799 339.77C46.2291 339.78 46.2799 339.78 46.3293 339.771C46.3787 339.761 46.4257 339.742 46.4676 339.714C46.5094 339.686 46.5453 339.65 46.5732 339.608C46.6011 339.566 46.6203 339.519 46.6299 339.47C46.6416 339.421 46.6433 339.371 46.6349 339.321C46.6266 339.272 46.6083 339.225 46.5812 339.183C46.5541 339.141 46.5187 339.105 46.4772 339.077C46.4357 339.049 46.389 339.029 46.3399 339.02C43.3203 338.317 40.183 338.289 37.1514 338.937C34.1197 339.586 31.2682 340.894 28.7999 342.77C28.742 342.826 28.7027 342.898 28.6873 342.977C28.672 343.056 28.6814 343.137 28.7142 343.21C28.7471 343.284 28.8017 343.345 28.8707 343.386C28.9398 343.427 29.0198 343.446 29.0999 343.44Z" fill="white"/>
<path d="M68.02 362.19L267.48 247.04V78.34L68.02 193.5V362.19Z" fill="black"/>
<path d="M59.8901 188.81L68.0201 193.5L267.48 78.34L275.61 64.26L59.8901 188.81Z" fill="#37474F"/>
<path d="M275.61 251.7V64.22L267.48 78.34V247.04L275.61 251.7Z" fill="#37474F"/>
<path d="M59.8901 188.81L68.0201 193.5V362.19L59.8901 376.28V188.81Z" fill="#37474F"/>
<path d="M68.0201 362.19L267.48 247.04L275.61 251.73L59.8901 376.28L68.0201 362.19Z" fill="#37474F"/>
<g opacity="0.5">
<path d="M59.8901 188.81L68.0201 193.5L267.48 78.34L275.61 64.26L59.8901 188.81Z" fill="#455A64"/>
</g>
<g opacity="0.5">
<path d="M68.0201 362.19L267.48 247.04L275.61 251.73L59.8901 376.28L68.0201 362.19Z" fill="#455A64"/>
</g>
<path d="M275.61 64.26L270.19 61.13L54.4702 185.68L59.8902 188.81L275.61 64.26Z" fill="#455A64"/>
<path d="M54.4702 185.68L59.8902 188.81V376.28L54.4702 373.15V185.68Z" fill="#263238"/>
<g style="mix-blend-mode:multiply" opacity="0.1">
<path d="M267.48 78.34L264.77 79.91V245.47L68.02 359.06V362.19L267.48 247.04V78.34Z" fill="black"/>
</g>
<path opacity="0.1" d="M116.39 175.63L71.8701 201.33L71.8801 264.58L116.39 238.88V175.63Z" fill="black"/>
<path d="M73.5903 202.31L118.1 176.61L121.53 178.59L77.0103 204.29L73.5903 202.31Z" fill="#FAFAFA"/>
<path d="M73.5903 202.31V265.56L77.0103 267.54V204.29L73.5903 202.31Z" fill="#E0E0E0"/>
<path d="M121.53 178.59L77.0103 204.29V267.54L121.53 241.84V178.59Z" fill="#F5F5F5"/>
<path d="M80.4404 206.26L118.1 184.52V231.96L80.4404 253.7V206.26Z" fill="black"/>
<path opacity="0.75" d="M80.4404 206.26L118.1 184.52V231.96L80.4404 253.7V206.26Z" fill="white"/>
<path d="M80.4404 237.88L95.1104 216.12L110.85 226.47L105.85 220.94L110.77 213.24L118.1 218.78V231.96L80.4404 253.7V237.88Z" fill="black"/>
<path d="M106 200.8C105.003 201.45 104.173 202.325 103.577 203.355C102.981 204.386 102.636 205.542 102.57 206.73C102.57 208.92 104.11 209.8 106 208.73C106.996 208.08 107.825 207.204 108.419 206.174C109.013 205.143 109.356 203.988 109.42 202.8C109.46 200.59 107.93 199.71 106 200.8Z" fill="black"/>
<path d="M102.13 198.25L102.05 198.33C101.993 198.398 101.921 198.452 101.84 198.49C101.68 198.59 101.6 198.49 101.45 198.4L100.28 197.71C99.8002 197.43 99.2802 197.1 98.6302 196.71C97.9802 196.32 97.3902 195.96 96.7602 195.56C96.5702 195.43 96.9202 194.81 97.1302 194.91L99.0602 195.91L100.74 196.85L101.92 197.52C102.06 197.61 102.2 197.62 102.2 197.81C102.209 197.896 102.209 197.984 102.2 198.07L102.13 198.25Z" fill="#455A64"/>
<path d="M103.34 199.1C102.43 200.67 100.95 201.52 99.4 200.68L99.31 200.63C99.0836 200.453 98.9053 200.222 98.7917 199.958C98.6781 199.694 98.6328 199.406 98.66 199.12C98.6975 198.297 98.929 197.495 99.3357 196.779C99.7423 196.063 100.313 195.454 101 195C101.227 194.841 101.489 194.739 101.764 194.702C102.039 194.666 102.319 194.696 102.58 194.79L102.67 194.84L102.81 194.93C104.25 195.87 104.24 197.55 103.34 199.1Z" fill="#37474F"/>
<path d="M105.24 202.21L106.99 199.21C105.655 198.519 104.414 197.659 103.3 196.65L103.23 196.59V196.53C103.061 196.409 102.858 196.345 102.65 196.345C102.442 196.345 102.239 196.409 102.07 196.53C101.621 196.822 101.248 197.216 100.98 197.68C100.712 198.144 100.558 198.665 100.53 199.2C100.508 199.392 100.538 199.586 100.617 199.762C100.696 199.938 100.822 200.089 100.98 200.2C101.07 200.249 101.168 200.28 101.27 200.29C102.675 200.745 104.011 201.391 105.24 202.21Z" fill="#455A64"/>
<path d="M108.5 199.79C108.5 199.301 108.307 198.832 107.962 198.485C107.617 198.139 107.149 197.943 106.66 197.94C106.434 197.94 106.21 197.985 106 198.07H105.93C105.831 198.11 105.734 198.157 105.64 198.21C105.096 198.563 104.643 199.04 104.318 199.601C103.994 200.162 103.806 200.792 103.77 201.44C103.768 201.599 103.788 201.757 103.83 201.91C103.898 202.375 104.141 202.796 104.509 203.088C104.877 203.379 105.343 203.519 105.811 203.478C106.279 203.437 106.714 203.219 107.026 202.868C107.338 202.517 107.504 202.06 107.49 201.59C107.49 201.53 107.49 201.48 107.49 201.42C107.792 201.267 108.046 201.035 108.224 200.747C108.403 200.459 108.498 200.128 108.5 199.79Z" fill="#37474F"/>
<path d="M106.66 198.85C107.66 198.26 108.52 198.74 108.52 199.93C108.486 200.578 108.299 201.209 107.976 201.772C107.653 202.335 107.202 202.814 106.66 203.17C105.66 203.76 104.79 203.28 104.79 202.09C104.825 201.441 105.012 200.809 105.337 200.246C105.662 199.683 106.115 199.205 106.66 198.85Z" fill="#455A64"/>
<path opacity="0.1" d="M130.19 175.7L250.03 106.5V209.31L130.19 278.5V175.7Z" fill="black"/>
<path d="M135.22 178.59L255.07 109.39V212.19L135.22 281.39V178.59Z" fill="#F5F5F5"/>
<path d="M131.79 176.61V279.41L135.22 281.39V178.59L131.79 176.61Z" fill="#E0E0E0"/>
<path d="M255.07 109.39L251.64 107.42L131.79 176.61L135.22 178.59L255.07 109.39Z" fill="black"/>
<g opacity="0.8">
<path d="M255.07 109.39L251.64 107.42L131.79 176.61L135.22 178.59L255.07 109.39Z" fill="white"/>
</g>
<path d="M131.79 176.61L135.22 178.59V198.36L131.79 196.38V176.61Z" fill="black"/>
<g opacity="0.5">
<path d="M131.79 176.61L135.22 178.59V198.36L131.79 196.38V176.61Z" fill="white"/>
</g>
<path d="M135.22 198.36L255.07 129.16V109.39L135.22 178.59V198.36Z" fill="black"/>
<g opacity="0.65">
<path d="M135.22 198.36L255.07 129.16V109.39L135.22 178.59V198.36Z" fill="white"/>
</g>
<path d="M187.74 153.54L184.61 155.34C184.583 155.362 184.55 155.374 184.515 155.374C184.481 155.374 184.447 155.362 184.42 155.34C184.366 155.272 184.341 155.186 184.35 155.1V154.1C184.349 153.989 184.373 153.88 184.42 153.78C184.465 153.69 184.53 153.611 184.61 153.55L188.76 151.15C188.787 151.128 188.821 151.116 188.855 151.116C188.89 151.116 188.923 151.128 188.95 151.15C188.977 151.181 188.997 151.218 189.009 151.258C189.021 151.297 189.025 151.339 189.02 151.38V157.59C189.049 158.715 188.816 159.831 188.34 160.85C187.896 161.732 187.2 162.463 186.34 162.95C185.989 163.179 185.588 163.319 185.17 163.36C184.881 163.391 184.591 163.308 184.36 163.13C184.132 162.931 183.965 162.671 183.88 162.38C183.764 162.007 183.7 161.62 183.69 161.23C183.685 161.116 183.709 161.002 183.76 160.9C183.802 160.813 183.868 160.74 183.95 160.69L184.72 160.24C184.745 160.228 184.773 160.221 184.8 160.221C184.828 160.221 184.855 160.228 184.88 160.24C184.93 160.24 184.96 160.31 184.98 160.39C185.001 160.562 185.045 160.73 185.11 160.89C185.165 161.024 185.255 161.142 185.37 161.23C185.488 161.309 185.628 161.348 185.77 161.34C185.974 161.315 186.169 161.243 186.34 161.13C186.782 160.874 187.132 160.486 187.34 160.02C187.593 159.472 187.716 158.873 187.7 158.27L187.74 153.54Z" fill="#455A64"/>
<path d="M190.33 153.24C190.333 153.129 190.36 153.02 190.41 152.92C190.445 152.83 190.508 152.752 190.59 152.7L191.31 152.28C191.335 152.259 191.367 152.247 191.4 152.247C191.433 152.247 191.465 152.259 191.49 152.28C191.518 152.313 191.54 152.351 191.554 152.392C191.568 152.433 191.573 152.477 191.57 152.52V156.25C191.539 156.687 191.622 157.124 191.81 157.52C191.98 157.78 192.24 157.8 192.61 157.58C192.982 157.354 193.257 156.998 193.38 156.58C193.568 156.078 193.659 155.546 193.65 155.01V151.28C193.654 151.169 193.681 151.06 193.73 150.96C193.765 150.87 193.828 150.792 193.91 150.74L194.63 150.32C194.655 150.299 194.687 150.287 194.72 150.287C194.753 150.287 194.785 150.299 194.81 150.32C194.841 150.351 194.864 150.389 194.878 150.431C194.891 150.472 194.896 150.517 194.89 150.56V157.4C194.892 157.515 194.865 157.629 194.81 157.73C194.772 157.819 194.71 157.895 194.63 157.95L193.91 158.37C193.885 158.391 193.853 158.403 193.82 158.403C193.787 158.403 193.755 158.391 193.73 158.37C193.701 158.34 193.678 158.304 193.665 158.264C193.651 158.224 193.646 158.182 193.65 158.14V157.8C193.493 158.123 193.312 158.433 193.11 158.73C192.9 159.023 192.631 159.268 192.32 159.45C192.026 159.649 191.675 159.747 191.32 159.73C191.196 159.71 191.078 159.663 190.973 159.595C190.868 159.526 190.778 159.436 190.71 159.33C190.54 159.053 190.431 158.742 190.39 158.42C190.319 158.004 190.285 157.582 190.29 157.16L190.33 153.24Z" fill="#455A64"/>
<path d="M200.86 154C200.86 154.11 200.836 154.22 200.79 154.32C200.755 154.411 200.692 154.488 200.61 154.54L199.88 154.96C199.855 154.981 199.823 154.993 199.79 154.993C199.757 154.993 199.726 154.981 199.7 154.96C199.672 154.927 199.65 154.889 199.636 154.848C199.623 154.807 199.617 154.763 199.62 154.72V151C199.654 150.564 199.564 150.127 199.36 149.74C199.18 149.49 198.9 149.48 198.53 149.74C198.161 149.974 197.882 150.326 197.74 150.74C197.536 151.241 197.437 151.779 197.45 152.32V156C197.446 156.111 197.419 156.22 197.37 156.32C197.335 156.411 197.272 156.488 197.19 156.54L196.46 156.96C196.435 156.981 196.403 156.993 196.37 156.993C196.337 156.993 196.306 156.981 196.28 156.96C196.226 156.892 196.201 156.806 196.21 156.72V149.88C196.208 149.769 196.232 149.66 196.28 149.56C196.316 149.467 196.378 149.387 196.46 149.33L197.19 148.91C197.216 148.889 197.247 148.877 197.28 148.877C197.313 148.877 197.345 148.889 197.37 148.91C197.399 148.941 197.421 148.977 197.435 149.017C197.448 149.056 197.454 149.098 197.45 149.14V149.48C197.608 149.127 197.803 148.792 198.03 148.48C198.244 148.196 198.512 147.958 198.82 147.78C199.113 147.576 199.464 147.474 199.82 147.49C199.946 147.508 200.067 147.552 200.176 147.62C200.284 147.687 200.378 147.775 200.45 147.88C200.633 148.149 200.749 148.457 200.79 148.78C200.862 149.193 200.895 149.611 200.89 150.03L200.86 154Z" fill="#455A64"/>
<path d="M201.88 150C201.883 149.449 201.94 148.9 202.05 148.36C202.146 147.834 202.3 147.321 202.51 146.83C202.702 146.377 202.951 145.95 203.25 145.56C203.521 145.205 203.861 144.909 204.25 144.69C204.546 144.495 204.897 144.404 205.25 144.43C205.536 144.459 205.8 144.595 205.99 144.81C206.215 145.076 206.376 145.391 206.46 145.73C206.578 146.163 206.635 146.611 206.63 147.06V147.72C206.627 147.834 206.6 147.947 206.55 148.05C206.515 148.14 206.452 148.217 206.37 148.27L203.18 150.11C203.172 150.294 203.203 150.478 203.27 150.65C203.317 150.773 203.405 150.876 203.52 150.94C203.627 151 203.749 151.024 203.87 151.01C204.015 150.985 204.154 150.934 204.28 150.86C204.461 150.754 204.629 150.626 204.78 150.48C204.871 150.328 204.944 150.167 205 150C205.051 149.91 205.108 149.823 205.17 149.74C205.227 149.682 205.291 149.632 205.36 149.59L206.12 149.15C206.145 149.129 206.177 149.117 206.21 149.117C206.243 149.117 206.275 149.129 206.3 149.15C206.331 149.181 206.354 149.219 206.368 149.261C206.382 149.302 206.386 149.347 206.38 149.39C206.354 149.598 206.303 149.803 206.23 150C206.123 150.305 205.983 150.597 205.81 150.87C205.616 151.202 205.388 151.514 205.13 151.8C204.859 152.101 204.541 152.357 204.19 152.56C203.894 152.754 203.544 152.848 203.19 152.83C203.046 152.822 202.905 152.783 202.777 152.716C202.65 152.649 202.538 152.555 202.45 152.44C202.218 152.149 202.06 151.806 201.99 151.44C201.896 150.966 201.859 150.483 201.88 150ZM204.22 146.45C204.042 146.555 203.883 146.691 203.75 146.85C203.622 147.007 203.511 147.178 203.42 147.36C203.331 147.539 203.261 147.727 203.21 147.92C203.21 148.11 203.14 148.28 203.12 148.44L205.28 147.19C205.267 147.049 205.243 146.908 205.21 146.77C205.182 146.644 205.124 146.528 205.04 146.43C205 146.385 204.951 146.349 204.895 146.325C204.84 146.301 204.78 146.289 204.72 146.29C204.542 146.289 204.368 146.342 204.22 146.44V146.45Z" fill="#455A64"/>
<path d="M143.35 203.54C143.35 204.64 144.17 205.05 145.18 204.47L154.18 199.28C154.698 198.957 155.133 198.518 155.451 197.997C155.769 197.476 155.96 196.888 156.01 196.28C156.01 195.19 155.19 194.78 154.18 195.36L145.18 200.54C144.663 200.864 144.229 201.303 143.911 201.824C143.593 202.345 143.401 202.932 143.35 203.54Z" fill="#455A64"/>
<path d="M158.51 194.79C158.51 195.88 159.33 196.3 160.33 195.71L169.33 190.53C169.848 190.207 170.284 189.768 170.601 189.247C170.919 188.726 171.11 188.138 171.16 187.53C171.16 186.44 170.34 186.02 169.33 186.61L160.33 191.79C159.814 192.114 159.381 192.554 159.065 193.074C158.749 193.595 158.559 194.183 158.51 194.79Z" fill="#455A64"/>
<path d="M173.67 186C173.67 187.09 174.48 187.5 175.49 186.92L184.49 181.74C185.007 181.417 185.441 180.977 185.757 180.456C186.073 179.935 186.263 179.347 186.31 178.74C186.31 177.65 185.5 177.23 184.49 177.81L175.49 183C174.975 183.325 174.543 183.765 174.227 184.286C173.911 184.806 173.721 185.393 173.67 186Z" fill="#455A64"/>
<path d="M188.83 177.29C188.83 178.38 189.64 178.79 190.65 178.21L199.65 173.03C200.165 172.705 200.597 172.264 200.912 171.744C201.228 171.223 201.419 170.637 201.47 170.03C201.47 168.93 200.66 168.52 199.65 169.1L190.65 174.29C190.133 174.613 189.7 175.053 189.384 175.574C189.068 176.095 188.878 176.682 188.83 177.29Z" fill="#455A64"/>
<path d="M204 168.54C204 169.63 204.82 170.04 205.83 169.46L214.83 164.27C215.348 163.947 215.783 163.508 216.101 162.987C216.419 162.466 216.61 161.878 216.66 161.27C216.66 160.18 215.84 159.77 214.83 160.35L205.83 165.54C205.311 165.862 204.876 166.301 204.558 166.822C204.24 167.343 204.049 167.932 204 168.54Z" fill="#455A64"/>
<path d="M219.14 159.78C219.14 160.88 219.96 161.29 220.97 160.71L229.97 155.52C230.488 155.197 230.923 154.758 231.241 154.237C231.559 153.716 231.75 153.128 231.8 152.52C231.8 151.43 230.98 151.02 229.97 151.6L220.97 156.78C220.453 157.104 220.019 157.543 219.701 158.064C219.384 158.585 219.191 159.172 219.14 159.78Z" fill="#455A64"/>
<path d="M234.3 151C234.3 152.09 235.12 152.51 236.12 151.92L245.12 146.74C245.638 146.417 246.074 145.978 246.391 145.457C246.709 144.936 246.901 144.348 246.95 143.74C246.95 142.65 246.13 142.23 245.12 142.82L236.12 148C235.605 148.325 235.173 148.765 234.857 149.286C234.541 149.806 234.35 150.393 234.3 151Z" fill="#455A64"/>
<path d="M248.22 208.66C248.109 208.66 248.002 208.616 247.923 208.537C247.845 208.458 247.8 208.351 247.8 208.24V152.89C247.8 152.779 247.845 152.672 247.923 152.593C248.002 152.514 248.109 152.47 248.22 152.47C248.332 152.47 248.439 152.514 248.517 152.593C248.596 152.672 248.64 152.779 248.64 152.89V208.24C248.64 208.351 248.596 208.458 248.517 208.537C248.439 208.616 248.332 208.66 248.22 208.66Z" fill="#E0E0E0"/>
<path d="M233.05 217.42C232.939 217.42 232.832 217.376 232.753 217.297C232.675 217.218 232.63 217.111 232.63 217V161.64C232.646 161.538 232.697 161.446 232.775 161.379C232.853 161.312 232.953 161.275 233.055 161.275C233.158 161.275 233.257 161.312 233.335 161.379C233.413 161.446 233.465 161.538 233.48 161.64V217C233.48 217.056 233.469 217.111 233.447 217.163C233.426 217.215 233.394 217.261 233.354 217.301C233.314 217.34 233.266 217.37 233.214 217.391C233.162 217.411 233.106 217.421 233.05 217.42Z" fill="#E0E0E0"/>
<path d="M217.89 226.17C217.779 226.17 217.672 226.126 217.593 226.047C217.514 225.968 217.47 225.861 217.47 225.75V170.4C217.47 170.289 217.514 170.182 217.593 170.103C217.672 170.024 217.779 169.98 217.89 169.98C218.002 169.98 218.108 170.024 218.187 170.103C218.266 170.182 218.31 170.289 218.31 170.4V225.75C218.31 225.861 218.266 225.968 218.187 226.047C218.108 226.126 218.002 226.17 217.89 226.17Z" fill="#E0E0E0"/>
<path d="M202.73 234.93C202.674 234.931 202.619 234.921 202.566 234.901C202.514 234.88 202.467 234.85 202.427 234.811C202.387 234.771 202.355 234.725 202.333 234.673C202.311 234.621 202.3 234.566 202.3 234.51V179.15C202.316 179.048 202.367 178.956 202.445 178.889C202.523 178.822 202.623 178.785 202.725 178.785C202.828 178.785 202.927 178.822 203.005 178.889C203.083 178.956 203.135 179.048 203.15 179.15V234.51C203.15 234.565 203.139 234.62 203.118 234.671C203.097 234.722 203.066 234.768 203.027 234.807C202.988 234.846 202.942 234.877 202.891 234.898C202.84 234.919 202.785 234.93 202.73 234.93Z" fill="#E0E0E0"/>
<path d="M187.56 243.68C187.449 243.68 187.342 243.636 187.263 243.557C187.184 243.478 187.14 243.371 187.14 243.26V187.91C187.14 187.799 187.184 187.692 187.263 187.613C187.342 187.534 187.449 187.49 187.56 187.49C187.672 187.49 187.778 187.534 187.857 187.613C187.936 187.692 187.98 187.799 187.98 187.91V243.26C187.98 243.371 187.936 243.478 187.857 243.557C187.778 243.636 187.672 243.68 187.56 243.68Z" fill="#E0E0E0"/>
<path d="M172.4 252.44C172.345 252.437 172.291 252.424 172.241 252.4C172.191 252.377 172.146 252.344 172.109 252.303C172.072 252.262 172.043 252.214 172.024 252.162C172.006 252.11 171.997 252.055 172 252V196.66C172 196.549 172.044 196.442 172.123 196.363C172.202 196.284 172.309 196.24 172.42 196.24C172.531 196.24 172.638 196.284 172.717 196.363C172.796 196.442 172.84 196.549 172.84 196.66V252C172.843 252.059 172.833 252.117 172.812 252.172C172.791 252.226 172.759 252.276 172.717 252.317C172.676 252.359 172.626 252.391 172.572 252.412C172.517 252.433 172.459 252.443 172.4 252.44Z" fill="#E0E0E0"/>
<path d="M157.23 261.19C157.119 261.19 157.012 261.146 156.933 261.067C156.854 260.988 156.81 260.881 156.81 260.77V205.42C156.809 205.364 156.819 205.308 156.839 205.256C156.86 205.204 156.89 205.157 156.93 205.117C156.969 205.076 157.015 205.045 157.067 205.023C157.119 205.001 157.174 204.99 157.23 204.99C157.286 204.99 157.342 205.001 157.393 205.023C157.445 205.045 157.492 205.076 157.531 205.117C157.57 205.157 157.601 205.204 157.621 205.256C157.642 205.308 157.652 205.364 157.65 205.42V260.77C157.65 260.881 157.606 260.988 157.527 261.067C157.448 261.146 157.342 261.19 157.23 261.19Z" fill="#E0E0E0"/>
<path d="M142.07 270C142.015 270 141.961 269.989 141.91 269.968C141.859 269.947 141.812 269.916 141.773 269.877C141.734 269.838 141.703 269.792 141.682 269.741C141.661 269.69 141.65 269.635 141.65 269.58V214.17C141.65 214.059 141.695 213.952 141.773 213.873C141.852 213.794 141.959 213.75 142.07 213.75C142.182 213.75 142.289 213.794 142.367 213.873C142.446 213.952 142.49 214.059 142.49 214.17V269.53C142.498 269.589 142.492 269.649 142.474 269.706C142.456 269.763 142.426 269.815 142.387 269.86C142.347 269.904 142.298 269.94 142.244 269.964C142.189 269.988 142.13 270 142.07 270Z" fill="#E0E0E0"/>
<path d="M142.07 228.43C141.995 228.431 141.922 228.412 141.857 228.375C141.792 228.338 141.737 228.285 141.7 228.22C141.646 228.123 141.633 228.009 141.663 227.902C141.693 227.795 141.764 227.705 141.86 227.65L248 166.36C248.047 166.332 248.099 166.313 248.154 166.305C248.208 166.297 248.264 166.3 248.317 166.314C248.37 166.328 248.42 166.353 248.463 166.386C248.507 166.42 248.543 166.462 248.57 166.51C248.599 166.558 248.618 166.611 248.626 166.666C248.634 166.721 248.631 166.777 248.617 166.831C248.603 166.885 248.578 166.936 248.544 166.98C248.511 167.025 248.468 167.062 248.42 167.09L142.28 228.38C142.214 228.411 142.143 228.428 142.07 228.43Z" fill="#E0E0E0"/>
<path d="M142.07 242.27C141.976 242.273 141.883 242.243 141.807 242.187C141.732 242.13 141.677 242.049 141.653 241.958C141.628 241.867 141.636 241.77 141.673 241.683C141.711 241.596 141.777 241.525 141.86 241.48L248 180.2C248.047 180.171 248.1 180.153 248.154 180.145C248.208 180.137 248.264 180.14 248.317 180.154C248.37 180.168 248.42 180.193 248.464 180.226C248.507 180.26 248.543 180.302 248.57 180.35C248.599 180.398 248.618 180.451 248.626 180.506C248.634 180.561 248.631 180.617 248.617 180.671C248.603 180.725 248.578 180.776 248.545 180.82C248.511 180.865 248.469 180.902 248.42 180.93L142.28 242.21C142.217 242.248 142.144 242.269 142.07 242.27Z" fill="#E0E0E0"/>
<path d="M142.07 256.11C141.976 256.113 141.883 256.083 141.807 256.027C141.732 255.97 141.677 255.889 141.653 255.798C141.628 255.707 141.636 255.61 141.673 255.523C141.711 255.436 141.777 255.365 141.86 255.32L248 194C248.047 193.972 248.1 193.953 248.154 193.945C248.208 193.937 248.264 193.94 248.317 193.954C248.37 193.968 248.42 193.993 248.464 194.026C248.507 194.06 248.543 194.102 248.57 194.15C248.599 194.198 248.618 194.251 248.626 194.306C248.634 194.361 248.631 194.417 248.617 194.471C248.603 194.525 248.578 194.576 248.545 194.621C248.511 194.665 248.469 194.702 248.42 194.73L142.28 256.05C142.217 256.088 142.144 256.109 142.07 256.11Z" fill="#E0E0E0"/>
<path d="M142.07 270C141.996 270 141.923 269.98 141.86 269.94C141.796 269.904 141.743 269.852 141.706 269.789C141.669 269.725 141.65 269.653 141.65 269.58V214.17C141.65 214.097 141.669 214.025 141.706 213.961C141.743 213.898 141.796 213.846 141.86 213.81L248 152.52C248.065 152.486 248.137 152.468 248.21 152.468C248.284 152.468 248.356 152.486 248.42 152.52C248.484 152.559 248.536 152.613 248.573 152.678C248.61 152.743 248.63 152.816 248.63 152.89V208.24C248.63 208.314 248.61 208.387 248.573 208.452C248.536 208.517 248.484 208.571 248.42 208.61L142.28 269.89C142.224 269.948 142.15 269.986 142.07 270ZM142.49 214.46V268.8L247.8 208V153.62L142.49 214.46Z" fill="#E0E0E0"/>
<path d="M177.72 223L178.57 224.83C178.581 224.856 178.597 224.879 178.617 224.899C178.637 224.918 178.661 224.934 178.687 224.944C178.713 224.954 178.741 224.959 178.769 224.959C178.797 224.958 178.825 224.952 178.85 224.94L180.78 224.2C181.08 224.09 181.2 224.52 180.98 224.93L179.59 227.54C179.501 227.69 179.466 227.867 179.49 228.04L179.81 230.4C179.87 230.78 179.55 231.27 179.27 231.24L177.56 231.02C177.491 231.025 177.423 231.045 177.362 231.08C177.302 231.114 177.25 231.162 177.21 231.22L175.49 233.42C175.22 233.77 174.9 233.65 174.95 233.21L175.28 230.47C175.296 230.403 175.294 230.332 175.274 230.266C175.255 230.199 175.219 230.139 175.17 230.09L173.78 229.09C173.56 228.93 173.68 228.36 173.99 228.09L175.91 226.61C176.044 226.497 176.141 226.347 176.19 226.18L177.05 223.36C177.18 222.94 177.58 222.71 177.72 223Z" fill="#F2A38F"/>
<path d="M233 183.84C232.91 182.16 232.26 180.49 230.54 179.84C228.42 179.09 226.65 180.77 225.33 182.18C224.99 182.55 225.61 182.73 225.89 182.47C227.25 181.18 229.76 179.9 231.22 181.62C232.68 183.34 231.92 185.86 231.22 187.72C229.99 190.82 226.86 193.8 223.22 193.54C215.34 192.95 223.87 179.07 228.54 178.29C228.91 178.23 229.18 177.64 228.67 177.55C226.32 177.17 224.67 179.27 223.17 180.85C221.53 182.582 220.249 184.621 219.4 186.85C217.83 191.04 220.15 196.18 225.26 194.55C229.75 193.15 233.31 188.69 233 183.84Z" fill="#F2A38F"/>
<path d="M161 246.08C160.516 245.39 159.963 244.75 159.35 244.17C159.13 243.91 158.58 244.22 158.71 244.54C159.03 245.31 159.71 245.73 160.1 246.41L160.32 246.76C159.32 245.98 157.32 245.68 156.44 245.47C153.777 244.907 151.006 245.161 148.49 246.2C148.24 246.28 148.34 246.52 148.56 246.55C148.953 246.554 149.344 246.483 149.71 246.34C151.074 246.055 152.47 245.954 153.86 246.04C155.18 246.09 158.33 246.54 159.7 247.55C158.31 247.32 156.85 247.41 155.99 248.45C155.89 248.57 155.88 248.79 156.08 248.82C156.96 248.93 157.7 248.6 158.58 248.63C159.601 248.645 160.613 248.821 161.58 249.15C161.96 249.28 162.24 248.88 162.22 248.54C162.019 247.633 161.6 246.789 161 246.08Z" fill="#F2A38F"/>
<path d="M253.23 122L253.14 122.08C253.08 122.145 253.009 122.199 252.93 122.24C252.77 122.34 252.69 122.24 252.55 122.15L251.37 121.46L249.72 120.46C249.12 120.09 248.48 119.71 247.85 119.3C247.66 119.18 248.01 118.55 248.22 118.66L250.15 119.66C250.77 119.99 251.34 120.32 251.83 120.6L253.01 121.27C253.15 121.36 253.29 121.37 253.29 121.55C253.305 121.639 253.305 121.731 253.29 121.82L253.23 122Z" fill="#455A64"/>
<path d="M254.43 122.81C253.52 124.38 252.05 125.23 250.49 124.38H250.4C250.173 124.206 249.994 123.977 249.881 123.714C249.767 123.452 249.722 123.165 249.75 122.88C249.793 122.059 250.029 121.26 250.439 120.547C250.849 119.835 251.422 119.229 252.11 118.78C252.338 118.621 252.6 118.519 252.875 118.482C253.15 118.446 253.43 118.476 253.69 118.57H253.78L253.92 118.66C255.34 119.58 255.33 121.26 254.43 122.81Z" fill="#37474F"/>
<path d="M256.33 125.91L258.08 122.91C256.742 122.228 255.501 121.37 254.39 120.36L254.32 120.29C254.151 120.169 253.948 120.105 253.74 120.105C253.532 120.105 253.33 120.169 253.16 120.29C252.712 120.581 252.339 120.973 252.071 121.435C251.804 121.898 251.649 122.417 251.62 122.95C251.599 123.142 251.63 123.336 251.709 123.511C251.788 123.687 251.913 123.839 252.07 123.95C252.162 123.995 252.26 124.025 252.36 124.04C253.764 124.477 255.1 125.106 256.33 125.91Z" fill="#455A64"/>
<path d="M259.59 123.49C259.59 123.248 259.543 123.009 259.45 122.786C259.358 122.563 259.222 122.36 259.052 122.189C258.881 122.018 258.678 121.883 258.455 121.79C258.231 121.698 257.992 121.65 257.75 121.65C257.525 121.653 257.302 121.693 257.09 121.77H257.02L256.73 121.9C256.187 122.256 255.734 122.735 255.41 123.297C255.085 123.86 254.897 124.491 254.86 125.14C254.859 125.299 254.879 125.457 254.92 125.61C254.988 126.075 255.231 126.496 255.599 126.788C255.968 127.079 256.434 127.219 256.902 127.178C257.37 127.137 257.804 126.919 258.116 126.568C258.428 126.217 258.594 125.76 258.58 125.29C258.58 125.23 258.58 125.17 258.58 125.12C258.881 124.966 259.134 124.732 259.312 124.445C259.49 124.158 259.586 123.828 259.59 123.49Z" fill="#37474F"/>
<path d="M257.75 122.56C258.75 121.96 259.61 122.45 259.61 123.64C259.576 124.288 259.39 124.919 259.067 125.482C258.744 126.045 258.293 126.523 257.75 126.88C256.75 127.47 255.88 126.99 255.88 125.8C255.913 125.15 256.099 124.518 256.424 123.954C256.749 123.391 257.204 122.913 257.75 122.56Z" fill="#455A64"/>
<path d="M146.47 183.25L146.39 183.32C146.328 183.386 146.258 183.443 146.18 183.49C146.02 183.59 145.94 183.49 145.79 183.39L144.62 182.7C144.13 182.42 143.57 182.09 142.97 181.7L141.09 180.55C140.9 180.42 141.25 179.8 141.46 179.91C142.13 180.25 142.78 180.62 143.4 180.91C144.02 181.2 144.59 181.56 145.08 181.84L146.26 182.51C146.39 182.61 146.54 182.61 146.53 182.8C146.544 182.886 146.544 182.974 146.53 183.06L146.47 183.25Z" fill="#455A64"/>
<path d="M147.68 184.09C146.77 185.66 145.29 186.51 143.68 185.67H143.59C143.36 185.496 143.178 185.266 143.063 185.002C142.947 184.737 142.901 184.447 142.93 184.16C142.975 183.341 143.213 182.544 143.622 181.834C144.032 181.123 144.604 180.519 145.29 180.07C145.519 179.909 145.783 179.806 146.06 179.77C146.336 179.733 146.618 179.764 146.88 179.86H146.96C147.011 179.888 147.058 179.921 147.1 179.96C148.59 180.86 148.57 182.55 147.68 184.09Z" fill="#37474F"/>
<path d="M149.58 187.2L151.33 184.2C149.997 183.51 148.757 182.653 147.64 181.65C147.62 181.624 147.596 181.601 147.57 181.58L147.51 181.52C147.34 181.397 147.135 181.331 146.925 181.331C146.715 181.331 146.511 181.397 146.34 181.52C145.895 181.815 145.525 182.21 145.259 182.674C144.993 183.137 144.84 183.657 144.81 184.19C144.788 184.382 144.818 184.576 144.897 184.752C144.977 184.928 145.102 185.079 145.26 185.19C145.349 185.242 145.448 185.273 145.55 185.28C146.976 185.73 148.332 186.377 149.58 187.2Z" fill="#455A64"/>
<path d="M152.84 184.78C152.84 184.289 152.645 183.819 152.298 183.472C151.952 183.125 151.481 182.93 150.99 182.93C150.767 182.932 150.547 182.976 150.34 183.06H150.27C150.17 183.098 150.073 183.145 149.98 183.2C149.435 183.554 148.98 184.032 148.655 184.595C148.33 185.158 148.143 185.791 148.11 186.44C148.11 186.595 148.127 186.749 148.16 186.9C148.228 187.364 148.471 187.784 148.838 188.075C149.205 188.366 149.669 188.506 150.136 188.466C150.603 188.427 151.037 188.211 151.35 187.862C151.663 187.513 151.831 187.058 151.82 186.59C151.825 186.53 151.825 186.47 151.82 186.41C152.125 186.26 152.382 186.028 152.562 185.74C152.742 185.452 152.838 185.12 152.84 184.78Z" fill="#37474F"/>
<path d="M151 183.84C152 183.25 152.87 183.73 152.87 184.92C152.835 185.569 152.647 186.2 152.322 186.763C151.997 187.326 151.544 187.805 151 188.16C150 188.76 149.13 188.27 149.13 187.08C149.167 186.431 149.355 185.8 149.68 185.237C150.004 184.675 150.457 184.196 151 183.84Z" fill="#455A64"/>
<path opacity="0.1" d="M75.3003 287.74V339.14L117.88 314.55V263.15L75.3003 287.74Z" fill="black"/>
<path d="M122.78 317.09C122.78 317.09 97.64 331.17 94.48 332.92C91.32 334.67 89.26 329.59 89.24 326.51C86.08 328.51 79.6 329.79 79.24 325.76L77 296.48L119.58 271.89L122.78 317.09Z" fill="#455A64"/>
<path d="M119.59 271.89L77.0103 296.48V288.59L119.59 264V271.89Z" fill="#37474F"/>
<path d="M80.6104 327.91L92.2703 333.06L88.6404 323.56L80.6104 327.91Z" fill="#37474F"/>
<path d="M95.0003 299C94.6803 300.2 94.0003 300.68 93.5403 299.95C93.2715 299.153 93.176 298.307 93.2603 297.47C93.2603 295.41 93.2003 293.39 93.2003 291.33C93.2003 290.69 92.6503 291.24 92.6403 291.8C92.6403 293.64 92.6403 295.52 92.6403 297.36C92.2303 295.89 90.4603 297.68 89.7203 299.06C88.9803 300.44 87.9303 303.77 89.2203 304.11C90.3303 304.41 92.0403 302.23 92.8703 300.31C92.9291 300.648 93.0738 300.964 93.2903 301.23C94.0103 301.96 95.4003 300.41 95.4103 298.81C95.3803 298.43 95.0503 298.69 95.0003 299ZM92.4203 299.08C92.3933 299.522 92.2988 299.957 92.1403 300.37C91.8931 300.999 91.5563 301.588 91.1403 302.12C90.9007 302.467 90.5948 302.762 90.2403 302.99C90.1779 303.035 90.1067 303.067 90.0312 303.083C89.9558 303.099 89.8778 303.099 89.8024 303.083C89.727 303.067 89.6557 303.035 89.5933 302.99C89.531 302.945 89.4788 302.887 89.4403 302.82C89.2436 302.162 89.2789 301.456 89.5403 300.82C89.8002 299.782 90.3278 298.83 91.0703 298.06C91.6603 297.59 92.1603 297.53 92.3403 298.36C92.3928 298.586 92.413 298.818 92.4003 299.05L92.4203 299.08Z" fill="#FAFAFA"/>
<path d="M109.74 289.4C109.42 290.6 108.74 291.08 108.28 290.4C108.013 289.602 107.914 288.758 107.99 287.92C107.99 285.86 107.93 283.84 107.93 281.78C107.93 281.14 107.38 281.69 107.38 282.25C107.38 284.09 107.38 285.97 107.38 287.81C106.97 286.34 105.2 288.13 104.46 289.51C103.72 290.89 102.67 294.22 103.95 294.56C105.07 294.86 106.78 292.68 107.61 290.76C107.669 291.098 107.814 291.414 108.03 291.68C108.75 292.41 110.14 290.86 110.15 289.26C110.13 288.86 109.81 289.12 109.74 289.4ZM107.16 289.48C107.124 289.92 107.03 290.354 106.88 290.77C106.637 291.4 106.3 291.99 105.88 292.52C105.644 292.866 105.342 293.162 104.99 293.39C104.928 293.435 104.857 293.467 104.781 293.483C104.706 293.499 104.628 293.499 104.553 293.483C104.477 293.467 104.406 293.435 104.344 293.39C104.281 293.345 104.229 293.287 104.19 293.22C103.991 292.563 104.022 291.857 104.28 291.22C104.544 290.181 105.075 289.23 105.82 288.46C106.41 287.99 106.9 287.93 107.09 288.76C107.149 288.995 107.173 289.238 107.16 289.48Z" fill="#FAFAFA"/>
<path d="M98.4903 296.42C97.9903 297.29 97.7203 298.24 97.0003 298.73C96.7743 298.891 96.5074 298.984 96.2303 299C95.7203 299 95.7203 298.26 95.7403 297.52C96.3848 297.196 96.8972 296.659 97.1903 296C97.615 295.248 97.8259 294.393 97.8003 293.53C97.6303 291.34 95.8803 293.93 95.4603 295.37C95.308 295.949 95.2142 296.542 95.1803 297.14L95.1003 297.21C94.9703 297.34 94.8203 297.76 95.0303 297.72H95.1603C95.1603 298.03 95.1603 298.33 95.1603 298.62C95.1603 299.54 95.4403 300.05 96.0103 300.08C96.4061 300.038 96.7849 299.897 97.1117 299.669C97.4386 299.442 97.7029 299.136 97.8803 298.78C98.4107 298.094 98.7366 297.273 98.8203 296.41C98.8003 296.18 98.6003 296.24 98.4903 296.42ZM95.8703 295.82C95.9803 295.31 96.9903 292.87 97.2703 294.06C97.5503 295.25 96.5503 296.12 95.7603 296.72C95.7685 296.417 95.8054 296.116 95.8703 295.82Z" fill="#FAFAFA"/>
<path d="M104.27 294.05C104.139 293.976 104.024 293.878 103.93 293.76L103.85 293.86C103.31 294.45 102.85 294.42 102.71 293.75C102.545 292.891 102.494 292.013 102.56 291.14V290.82V290.69C102.56 290.26 102.26 290.41 102.09 290.69C101.6 288.45 98.0101 294.47 98.7401 296.88C99.1301 298.19 100.4 297.4 101.23 296.4C101.665 295.858 101.981 295.231 102.16 294.56C102.219 294.936 102.42 295.276 102.72 295.51C103.22 295.8 103.96 294.99 104.38 294.06L104.27 294.05ZM101.79 293.57C101.618 294.348 101.276 295.079 100.79 295.71C100.49 296.1 99.7901 296.49 99.5201 296.31C99.4383 296.221 99.3777 296.114 99.3431 295.998C99.3084 295.882 99.3006 295.76 99.3201 295.64C99.3459 295.329 99.3995 295.021 99.4801 294.72C99.6601 293.943 99.9425 293.193 100.32 292.49C100.69 291.86 101.39 291.14 101.79 291.49C102.19 291.84 101.9 293 101.79 293.57Z" fill="#FAFAFA"/>
<path d="M106.6 303.55C106.09 304.41 105.82 305.37 105.11 305.85C104.883 306.01 104.617 306.103 104.34 306.12C103.82 306.12 103.82 305.38 103.84 304.65C104.481 304.328 104.995 303.8 105.3 303.15C105.715 302.394 105.926 301.542 105.91 300.68C105.73 298.49 103.98 301.08 103.57 302.53C103.41 303.105 103.313 303.695 103.28 304.29L103.21 304.36C103.07 304.49 102.92 304.91 103.13 304.87H103.26C103.26 305.177 103.26 305.477 103.26 305.77C103.26 306.69 103.53 307.2 104.1 307.24C104.503 307.193 104.889 307.046 105.221 306.812C105.553 306.578 105.82 306.264 106 305.9C106.533 305.217 106.856 304.393 106.93 303.53C106.9 303.31 106.7 303.36 106.6 303.55ZM103.97 302.94C104.09 302.43 105.1 300 105.37 301.18C105.64 302.36 104.65 303.24 103.86 303.84C103.883 303.537 103.93 303.236 104 302.94H103.97Z" fill="#FAFAFA"/>
<path d="M96.54 311.15C96.54 311.15 96.45 311.15 96.41 311.15C96.21 311.34 96.03 311.59 95.83 311.79C95.63 311.99 95.4 312.11 95.24 312C95.08 311.89 95.03 311.48 95.01 311.11C95.01 309.74 95.01 308.34 95.01 306.93C95.01 306.25 95.06 305.57 95.11 304.88C95.1654 304.251 95.1283 303.618 95 303C95 302.86 94.74 303 94.73 303.2C94.4109 306.082 94.3073 308.983 94.42 311.88C94.42 312.67 94.72 313.3 95.29 313.03C95.67 312.86 96.63 311.94 96.56 311.21C96.5566 311.189 96.5498 311.169 96.54 311.15Z" fill="#FAFAFA"/>
<path d="M98.3101 310.25C97.9801 310.32 97.8301 310.49 97.7201 310.04C97.6543 309.505 97.6543 308.965 97.7201 308.43C97.8433 307.435 97.8834 306.432 97.8401 305.43C97.8401 305.2 97.5201 305.52 97.4901 305.72C97.2081 307.3 97.0941 308.906 97.1501 310.51C97.2201 311.43 97.9901 311.79 98.4101 310.58C98.4301 310.44 98.4201 310.23 98.3101 310.25Z" fill="#FAFAFA"/>
<path d="M98.3603 302.06C98.2603 301.95 98.0203 302.15 97.9103 302.38C97.8497 302.429 97.7959 302.486 97.7503 302.55C97.5428 302.865 97.4674 303.25 97.5403 303.62C97.5411 303.634 97.5451 303.648 97.552 303.66C97.559 303.672 97.5686 303.682 97.5803 303.69C97.5919 303.698 97.6052 303.703 97.6191 303.704C97.633 303.706 97.6471 303.705 97.6603 303.7C97.8249 303.639 97.9721 303.539 98.0889 303.409C98.2058 303.278 98.2887 303.12 98.3303 302.95C98.4403 302.66 98.5103 302.2 98.3603 302.06Z" fill="#FAFAFA"/>
<path d="M102.49 307.05C102.49 306.1 102.49 305.15 102.49 304.2C102.49 303.46 102.57 302.42 102 302.47C100.87 302.57 100.29 304.94 99.9203 306.99C99.9203 306.11 99.8603 305.22 99.7603 304.37C99.7603 304.06 99.4003 304.42 99.3803 304.71C99.2903 306.4 99.3803 308.12 99.4803 309.71C99.4803 310.18 99.9003 309.77 99.9803 309.39C100.22 308.26 100.33 307.17 100.6 306.02C100.714 305.398 100.888 304.788 101.12 304.2C101.81 302.8 101.96 303.85 101.96 304.65C101.96 305.45 101.96 306.09 101.96 306.81C101.887 307.461 101.917 308.119 102.05 308.76C102.05 308.86 102.17 308.92 102.26 308.88C102.399 308.767 102.492 308.607 102.52 308.43C102.54 308.251 102.54 308.069 102.52 307.89L102.49 307.05Z" fill="#FAFAFA"/>
<path d="M107 316.55C106.93 315.71 106.93 315.05 106.5 314.62C106.07 314.19 105.57 314.57 105.06 314.7C105.54 313.7 106.54 312.59 106.45 311.49C106.35 310.23 104.32 312.08 103.79 312.49C103.72 312.49 103.65 312.61 103.6 312.73C103.55 312.85 103.6 312.73 103.6 312.78C103.54 312.96 103.54 313.15 103.6 313.14C104.066 312.95 104.515 312.719 104.94 312.45C105.06 312.38 105.66 311.85 105.74 311.93C105.82 312.01 105.41 312.93 105.39 312.93C104.938 313.626 104.565 314.371 104.28 315.15C104.28 315.37 104.28 315.68 104.39 315.69C104.5 315.7 104.87 315.5 105.07 315.51C106.19 315.58 106.34 315.89 106.4 317.19C106.449 317.811 106.368 318.436 106.163 319.025C105.959 319.613 105.634 320.153 105.21 320.61C104.71 321.13 104.21 321.25 103.83 320.99C103.45 320.73 103.57 320.11 104.12 319.17C104.28 318.99 104.36 318.49 104.12 318.56C103.669 318.79 103.307 319.163 103.092 319.621C102.876 320.079 102.819 320.596 102.93 321.09C103.29 322.66 104.55 322.44 105.59 321.17C106.132 320.54 106.538 319.803 106.781 319.008C107.023 318.213 107.098 317.376 107 316.55Z" fill="#FAFAFA"/>
<path d="M102.23 322.74C102.2 322.671 102.147 322.615 102.08 322.58C101.82 322.42 101.31 322.81 101.08 322.94C100.349 323.453 99.5801 323.911 98.7803 324.31C98.9785 323.569 99.2223 322.841 99.5103 322.13C99.9703 321.01 100.43 319.92 100.84 318.77C101.25 317.62 102.06 315.85 101.48 314.94C100.9 314.03 99.7703 315.25 99.3903 315.71C98.9821 316.196 98.6638 316.752 98.4503 317.35C98.3207 317.568 98.2231 317.804 98.1603 318.05C98.1603 318.31 98.3703 318.47 98.6003 318.29C98.6863 318.216 98.7546 318.124 98.8003 318.02C98.9203 317.81 99.0303 317.6 99.1303 317.38C99.2405 317.085 99.3778 316.8 99.5403 316.53C99.7239 316.283 99.9353 316.058 100.17 315.86C100.38 315.66 100.75 315.44 100.98 315.73C101.21 316.02 101.1 316.43 101.04 316.73C100.808 317.617 100.503 318.483 100.13 319.32C99.7403 320.32 99.2803 321.32 98.8603 322.32C98.5669 323.133 98.3166 323.961 98.1103 324.8C97.9903 325.15 98.1103 325.49 98.2903 325.44C98.7885 325.265 99.2649 325.034 99.7103 324.75C100.379 324.32 101.07 323.926 101.78 323.57C101.871 323.544 101.958 323.507 102.04 323.46C102.144 323.376 102.219 323.26 102.253 323.131C102.287 323.002 102.279 322.865 102.23 322.74Z" fill="#FAFAFA"/>
<path d="M323.56 226.75L285.53 204.79L285.52 123.23L323.56 145.19V226.75Z" fill="#263238"/>
<path opacity="0.25" d="M323.56 172.44L285.52 181.59L285.53 204.79L323.56 226.75V172.44Z" fill="black"/>
<path d="M323.56 145.19L377.89 113.82V195.38L323.56 226.75V145.19Z" fill="#37474F"/>
<path d="M377.89 113.82L323.56 145.19L285.52 123.23L339.86 91.86L377.89 113.82Z" fill="#455A64"/>
<path d="M347 144.19L354.39 139.92C355.39 139.36 356.13 139.62 356.13 140.48C356.059 141.015 355.865 141.526 355.563 141.974C355.261 142.422 354.86 142.793 354.39 143.06L347 147.32C346 147.88 345.26 147.62 345.26 146.76C345.331 146.226 345.525 145.716 345.827 145.27C346.129 144.824 346.531 144.454 347 144.19Z" fill="#263238"/>
<path d="M327.99 186.55L371.46 161.46L372.46 162.03L371.45 191.66L372.45 192.24L328.99 217.34L327.99 216.76V186.55Z" fill="#263238"/>
<path d="M328.99 187.13L372.46 162.03L372.45 192.24L328.99 217.34V187.13Z" fill="#455A64"/>
<path d="M346 182.41L353.39 178.14C354.39 177.59 355.13 177.84 355.13 178.71C355.06 179.244 354.866 179.754 354.564 180.2C354.262 180.646 353.86 181.016 353.39 181.28L346 185.55C345 186.1 344.26 185.85 344.26 184.98C344.332 184.446 344.526 183.936 344.828 183.49C345.13 183.044 345.531 182.675 346 182.41Z" fill="#263238"/>
<path d="M327.99 148.98L371.46 123.88L372.46 124.46L371.45 154.09L372.45 154.67L328.99 179.76L327.99 179.18V148.98Z" fill="#263238"/>
<path d="M328.99 149.55L372.46 124.46L372.45 154.67L328.99 179.76V149.55Z" fill="#455A64"/>
<path opacity="0.25" d="M323.56 175L341.31 164.75C341.469 164.643 341.652 164.578 341.842 164.561C342.033 164.543 342.225 164.574 342.4 164.65L340.96 163.8C340.619 163.536 340.222 163.351 339.8 163.26C339.721 163.246 339.639 163.246 339.56 163.26H339.48C339.357 163.311 339.237 163.367 339.12 163.43L323.56 172.43V175Z" fill="black"/>
<path d="M346 144.84L353.39 140.57C354.39 140.01 355.13 140.27 355.13 141.13C355.059 141.665 354.865 142.176 354.563 142.624C354.261 143.072 353.86 143.443 353.39 143.71L346 148C345 148.56 344.26 148.3 344.26 147.44C344.326 146.901 344.518 146.384 344.821 145.933C345.123 145.481 345.527 145.107 346 144.84Z" fill="#263238"/>
<path d="M357.92 219.53L290.32 258.53L286.21 260.9L286.02 261C285.911 261.054 285.797 261.097 285.68 261.13C285.542 261.188 285.398 261.229 285.25 261.25C285.155 261.276 285.058 261.293 284.96 261.3H284.9H284.54C284.165 261.315 283.793 261.232 283.46 261.06C282.661 260.467 282.112 259.597 281.92 258.62L270.53 199.5C270.52 199.367 270.52 199.233 270.53 199.1C270.52 198.994 270.52 198.886 270.53 198.78C270.551 198.617 270.588 198.456 270.64 198.3C270.7 198.14 270.77 197.99 270.84 197.84C270.891 197.743 270.947 197.65 271.01 197.56C271.081 197.459 271.158 197.362 271.24 197.27C271.312 197.189 271.393 197.115 271.48 197.05C271.566 196.981 271.656 196.918 271.75 196.86L343.45 155.46L343.64 155.36L343.85 155.27H343.94C344.026 155.251 344.114 155.251 344.2 155.27C344.665 155.367 345.1 155.572 345.47 155.87L347.06 156.8C347.184 156.854 347.297 156.932 347.39 157.03C347.517 157.173 347.616 157.339 347.68 157.52C347.68 157.61 347.68 157.69 347.74 157.77L359.13 216.95C359.192 217.45 359.112 217.958 358.898 218.415C358.684 218.871 358.345 219.258 357.92 219.53Z" fill="black"/>
<path d="M357.92 219.53L290.32 258.53L286.21 260.9L286.02 261C285.911 261.054 285.797 261.097 285.68 261.13C285.542 261.188 285.398 261.229 285.25 261.25C285.155 261.276 285.058 261.293 284.96 261.3H284.9H284.54C284.165 261.315 283.793 261.232 283.46 261.06C282.661 260.467 282.112 259.597 281.92 258.62L270.53 199.5C270.52 199.367 270.52 199.233 270.53 199.1C270.52 198.994 270.52 198.886 270.53 198.78C270.551 198.617 270.588 198.456 270.64 198.3C270.7 198.14 270.77 197.99 270.84 197.84C270.891 197.743 270.947 197.65 271.01 197.56C271.081 197.459 271.158 197.362 271.24 197.27C271.312 197.189 271.393 197.115 271.48 197.05C271.566 196.981 271.656 196.918 271.75 196.86L343.45 155.46L343.64 155.36L343.85 155.27H343.94C344.026 155.251 344.114 155.251 344.2 155.27C344.665 155.367 345.1 155.572 345.47 155.87L347.06 156.8C347.184 156.854 347.297 156.932 347.39 157.03C347.517 157.173 347.616 157.339 347.68 157.52C347.68 157.61 347.68 157.69 347.74 157.77L359.13 216.95C359.192 217.45 359.112 217.958 358.898 218.415C358.684 218.871 358.345 219.258 357.92 219.53Z" fill="black"/>
<path opacity="0.45" d="M286 261C285.606 261.203 285.173 261.316 284.73 261.332C284.288 261.347 283.847 261.265 283.44 261.09C282.641 260.497 282.092 259.627 281.9 258.65L270.53 199.5C270.44 198.925 270.546 198.337 270.83 197.83L273.25 199.22C272.963 199.726 272.854 200.314 272.94 200.89L284.33 260.07C284.352 260.255 284.418 260.433 284.522 260.587C284.626 260.742 284.765 260.871 284.928 260.961C285.091 261.052 285.273 261.103 285.459 261.11C285.646 261.116 285.831 261.079 286 261Z" fill="black"/>
<path opacity="0.25" d="M345.46 155.81L347.05 156.74C346.856 156.658 346.646 156.626 346.436 156.645C346.227 156.664 346.026 156.735 345.85 156.85L274.15 198.25C273.759 198.489 273.446 198.836 273.25 199.25L270.83 197.86C270.881 197.763 270.938 197.67 271 197.58C271.071 197.479 271.148 197.382 271.23 197.29C271.379 197.129 271.551 196.991 271.74 196.88L343.44 155.48L343.84 155.29H343.93C344.016 155.271 344.104 155.271 344.19 155.29C344.648 155.363 345.083 155.541 345.46 155.81Z" fill="black"/>
<path d="M284.33 260.07L272.94 200.89C272.868 200.38 272.944 199.861 273.158 199.393C273.373 198.925 273.717 198.528 274.15 198.25L345.85 156.85C346.021 156.727 346.22 156.652 346.429 156.632C346.638 156.611 346.849 156.647 347.04 156.734C347.231 156.821 347.395 156.958 347.516 157.129C347.638 157.3 347.711 157.501 347.73 157.71L359.12 216.89C359.197 217.399 359.124 217.919 358.911 218.388C358.698 218.856 358.354 219.253 357.92 219.53L286.21 260.93C286.04 261.053 285.84 261.128 285.631 261.148C285.422 261.169 285.211 261.133 285.02 261.046C284.829 260.959 284.665 260.822 284.544 260.651C284.422 260.48 284.349 260.279 284.33 260.07Z" fill="black"/>
<path opacity="0.35" d="M284.33 260.07L272.94 200.89C272.868 200.38 272.944 199.861 273.158 199.393C273.373 198.925 273.717 198.528 274.15 198.25L345.85 156.85C346.021 156.727 346.22 156.652 346.429 156.632C346.638 156.611 346.849 156.647 347.04 156.734C347.231 156.821 347.395 156.958 347.516 157.129C347.638 157.3 347.711 157.501 347.73 157.71L359.12 216.89C359.197 217.399 359.124 217.919 358.911 218.388C358.698 218.856 358.354 219.253 357.92 219.53L286.21 260.93C286.04 261.053 285.84 261.128 285.631 261.148C285.422 261.169 285.211 261.133 285.02 261.046C284.829 260.959 284.665 260.822 284.544 260.651C284.422 260.48 284.349 260.279 284.33 260.07Z" fill="black"/>
<path d="M288.41 246.56C288.127 246.703 287.815 246.784 287.498 246.796C287.18 246.808 286.864 246.751 286.57 246.63C285.992 246.199 285.597 245.568 285.46 244.86L277.26 202.29C277.199 201.877 277.276 201.455 277.48 201.09L279.22 202.09C279.016 202.455 278.939 202.877 279 203.29L287.19 245.87C287.202 246.007 287.247 246.14 287.322 246.256C287.397 246.372 287.498 246.468 287.619 246.536C287.739 246.604 287.874 246.642 288.011 246.646C288.149 246.65 288.286 246.621 288.41 246.56Z" fill="#E0E0E0"/>
<path d="M345 162.87L346.15 163.54C346.012 163.48 345.86 163.456 345.71 163.47C345.56 163.484 345.415 163.536 345.29 163.62L279.9 201.38C279.623 201.549 279.398 201.791 279.25 202.08L277.51 201.08L277.63 200.88L277.8 200.67C277.906 200.557 278.028 200.46 278.16 200.38L343.55 162.61L343.83 162.47H343.9H344.09C344.417 162.541 344.727 162.677 345 162.87Z" fill="#FAFAFA"/>
<path d="M287.19 245.87L279 203.29C278.945 202.923 278.997 202.548 279.152 202.21C279.306 201.873 279.556 201.588 279.87 201.39L345.26 163.62C345.383 163.534 345.526 163.481 345.676 163.467C345.826 163.454 345.976 163.48 346.113 163.542C346.249 163.605 346.367 163.702 346.454 163.825C346.542 163.947 346.595 164.09 346.61 164.24L354.8 206.82C354.855 207.187 354.802 207.562 354.648 207.9C354.493 208.237 354.244 208.522 353.93 208.72L288.54 246.49C288.417 246.576 288.273 246.629 288.124 246.643C287.974 246.656 287.823 246.63 287.687 246.568C287.55 246.505 287.432 246.407 287.345 246.285C287.258 246.163 287.204 246.02 287.19 245.87Z" fill="#F5F5F5"/>
<path d="M360.82 163.22C360.834 163.029 360.8 162.838 360.722 162.663C360.643 162.488 360.522 162.336 360.37 162.22C360.337 162.193 360.3 162.173 360.26 162.16L357.94 160.8C357.759 160.717 357.559 160.683 357.36 160.703C357.162 160.722 356.972 160.794 356.81 160.91L310.33 187.71L309 182.23C308.901 181.86 308.66 181.544 308.33 181.35L305.91 179.95C305.688 179.816 305.434 179.745 305.175 179.745C304.916 179.745 304.662 179.816 304.44 179.95L284.65 191.4C284.182 191.704 283.792 192.114 283.512 192.597C283.233 193.08 283.071 193.623 283.04 194.18V260.12C283.022 260.309 283.051 260.5 283.127 260.675C283.202 260.85 283.32 261.003 283.47 261.12L285.96 262.57C286.14 262.64 286.336 262.664 286.528 262.64C286.72 262.615 286.903 262.543 287.06 262.43L359.24 220.76C359.707 220.455 360.095 220.045 360.373 219.562C360.651 219.079 360.811 218.537 360.84 217.98L360.82 163.22Z" fill="black"/>
<path opacity="0.1" d="M308.27 181.32C308.045 181.204 307.794 181.15 307.541 181.162C307.288 181.174 307.043 181.253 306.83 181.39L287.06 192.8C286.589 193.102 286.198 193.514 285.92 194L283.51 192.6C283.776 192.106 284.17 191.691 284.65 191.4L304.42 180C304.643 179.868 304.897 179.798 305.155 179.798C305.414 179.798 305.668 179.868 305.89 180L308.27 181.32Z" fill="black"/>
<path opacity="0.1" d="M360.26 162.14C360.086 162.082 359.9 162.066 359.718 162.092C359.535 162.118 359.362 162.186 359.21 162.29L312.69 189.13C312.501 189.255 312.284 189.333 312.059 189.357C311.833 189.38 311.605 189.349 311.394 189.265C311.183 189.182 310.995 189.049 310.846 188.877C310.698 188.706 310.593 188.501 310.54 188.28L310.32 187.69L356.8 160.89C357.014 160.758 357.259 160.685 357.51 160.68C357.657 160.675 357.802 160.71 357.93 160.78L360.26 162.14Z" fill="black"/>
<path d="M360.81 163.22V217.99C360.781 218.548 360.619 219.09 360.34 219.574C360.06 220.057 359.669 220.467 359.2 220.77L286.84 262.55C286.696 262.635 286.533 262.681 286.366 262.682C286.199 262.683 286.034 262.639 285.89 262.556C285.745 262.472 285.625 262.352 285.543 262.207C285.46 262.061 285.418 261.897 285.42 261.73V195.59C285.436 195.031 285.598 194.487 285.89 194.01C286.158 193.52 286.547 193.107 287.02 192.81L306.79 181.39C307.005 181.253 307.251 181.174 307.506 181.162C307.76 181.15 308.013 181.204 308.24 181.32C308.568 181.521 308.807 181.839 308.91 182.21L310.26 187.66L310.48 188.25C310.53 188.471 310.632 188.677 310.779 188.85C310.927 189.023 311.113 189.158 311.324 189.242C311.535 189.327 311.763 189.359 311.988 189.336C312.214 189.313 312.431 189.235 312.62 189.11L359.15 162.27C359.301 162.164 359.474 162.094 359.656 162.066C359.838 162.039 360.025 162.053 360.2 162.11H360.26C360.448 162.223 360.6 162.388 360.697 162.585C360.795 162.781 360.834 163.002 360.81 163.22Z" fill="black"/>
<path opacity="0.2" d="M360.81 163.22V217.99C360.781 218.548 360.619 219.09 360.34 219.574C360.06 220.057 359.669 220.467 359.2 220.77L286.84 262.55C286.696 262.635 286.533 262.681 286.366 262.682C286.199 262.683 286.034 262.639 285.89 262.556C285.745 262.472 285.625 262.352 285.543 262.207C285.46 262.061 285.418 261.897 285.42 261.73V195.59C285.436 195.031 285.598 194.487 285.89 194.01C286.158 193.52 286.547 193.107 287.02 192.81L306.79 181.39C307.005 181.253 307.251 181.174 307.506 181.162C307.76 181.15 308.013 181.204 308.24 181.32C308.568 181.521 308.807 181.839 308.91 182.21L310.26 187.66L310.48 188.25C310.53 188.471 310.632 188.677 310.779 188.85C310.927 189.023 311.113 189.158 311.324 189.242C311.535 189.327 311.763 189.359 311.988 189.336C312.214 189.313 312.431 189.235 312.62 189.11L359.15 162.27C359.301 162.164 359.474 162.094 359.656 162.066C359.838 162.039 360.025 162.053 360.2 162.11H360.26C360.448 162.223 360.6 162.388 360.697 162.585C360.795 162.781 360.834 163.002 360.81 163.22Z" fill="black"/>
<path opacity="0.45" d="M286 262.6H285.93L283.44 261.16C283.294 261.04 283.179 260.886 283.104 260.712C283.029 260.538 282.997 260.349 283.01 260.16V194.18C283.028 193.622 283.19 193.077 283.48 192.6L285.89 194C285.601 194.478 285.439 195.022 285.42 195.58V261.72C285.416 261.908 285.47 262.093 285.573 262.25C285.677 262.407 285.826 262.529 286 262.6Z" fill="black"/>
<path d="M230 312.29C229.886 310.088 229.253 307.943 228.153 306.032C227.053 304.12 225.517 302.495 223.67 301.29C221.94 300.29 220.38 300.19 219.23 300.83L155.73 337.51L164.73 353L228.19 316.34C229.33 315.73 230 314.31 230 312.29Z" fill="#F0F0F0"/>
<path d="M228.18 306.05C227.114 304.117 225.572 302.489 223.7 301.32C221.97 300.32 220.41 300.22 219.26 300.86L155.76 337.54L160.26 345.28L228.26 306.04L228.18 306.05Z" fill="#F5F5F5"/>
<path d="M158.5 342.34L226.14 303.34C225.425 302.561 224.604 301.888 223.7 301.34C223.52 301.24 223.35 301.15 223.17 301.07L156.78 339.4L158.5 342.34Z" fill="#FAFAFA"/>
<path d="M160.22 338C162.067 339.205 163.603 340.83 164.703 342.742C165.803 344.653 166.436 346.798 166.55 349C166.55 353 163.72 354.68 160.22 352.66C158.373 351.455 156.837 349.83 155.737 347.919C154.637 346.007 154.004 343.863 153.89 341.66C153.89 337.61 156.72 336 160.22 338Z" fill="#E0E0E0"/>
<path d="M223.12 319.31C224.27 318.65 224.97 317.23 224.97 315.21C224.856 313.008 224.223 310.863 223.123 308.952C222.023 307.04 220.487 305.415 218.64 304.21C216.91 303.21 215.35 303.11 214.21 303.75L216.01 302.75C217.15 302.12 218.71 302.22 220.44 303.22C222.289 304.424 223.827 306.048 224.929 307.96C226.03 309.872 226.665 312.017 226.78 314.22C226.78 316.22 226.07 317.65 224.93 318.31L223.12 319.31Z" fill="#E0E0E0"/>
<path d="M167.07 349.26C166.941 346.884 166.254 344.571 165.064 342.511C163.873 340.45 162.214 338.699 160.22 337.4C158.33 336.31 156.62 336.2 155.38 336.92L131.38 350.78L141.15 367.5L165.07 353.69C166.3 353 167.07 351.44 167.07 349.26Z" fill="black"/>
<path opacity="0.3" d="M163 339.73L139 353.56C138.184 352.647 137.233 351.865 136.18 351.24L160.18 337.39C161.231 338.025 162.182 338.813 163 339.73Z" fill="white"/>
<path opacity="0.05" d="M167.07 349.26C167.07 351.45 166.3 352.98 165.07 353.7L141.16 367.51C142.37 366.79 143.16 365.26 143.16 363.11C143.118 361.305 142.702 359.527 141.94 357.89L165.94 344.05C166.669 345.691 167.054 347.464 167.07 349.26Z" fill="black"/>
<path d="M136.25 351.24C138.244 352.539 139.904 354.29 141.094 356.351C142.284 358.411 142.971 360.724 143.1 363.1C143.1 367.46 140.03 369.23 136.25 367.05C134.256 365.751 132.596 364 131.406 361.94C130.216 359.879 129.529 357.566 129.4 355.19C129.4 350.82 132.47 349.05 136.25 351.24Z" fill="black"/>
<path opacity="0.1" d="M136.25 351.24C138.244 352.539 139.904 354.29 141.094 356.351C142.284 358.411 142.971 360.724 143.1 363.1C143.1 367.46 140.03 369.23 136.25 367.05C134.256 365.751 132.596 364 131.406 361.94C130.216 359.879 129.529 357.566 129.4 355.19C129.4 350.82 132.47 349.05 136.25 351.24Z" fill="black"/>
<path opacity="0.2" d="M136.25 354C133.81 352.6 131.83 353.74 131.83 356.56C131.913 358.092 132.357 359.582 133.125 360.909C133.893 362.237 134.964 363.364 136.25 364.2C138.69 365.61 140.67 364.46 140.67 361.65C140.587 360.117 140.143 358.625 139.375 357.296C138.607 355.967 137.537 354.838 136.25 354ZM136.25 362.67C135.351 362.083 134.603 361.293 134.067 360.364C133.53 359.434 133.219 358.392 133.16 357.32C133.16 355.32 134.55 354.55 136.25 355.54C137.15 356.125 137.9 356.915 138.437 357.844C138.974 358.774 139.283 359.818 139.34 360.89C139.34 362.9 138 363.69 136.25 362.71V362.67Z" fill="black"/>
<path d="M148.24 356.18L146.52 357.17L148.24 358.15L149.95 357.17L148.24 356.18Z" fill="black"/>
<path d="M169.86 348.4L168.14 347.4C167.893 347.286 167.621 347.238 167.351 347.263C167.08 347.287 166.821 347.383 166.6 347.54L148.24 358.13V364.07L166.6 353.47C167.236 353.054 167.766 352.495 168.147 351.836C168.527 351.178 168.747 350.439 168.79 349.68V349.46L168.99 349.58L169.86 348.4Z" fill="black"/>
<path d="M170.49 349.81V350.69C170.448 351.449 170.227 352.188 169.847 352.846C169.466 353.505 168.937 354.064 168.3 354.48L150 365.08V359.14L168.35 348.55C169.52 347.86 170.49 348.42 170.49 349.81Z" fill="black"/>
<path opacity="0.05" d="M170.49 349.81V350.69C170.448 351.449 170.227 352.188 169.847 352.846C169.466 353.505 168.937 354.064 168.3 354.48L150 365.08V359.14L168.35 348.55C169.52 347.86 170.49 348.42 170.49 349.81Z" fill="black"/>
<path d="M146.52 363.1V357.17L149.94 359.14L149.95 365.08L146.52 363.1Z" fill="black"/>
<path opacity="0.1" d="M146.52 363.1V357.17L149.94 359.14L149.95 365.08L146.52 363.1Z" fill="black"/>
<path d="M382.2 261.43C381.2 262.43 378.94 263.23 364.08 264.31C361.917 264.523 359.734 264.236 357.7 263.47C355.693 262.682 353.968 261.309 352.75 259.53C352.462 259.14 352.252 258.699 352.13 258.23C352.006 257.757 352.074 257.253 352.32 256.83C352.611 256.44 353.034 256.17 353.51 256.07C354.444 255.857 355.423 255.963 356.29 256.37C357.67 256.9 358.72 257.09 358.61 256.81C358.5 256.53 357.68 256.28 356.83 255.31C355.98 254.34 355.76 253.01 356.31 252.59C356.86 252.17 356.77 252.27 357.75 253.08C358.939 253.836 360.078 254.667 361.16 255.57C361.978 256.497 363.007 257.214 364.16 257.66C365.65 258.25 367.06 258.07 371.16 257.41C374.73 256.84 376.16 256.64 377.82 255.68C379.67 252.87 384.12 241.02 386.06 237.77C388.06 234.33 392.26 234.23 392.26 234.23C392.224 238.465 391.515 242.667 390.16 246.68C387.982 251.839 385.317 256.778 382.2 261.43Z" fill="#B16668"/>
<path d="M393.43 233.88C391.712 233.59 389.946 233.901 388.43 234.76C386.18 236.17 384.71 238.76 383.28 242.08C381.54 246.08 379.44 251.4 379.44 251.4C381.468 253.366 384.115 254.568 386.93 254.8L393.64 243.65L393.43 233.88Z" fill="black"/>
<path d="M409.29 351.85H403.5V361.76H409.29V351.85Z" fill="#B16668"/>
<path d="M393.27 354.35L387.49 354.55L387.2 344.06L393.27 343.86V354.35Z" fill="#B16668"/>
<path d="M411.76 277.86C411.76 283.38 410.76 315.54 410.76 315.54C410.89 317.13 412.42 319.96 412.54 325.69C412.72 333.99 409.54 356.81 409.54 356.81C408.539 357.301 407.443 357.566 406.328 357.586C405.214 357.607 404.109 357.383 403.09 356.93C403.09 356.93 400.47 326.01 399.43 317.79C398.52 310.61 396.99 291.11 396.99 291.11L394.26 314.54C394.932 317.558 395.174 320.655 394.98 323.74C394.71 327.54 393.64 351.1 393.64 351.1C392.63 351.67 391.508 352.011 390.352 352.099C389.196 352.188 388.034 352.02 386.95 351.61C386.95 351.61 382.87 318.03 382.81 314.54C382.73 310.54 384.32 269.94 384.32 269.94L411.76 277.86Z" fill="black"/>
<path opacity="0.5" d="M411.76 277.86C411.76 283.38 410.76 315.54 410.76 315.54C410.89 317.13 412.42 319.96 412.54 325.69C412.72 333.99 409.54 356.81 409.54 356.81C408.539 357.301 407.443 357.566 406.328 357.586C405.214 357.607 404.109 357.383 403.09 356.93C403.09 356.93 400.47 326.01 399.43 317.79C398.52 310.61 396.99 291.11 396.99 291.11L394.26 314.54C394.932 317.558 395.174 320.655 394.98 323.74C394.71 327.54 393.64 351.1 393.64 351.1C392.63 351.67 391.508 352.011 390.352 352.099C389.196 352.188 388.034 352.02 386.95 351.61C386.95 351.61 382.87 318.03 382.81 314.54C382.73 310.54 384.32 269.94 384.32 269.94L411.76 277.86Z" fill="black"/>
<path d="M408 237.19C409.277 237.755 410.28 238.8 410.79 240.1C411.389 241.698 411.677 243.395 411.64 245.1V256.44L411.81 277.86C407.495 280.231 402.592 281.321 397.678 281.003C392.764 280.684 388.043 278.969 384.07 276.06C384.07 276.06 384.57 248.49 384.57 243.98C384.57 243.78 384.57 243.57 384.57 243.36C384.671 241.845 385.106 240.371 385.844 239.044C386.583 237.717 387.606 236.57 388.84 235.685C390.075 234.801 391.49 234.201 392.984 233.929C394.477 233.656 396.013 233.718 397.48 234.11L402.73 235.46L407.99 237.19H408Z" fill="#263238"/>
<path d="M396.142 223.455C400.204 221.773 402.132 217.117 400.45 213.055C398.768 208.994 394.111 207.065 390.05 208.747C385.988 210.43 384.06 215.086 385.742 219.147C387.424 223.209 392.081 225.138 396.142 223.455Z" fill="black"/>
<path opacity="0.5" d="M396.142 223.455C400.204 221.773 402.132 217.117 400.45 213.055C398.768 208.994 394.111 207.065 390.05 208.747C385.988 210.43 384.06 215.086 385.742 219.147C387.424 223.209 392.081 225.138 396.142 223.455Z" fill="black"/>
<path d="M406.84 221.75C406.362 224.133 405.761 226.489 405.04 228.81C404.692 229.421 404.123 229.876 403.45 230.08L403.54 225.82L406.84 221.75Z" fill="black"/>
<path opacity="0.5" d="M406.84 221.75C406.362 224.133 405.761 226.489 405.04 228.81C404.692 229.421 404.123 229.876 403.45 230.08L403.54 225.82L406.84 221.75Z" fill="black"/>
<path d="M405.22 213.08C405.671 213.029 406.127 213.081 406.555 213.231C406.983 213.382 407.371 213.628 407.69 213.95C408.76 215.03 408.16 218.43 406.84 221.75L404.41 222.03L405.22 213.08Z" fill="black"/>
<path opacity="0.5" d="M405.22 213.08C405.671 213.029 406.127 213.081 406.555 213.231C406.983 213.382 407.371 213.628 407.69 213.95C408.76 215.03 408.16 218.43 406.84 221.75L404.41 222.03L405.22 213.08Z" fill="black"/>
<path d="M403.68 222C404.17 222.29 404.87 221.36 405.47 220.73C405.706 220.459 406.008 220.253 406.346 220.132C406.684 220.01 407.047 219.976 407.402 220.034C407.756 220.093 408.09 220.24 408.372 220.463C408.653 220.687 408.873 220.978 409.01 221.31C410.01 223.4 408.14 226.18 406.6 226.66C403.94 227.5 403.54 225.79 403.54 225.79L403.34 235.68C400.04 239.92 390.86 239.56 394.68 235.13V232.21C393.497 232.401 392.297 232.465 391.1 232.4C389.1 232.09 387.91 230.55 387.32 228.4C386.32 225 386 222.26 386.81 215.57C387.7 208.24 396.22 208.16 400.81 211.06C405.4 213.96 403.68 222 403.68 222Z" fill="#B16668"/>
<path d="M403.68 222.85C403.93 222.85 404.86 221.31 405.47 220.76C406.31 220 405.22 213.08 405.22 213.08C405.442 212.481 405.483 211.831 405.339 211.209C405.195 210.587 404.872 210.021 404.41 209.58C403.26 208.31 402.01 207.51 398.69 207.33C396.423 207.322 394.157 207.429 391.9 207.65C388.62 207.87 387.41 207.07 385.53 206.54C384.09 206.14 383.93 211.33 387.53 213.06C388.87 213.723 390.328 214.111 391.82 214.2C394.699 214.42 397.592 214.363 400.46 214.03C401.36 213.91 401.55 214.79 402.04 217.18C402.51 219.28 402.86 222.84 403.68 222.85Z" fill="black"/>
<path opacity="0.5" d="M403.68 222.85C403.93 222.85 404.86 221.31 405.47 220.76C406.31 220 405.22 213.08 405.22 213.08C405.442 212.481 405.483 211.831 405.339 211.209C405.195 210.587 404.872 210.021 404.41 209.58C403.26 208.31 402.01 207.51 398.69 207.33C396.423 207.322 394.157 207.429 391.9 207.65C388.62 207.87 387.41 207.07 385.53 206.54C384.09 206.14 383.93 211.33 387.53 213.06C388.87 213.723 390.328 214.111 391.82 214.2C394.699 214.42 397.592 214.363 400.46 214.03C401.36 213.91 401.55 214.79 402.04 217.18C402.51 219.28 402.86 222.84 403.68 222.85Z" fill="black"/>
<path d="M405.22 213.62L408.16 212.03C408.066 211.832 407.932 211.655 407.767 211.51C407.603 211.365 407.41 211.255 407.202 211.187C406.993 211.119 406.773 211.094 406.554 211.113C406.336 211.132 406.123 211.196 405.93 211.3C405.535 211.52 405.24 211.884 405.108 212.317C404.975 212.75 405.016 213.216 405.22 213.62Z" fill="black"/>
<path opacity="0.5" d="M405.22 213.62L408.16 212.03C408.066 211.832 407.932 211.655 407.767 211.51C407.603 211.365 407.41 211.255 407.202 211.187C406.993 211.119 406.773 211.094 406.554 211.113C406.336 211.132 406.123 211.196 405.93 211.3C405.535 211.52 405.24 211.884 405.108 212.317C404.975 212.75 405.016 213.216 405.22 213.62Z" fill="black"/>
<path d="M394.69 232.24C396.701 231.858 398.672 231.293 400.58 230.55C401.483 230.089 402.22 229.359 402.69 228.46C402.464 229.355 402.059 230.195 401.5 230.93C400.38 232.35 394.69 233.4 394.69 233.4V232.24Z" fill="#9A4A4D"/>
<path d="M394.9 220.94C394.906 221.113 394.962 221.28 395.063 221.42C395.163 221.561 395.302 221.669 395.463 221.731C395.625 221.793 395.801 221.807 395.969 221.769C396.138 221.732 396.292 221.646 396.412 221.522C396.532 221.398 396.613 221.241 396.645 221.071C396.676 220.901 396.657 220.726 396.59 220.567C396.522 220.408 396.41 220.272 396.266 220.177C396.122 220.081 395.953 220.03 395.78 220.03C395.543 220.035 395.318 220.134 395.153 220.304C394.988 220.475 394.897 220.703 394.9 220.94Z" fill="#263238"/>
<path d="M395.83 217.64L397.7 218.64C397.837 218.385 397.869 218.086 397.788 217.807C397.708 217.529 397.522 217.293 397.27 217.15C397.144 217.084 397.006 217.044 396.864 217.033C396.722 217.022 396.58 217.04 396.445 217.086C396.31 217.132 396.186 217.205 396.081 217.3C395.975 217.395 395.89 217.511 395.83 217.64Z" fill="#263238"/>
<path d="M395.09 227L393.09 227.75C393.135 227.883 393.206 228.006 393.299 228.112C393.392 228.218 393.505 228.304 393.632 228.365C393.759 228.426 393.896 228.462 394.037 228.47C394.177 228.478 394.318 228.457 394.45 228.41C394.716 228.301 394.931 228.094 395.05 227.832C395.169 227.57 395.183 227.272 395.09 227Z" fill="#9A4A4D"/>
<path d="M387.36 218.37L389.06 217.05C388.983 216.932 388.881 216.831 388.762 216.755C388.643 216.678 388.509 216.628 388.369 216.607C388.23 216.586 388.087 216.596 387.951 216.634C387.815 216.672 387.688 216.739 387.58 216.83C387.353 217.01 387.204 217.27 387.163 217.556C387.122 217.843 387.192 218.134 387.36 218.37Z" fill="#263238"/>
<path d="M387.88 220.69C387.886 220.863 387.943 221.03 388.043 221.17C388.143 221.311 388.282 221.419 388.444 221.481C388.605 221.543 388.781 221.557 388.949 221.519C389.118 221.482 389.272 221.396 389.392 221.272C389.512 221.148 389.593 220.991 389.625 220.821C389.656 220.651 389.637 220.476 389.57 220.317C389.502 220.158 389.39 220.022 389.246 219.927C389.102 219.831 388.933 219.78 388.76 219.78C388.642 219.781 388.526 219.806 388.418 219.853C388.31 219.899 388.212 219.967 388.13 220.051C388.048 220.136 387.984 220.236 387.941 220.346C387.898 220.455 387.877 220.572 387.88 220.69Z" fill="#263238"/>
<path d="M392.34 219.86L392.05 225.13L389.31 224.19L392.34 219.86Z" fill="#9A4A4D"/>
<path d="M403.5 358.9V358.08C402.95 358.32 401.66 363.23 399.36 365.32C397.54 366.99 395.05 368.91 394.41 370.77C393.77 372.63 397.88 373.77 399.59 373.46C401.59 373.11 405.01 371.72 405.87 370.46C406.73 369.2 407.13 367.26 407.87 366.31C408.61 365.36 410.18 364.31 410.56 363.21C410.67 362.198 410.557 361.174 410.23 360.21C409.96 359.21 409.67 358.06 409.32 358.16V358.79C408.499 359.443 407.479 359.796 406.43 359.79C405.55 359.72 403.49 359.55 403.5 358.9Z" fill="#263238"/>
<path d="M387.43 352.76C387.13 352.76 386.88 353.2 386.22 353.91C385.232 354.915 384.078 355.744 382.81 356.36C380.64 357.45 376.43 359.12 374.52 359.98C373.33 360.51 373.39 361.98 374.62 362.77C375.85 363.56 378.82 364.18 382.39 363.38C384.34 362.95 386.87 361.15 388.47 361.25C390.07 361.35 393.08 361.32 394.26 360.51C395.44 359.7 394.97 357.95 394.63 356.45C394.29 354.95 393.81 352.27 393.27 352.38V353C392.58 354.05 388.99 354.48 387.46 353.7L387.43 352.76Z" fill="#263238"/>
<path opacity="0.15" d="M397 291.11C394.007 290.18 391.255 288.602 388.94 286.49C388.94 286.49 390.49 289.4 395.12 292.11L394.5 312.57L397 291.11Z" fill="black"/>
<path d="M421.18 266C417.47 244.27 413.67 237.67 407.45 237.44C405.53 239.52 405.7 246.09 408.37 250.21C408.37 250.21 414.09 264.02 414.88 268.86C415.56 273.12 416.32 278.47 416.07 282.09C416.02 282.727 415.739 283.325 415.28 283.77C414.05 284.98 413.99 286 413.16 287.36C412.52 288.43 411.85 288.81 412.02 289.06C412.249 289.335 412.573 289.512 412.928 289.557C413.282 289.601 413.641 289.509 413.93 289.3C414.499 288.933 415.014 288.489 415.46 287.98C415.191 289.31 414.736 290.596 414.11 291.8C412.65 294.69 412.9 296.22 416.94 295.36C419.48 294.83 421.15 292.82 421.83 286.82C422.119 284.615 422.249 282.393 422.22 280.17C422.131 275.431 421.784 270.701 421.18 266Z" fill="#B16668"/>
<path d="M405.93 236.53C407.82 236.87 412.68 237.04 415.17 242.06C417.227 246.812 418.899 251.721 420.17 256.74C418.978 257.876 417.561 258.75 416.011 259.306C414.462 259.862 412.813 260.088 411.17 259.97L408.17 251.29C405.34 247.6 404.63 239.3 405.93 236.53Z" fill="black"/>
<path d="M321.17 286.54C323.5 286.67 324.63 288.22 327 294.08C329.37 299.94 333.48 309.96 332.71 312.14C332.17 313.66 317.42 318.44 317.42 318.44L313.69 313.49L324.81 308.49L319 295.64L321.17 286.54Z" fill="#FFC1A7"/>
<path d="M291.55 305.46L276.39 306.52L275.88 307.21L288.87 332.79L303.29 330.39L291.55 305.46Z" fill="black"/>
<path opacity="0.3" d="M291.55 305.46L276.39 306.52L275.88 307.21L288.87 332.79L303.29 330.39L291.55 305.46Z" fill="black"/>
<path d="M292.07 304.77L276.39 306.52L289.39 332.1L303.81 329.7L292.07 304.77Z" fill="black"/>
<path d="M291.97 307.2L278.82 308.67L289.66 329.6L301.76 327.58L291.97 307.2Z" fill="#F5F5F5"/>
<path opacity="0.15" d="M289.39 308.24L288.85 307.19C288.55 306.61 287.33 306.24 286.12 306.36L283.79 306.6C282.58 306.73 281.79 307.3 282.14 307.88L282.68 308.93L289.39 308.24Z" fill="black"/>
<path d="M288.14 304.5C288.005 304.303 287.816 304.149 287.597 304.055C287.377 303.961 287.136 303.932 286.9 303.97L286 304.09C286 304.09 284.83 301.82 282.7 301.89C280.57 301.96 281.7 304.5 281.7 304.5L280.7 304.64C280.17 304.72 279.88 305.08 280.04 305.43L280.33 306.07L288.4 305.17L288.14 304.5Z" fill="#37474F"/>
<path d="M287.45 305.27C286.69 305.32 286.4 305.39 286.86 306.27C287.32 307.15 287.86 308.06 287.86 308.06L284.29 308.46C284.29 308.46 283.64 307.17 283.38 306.67C283.293 306.425 283.129 306.214 282.913 306.068C282.697 305.922 282.44 305.849 282.18 305.86L281.84 305.43L287.5 304.89L287.45 305.27Z" fill="#263238"/>
<path d="M289.58 308.38L289.04 307.33C288.75 306.75 287.52 306.38 286.31 306.5L283.99 306.74C282.78 306.87 282.04 307.44 282.34 308.02L282.88 309.07L289.58 308.38Z" fill="#37474F"/>
<path d="M297.26 317.07C297.26 317.07 297.67 314.74 296.97 313.94C296.27 313.14 293.41 313.25 291.97 312.63C290.53 312.01 290.67 313.69 291.41 314.24C293.05 315.43 296.27 316 297.26 317.07Z" fill="#F2A38F"/>
<path d="M306.08 413.33C306.402 414.315 306.672 415.317 306.89 416.33C307.12 417.44 307.44 419.33 307.05 420.14C306.66 420.95 305.14 421.52 302.79 421.5C301.26 421.5 298.88 422.5 297.25 423.43C295.043 424.369 292.639 424.751 290.25 424.54C288.15 424.29 285.98 423.07 285.64 422.21C285.3 421.35 285.01 420.15 290.69 418.33C290.69 418.33 297.56 416.09 299.96 413.45L306.08 413.33Z" fill="#263238"/>
<path d="M306.08 413.48L305 413.35L300 413.45C297.6 416.09 290.78 418.31 290.73 418.33L289.82 418.63C288.82 419.43 289.67 420.78 292.02 420.99C294.37 421.2 301.66 418.74 303.28 417.99C304.137 417.595 304.859 416.957 305.357 416.155C305.854 415.353 306.106 414.423 306.08 413.48Z" fill="#FFC1A7"/>
<path d="M306.08 411.33C306.08 411.33 306.08 412.7 306.08 413.48C306.08 414.26 305.16 415.43 302.78 415.34C301.1 415.28 299.93 414.83 300 413.45V411.45L306.08 411.33Z" fill="#FFC1A7"/>
<path d="M322.11 404.35C322.54 404.52 322.63 405.35 322.65 407C322.65 408.24 322.88 410.42 321.41 410.82C319.94 411.22 317.81 410.93 316.91 409.73C315.78 408.24 315.03 406.93 313.41 405.1C312.01 403.51 310.49 402.02 309.97 399.83C309.49 397.83 309.97 397.02 311.31 396.48C312.65 395.94 313.89 396.39 315.76 397.95C316.285 398.3 316.845 398.595 317.43 398.83C318.66 399.21 321.68 404.17 322.11 404.35Z" fill="#263238"/>
<path d="M322.16 402.82L322.1 404.82C322.1 404.82 320.75 407.46 317 404.82C316.91 404.63 316.58 400.72 316.58 400.72L322.16 402.82Z" fill="#FFC1A7"/>
<path d="M317.43 398.83C316.845 398.595 316.285 398.3 315.76 397.95C314.25 397.47 311.06 398.03 312.5 400.23C313.69 402.041 315.218 403.606 317 404.84C318.69 405.68 319.29 404.64 319.29 404.64L318.69 399.91C318.356 399.46 317.926 399.091 317.43 398.83Z" fill="#FFC1A7"/>
<path d="M324.9 374.89C324.563 371.339 323.828 367.837 322.71 364.45C322.71 364.45 324 355.53 325 347C327.35 326.93 325.79 326.61 322.95 319.63C322.95 319.63 297.22 316.32 296.14 327.02C294.8 340.35 295.41 366.19 295.63 370.91C295.85 375.63 296.24 377.78 297.63 387.68C298.69 395.22 299.71 411.68 299.71 411.68C300.742 412.222 301.902 412.477 303.066 412.417C304.231 412.357 305.358 411.985 306.33 411.34C306.33 411.34 309.55 391.08 309.48 385.63C309.42 381.594 308.831 377.583 307.73 373.7C307.73 373.7 309.92 351.98 310.48 348.53C310.48 348.53 311.1 355.45 311.33 360.18C311.56 364.91 312.83 369.45 313.96 378.25C314.96 385.88 316.57 401.82 316.57 401.82C319.94 403.76 322.3 402.88 322.3 402.88C322.3 402.88 325.64 381.51 324.9 374.89Z" fill="black"/>
<path opacity="0.1" d="M310.48 348.52L311.88 339.52C314.699 339.184 317.412 338.239 319.83 336.75C319.83 336.75 318.08 339.39 313.45 340.49L312 350.91L311.42 361.78L310.48 348.52Z" fill="black"/>
<path d="M306.56 281.52L307.51 291.52L316.29 290.96L315.59 279.87L306.56 281.52Z" fill="#FFC1A7"/>
<path d="M324.19 290.1C323.3 287.45 321.48 285.9 317.46 285.85H315.97C315.69 287.33 311.36 288.52 307.09 287.01C306.48 287.17 304.83 287.47 303.9 287.6L301.9 287.9C298.79 288.9 297.41 294.32 297.11 302.9C296.81 311.48 295.53 329.81 295.53 329.81C295.53 329.81 302.23 333.4 312.8 332.01C317.649 331.51 322.175 329.348 325.61 325.89C324.495 321.143 322.855 316.534 320.72 312.15C325.65 300 325.51 294 324.19 290.1Z" fill="#455A64"/>
<path d="M307.51 332.36C309.262 332.384 311.013 332.28 312.75 332.05C321.37 330.92 325.19 326.17 325.55 325.88C324.432 321.151 322.795 316.56 320.67 312.19C322.677 307.638 324.069 302.839 324.81 297.92C324.4 300.49 320.61 310.42 315.65 313.4C317.785 313.947 319.636 315.275 320.84 317.12C323.23 320.4 321.27 331.66 307.51 332.36Z" fill="#37474F"/>
<path d="M302 269.1C302 269.1 298.68 265.1 301.28 261.29C304.35 256.74 309.75 255.21 316.43 257.19C319.74 258.19 324.59 262.74 324.83 269.19C325.02 274.12 311.18 277.39 311.4 280.77L302 269.1Z" fill="#263238"/>
<path d="M300.05 270.54C300.05 270.54 298.1 273.48 298.35 273.8C298.806 274.098 299.31 274.314 299.84 274.44L300.05 270.54Z" fill="#F2A38F"/>
<path d="M306 261.22C304.11 262.22 300.84 264.01 300 270.97C299.14 278.13 300.73 280.61 301.71 281.55C302.36 282.18 305.76 282.41 307.53 281.86C309.75 281.17 314.53 278.8 316.8 275.11C319.45 270.76 320 264.98 316.94 262.71C315.391 261.556 313.576 260.814 311.662 260.554C309.749 260.293 307.801 260.522 306 261.22Z" fill="#FFC1A7"/>
<path d="M305.43 261.52C305.43 261.52 303.78 268.05 305.76 272.17C305.76 272.17 306.92 269.62 309.11 270.35C311.3 271.08 311.11 274.03 309.37 275.53C308.927 275.959 308.372 276.255 307.769 276.382C307.166 276.51 306.539 276.464 305.96 276.25C305.96 276.25 306.02 279.86 309.1 281.25C309.1 281.25 315.56 284.34 321.39 278.11C326.68 272.45 325.99 262.32 318.2 259.73C310.41 257.14 305.43 261.52 305.43 261.52Z" fill="#263238"/>
<path d="M332.37 266.86L332.29 266.95C332.241 267.023 332.18 267.087 332.11 267.14C331.96 267.26 331.87 267.14 331.71 267.14L330.46 266.63L328.69 265.88C328.04 265.6 327.35 265.31 326.69 265C326.48 264.91 326.74 264.24 326.96 264.32C327.67 264.57 328.37 264.84 329.03 265.08L330.82 265.78L332.08 266.28C332.23 266.35 332.38 266.33 332.4 266.52C332.41 266.61 332.41 266.7 332.4 266.79L332.37 266.86Z" fill="black"/>
<path d="M332.36 258.51V258.63C332.37 258.716 332.37 258.804 332.36 258.89C332.36 259.08 332.2 259.07 332.05 259.14L330.79 259.66L329.01 260.38C328.36 260.63 327.66 260.92 327.01 261.18C326.8 261.25 326.51 260.6 326.72 260.49C327.4 260.17 328.09 259.87 328.72 259.58C329.35 259.29 329.96 259.04 330.48 258.82L331.73 258.28C331.88 258.28 331.98 258.12 332.12 258.28C332.19 258.336 332.254 258.399 332.31 258.47L332.36 258.51Z" fill="black"/>
<path d="M329.14 261.83C329.142 263.189 328.741 264.518 327.987 265.649C327.233 266.781 326.161 267.663 324.906 268.184C323.651 268.706 322.269 268.843 320.936 268.579C319.602 268.315 318.377 267.662 317.416 266.701C316.454 265.741 315.799 264.517 315.533 263.184C315.267 261.851 315.402 260.469 315.922 259.213C316.442 257.957 317.322 256.884 318.452 256.128C319.582 255.373 320.911 254.97 322.27 254.97C323.172 254.969 324.065 255.145 324.898 255.489C325.732 255.833 326.489 256.339 327.127 256.976C327.765 257.613 328.271 258.37 328.617 259.202C328.962 260.035 329.14 260.928 329.14 261.83Z" fill="#263238"/>
<path d="M300.41 258.59C297.51 261.59 297.34 270.07 305.76 272.17L311.27 257.07C308.06 255 303 256 300.41 258.59Z" fill="#263238"/>
<path d="M304.91 274.51C304.704 274.436 304.515 274.322 304.354 274.175C304.193 274.027 304.062 273.85 303.969 273.652C303.876 273.454 303.823 273.24 303.813 273.022C303.803 272.804 303.836 272.586 303.91 272.38C303.984 272.174 304.098 271.986 304.245 271.824C304.392 271.663 304.57 271.532 304.768 271.439C304.966 271.346 305.18 271.293 305.398 271.283C305.616 271.273 305.834 271.306 306.04 271.38L304.91 274.51Z" fill="#263238"/>
<path d="M313.61 258.51V258.63C313.595 258.716 313.595 258.804 313.61 258.89C313.61 259.08 313.77 259.07 313.92 259.14L315.17 259.66L316.95 260.38C317.61 260.63 318.3 260.92 319.01 261.18C319.22 261.25 319.51 260.6 319.29 260.49C318.61 260.17 317.93 259.87 317.29 259.58C316.65 259.29 316.04 259.04 315.53 258.82L314.28 258.28C314.12 258.28 314.03 258.12 313.88 258.28C313.812 258.336 313.752 258.4 313.7 258.47L313.61 258.51Z" fill="black"/>
<path d="M313.61 266.86L313.68 266.95C313.73 267.025 313.795 267.09 313.87 267.14C314.01 267.26 314.1 267.14 314.26 267.14L315.52 266.63L317.29 265.88L319.29 265C319.49 264.91 319.23 264.24 319.01 264.32C318.3 264.57 317.6 264.84 316.95 265.08L315.15 265.78L313.89 266.28C313.74 266.35 313.6 266.33 313.58 266.52C313.565 266.609 313.565 266.701 313.58 266.79L313.61 266.86Z" fill="black"/>
<path d="M302.5 287.85C302.5 287.85 301.12 287.66 295.96 289.04C290.8 290.42 278.65 293.2 278.65 293.2C278.65 293.2 264.37 286.33 263.75 285.58C263.13 284.83 263.48 283.32 263.65 282.48C263.82 281.64 264.1 279.8 264.29 279.28C264.62 278.37 263.29 278.61 262.48 279.46C261.67 280.31 261.34 281.97 260.94 282.26C260.54 282.55 257.54 279.08 256.08 277.42C254.62 275.76 253.94 274.58 252.97 275.27C252.26 275.77 252.71 276.76 253.76 278.19C254.25 278.79 254.701 279.422 255.11 280.08C255.23 280.33 254.85 280.54 254.69 280.68C254.53 280.82 253.91 281.34 253.87 281.74C253.89 281.956 253.89 282.174 253.87 282.39C253.74 282.86 253.15 283.08 252.98 283.55C252.81 284.02 252.98 284.26 252.93 284.62C252.88 284.98 252.76 285.05 252.72 285.27C252.706 285.497 252.741 285.724 252.822 285.936C252.903 286.148 253.028 286.34 253.19 286.5C254.19 287.72 255.61 288.19 256.95 288.93C258.07 289.55 259.22 289.82 260.51 290.39C261.8 290.96 276.68 301.57 279.36 301.33C282.36 301.07 300.86 297.76 300.86 297.76C305.67 294.46 302.5 287.85 302.5 287.85Z" fill="#FFC1A7"/>
</svg>
