<?xml version="1.0" encoding="UTF-8"?>
<svg version="1.1" xmlns="http://www.w3.org/2000/svg" width="3072" height="3072">
<path d="M0 0 C2.875 1.75 2.875 1.75 4.75 3.6875 C7.30831893 6.17057426 9.92073792 7.3189368 13.16796875 8.72265625 C14.875 9.75 14.875 9.75 15.875 12.75 C17.70487524 13.32271442 17.70487524 13.32271442 19.875 13.75 C21.48090715 14.56092994 23.06441006 15.41745577 24.625 16.3125 C25.42421875 16.76753906 26.2234375 17.22257813 27.046875 17.69140625 C27.95179688 18.21541016 27.95179688 18.21541016 28.875 18.75 C28.875 19.41 28.875 20.07 28.875 20.75 C29.514375 20.976875 30.15375 21.20375 30.8125 21.4375 C37.08452649 24.12551135 42.76088264 27.55931612 48.234375 31.61328125 C50.64271165 33.2819145 53.22225587 34.52067955 55.875 35.75 C55.875 36.41 55.875 37.07 55.875 37.75 C56.74125 37.9975 57.6075 38.245 58.5 38.5 C62.06428941 39.82010719 64.75636802 41.60160908 67.875 43.75 C68.865 44.08 69.855 44.41 70.875 44.75 C71.431875 45.348125 71.98875 45.94625 72.5625 46.5625 C75.22462874 49.08072989 77.8520056 50.33151272 81.16796875 51.8203125 C82.875 52.75 82.875 52.75 83.875 54.75 C86.93346226 56.34591272 90.05493035 57.77046317 93.1875 59.21484375 C95.875 60.75 95.875 60.75 96.875 63.75 C98.51732772 64.47455635 100.19124835 65.12774395 101.875 65.75 C104.24773725 67.02233737 106.55358886 68.38446403 108.875 69.75 C108.875 70.41 108.875 71.07 108.875 71.75 C109.42027344 71.85570312 109.96554687 71.96140625 110.52734375 72.0703125 C113.40955804 72.90476389 115.80572418 74.18557976 118.4375 75.625 C119.38753906 76.13804687 120.33757812 76.65109375 121.31640625 77.1796875 C123.58141032 78.56981214 125.0345488 79.88481155 126.875 81.75 C128.41045874 82.6914298 129.97521774 83.58634864 131.5625 84.4375 C132.37074219 84.87449219 133.17898438 85.31148437 134.01171875 85.76171875 C134.93404297 86.25091797 134.93404297 86.25091797 135.875 86.75 C135.875 87.41 135.875 88.07 135.875 88.75 C136.7 88.976875 137.525 89.20375 138.375 89.4375 C142.54009486 90.99941057 146.3750943 92.97850107 149.875 95.75 C149.875 96.41 149.875 97.07 149.875 97.75 C150.74125 97.9975 151.6075 98.245 152.5 98.5 C156.08560064 99.82800024 158.83827987 101.43630848 161.875 103.75 C161.875 104.41 161.875 105.07 161.875 105.75 C162.59042969 105.85441406 163.30585937 105.95882812 164.04296875 106.06640625 C167.18663677 106.82522267 169.42715773 108.01493706 172.1875 109.6875 C173.07050781 110.21214844 173.95351562 110.73679687 174.86328125 111.27734375 C175.52714844 111.76332031 176.19101563 112.24929688 176.875 112.75 C176.875 113.41 176.875 114.07 176.875 114.75 C177.720625 114.9975 178.56625 115.245 179.4375 115.5 C183.25927474 116.88973627 186.39368063 118.66120838 189.875 120.75 C189.875 121.41 189.875 122.07 189.875 122.75 C190.514375 122.976875 191.15375 123.20375 191.8125 123.4375 C196.00820261 125.23565826 199.91400556 127.48904021 203.875 129.75 C203.875 130.41 203.875 131.07 203.875 131.75 C204.535 131.9975 205.195 132.245 205.875 132.5 C211.77450164 134.95812568 216.33423318 137.20923318 220.875 141.75 C222.9413521 142.83004597 225.02795418 143.79756646 227.16796875 144.72265625 C228.875 145.75 228.875 145.75 229.875 148.75 C231.1945293 149.13435831 232.53255833 149.45548473 233.875 149.75 C235.81404966 150.72764934 237.72990842 151.75215114 239.625 152.8125 C241.10226562 153.63427734 241.10226562 153.63427734 242.609375 154.47265625 C243.35703125 154.89417969 244.1046875 155.31570313 244.875 155.75 C244.875 156.41 244.875 157.07 244.875 157.75 C245.720625 157.9975 246.56625 158.245 247.4375 158.5 C251.25927474 159.88973627 254.39368063 161.66120838 257.875 163.75 C257.875 164.41 257.875 165.07 257.875 165.75 C258.8340625 166.0903125 258.8340625 166.0903125 259.8125 166.4375 C271.14772727 171.29545455 271.14772727 171.29545455 272.875 174.75 C275.83390595 176.31674294 278.85921644 177.7048973 281.89453125 179.1171875 C284.82692736 180.723664 286.57364418 182.36863794 288.875 184.75 C291.20537643 186.25707785 291.20537643 186.25707785 293.625 187.5 C294.42421875 187.92796875 295.2234375 188.3559375 296.046875 188.796875 C296.65015625 189.11140625 297.2534375 189.4259375 297.875 189.75 C297.875 190.41 297.875 191.07 297.875 191.75 C298.43703125 191.86214844 298.9990625 191.97429687 299.578125 192.08984375 C302.19013108 192.84057339 304.26971322 193.96167376 306.625 195.3125 C307.42421875 195.76753906 308.2234375 196.22257813 309.046875 196.69140625 C309.65015625 197.04074219 310.2534375 197.39007812 310.875 197.75 C310.875 198.41 310.875 199.07 310.875 199.75 C311.679375 199.976875 312.48375 200.20375 313.3125 200.4375 C318.22358723 202.24684793 323.62929438 204.48071742 327.36328125 208.25390625 C329.19514714 210.06683813 331.09215083 211.06291843 333.375 212.25 C337.55622271 214.42423581 337.55622271 214.42423581 339.30078125 216.20703125 C341.46417558 218.32747978 343.89167122 219.52353182 346.5625 220.9375 C348.05330078 221.73220703 348.05330078 221.73220703 349.57421875 222.54296875 C350.71310547 223.14044922 350.71310547 223.14044922 351.875 223.75 C351.875 224.41 351.875 225.07 351.875 225.75 C352.535 225.9975 353.195 226.245 353.875 226.5 C356.33254602 227.52397751 358.72802166 228.59462195 361.125 229.75 C361.81078125 230.08 362.4965625 230.41 363.203125 230.75 C364.875 231.75 364.875 231.75 365.875 233.75 C368.93346226 235.34591272 372.05493035 236.77046317 375.1875 238.21484375 C377.875 239.75 377.875 239.75 378.875 242.75 C380.86554876 243.44437747 382.86755385 244.10610218 384.875 244.75 C388.25 246.75 388.25 246.75 390.875 248.75 C390.875 249.41 390.875 250.07 390.875 250.75 C391.42027344 250.85570312 391.96554687 250.96140625 392.52734375 251.0703125 C395.40955804 251.90476389 397.80572418 253.18557976 400.4375 254.625 C401.38753906 255.13804687 402.33757813 255.65109375 403.31640625 256.1796875 C405.58141032 257.56981214 407.0345488 258.88481155 408.875 260.75 C410.41045874 261.6914298 411.97521774 262.58634864 413.5625 263.4375 C414.37074219 263.87449219 415.17898438 264.31148437 416.01171875 264.76171875 C416.62660156 265.08785156 417.24148438 265.41398437 417.875 265.75 C417.875 266.41 417.875 267.07 417.875 267.75 C418.7 267.976875 419.525 268.20375 420.375 268.4375 C424.54009486 269.99941057 428.3750943 271.97850107 431.875 274.75 C431.875 275.41 431.875 276.07 431.875 276.75 C432.75671875 277.01296875 433.6384375 277.2759375 434.546875 277.546875 C437.79407865 278.72074674 440.25925518 280.0952235 443.125 282 C447.68890502 284.99877984 452.32552874 287.79267961 457.07421875 290.48828125 C457.66847656 290.90464844 458.26273438 291.32101562 458.875 291.75 C458.875 292.41 458.875 293.07 458.875 293.75 C459.44347656 293.86730469 460.01195312 293.98460937 460.59765625 294.10546875 C466.77160275 295.8528121 471.93802554 299.80042043 476.875 303.75 C479.8324846 305.4973763 482.84207087 307.13772395 485.875 308.75 C485.875 309.41 485.875 310.07 485.875 310.75 C486.535 310.9975 487.195 311.245 487.875 311.5 C490.31962067 312.51859194 492.72836508 313.56246095 495.125 314.6875 C495.81078125 315.00589844 496.4965625 315.32429688 497.203125 315.65234375 C498.875 316.75 498.875 316.75 499.875 319.75 C501.8662539 320.44235277 503.86835925 321.10359661 505.875 321.75 C508.24657118 323.16041776 510.52874594 324.58742301 512.8125 326.125 C513.98708226 326.90545333 515.16286385 327.6841047 516.33984375 328.4609375 C517.20391846 329.03279785 517.20391846 329.03279785 518.08544922 329.61621094 C519.9392225 330.79068885 521.83184602 331.85567874 523.75390625 332.9140625 C526.875 334.75 526.875 334.75 527.875 336.75 C529.61938791 337.80490237 529.61938791 337.80490237 531.6875 338.75 C532.37457031 339.08 533.06164063 339.41 533.76953125 339.75 C534.46433594 340.08 535.15914062 340.41 535.875 340.75 C537.20971359 341.41389899 538.54346683 342.0797451 539.875 342.75 C539.875 343.41 539.875 344.07 539.875 344.75 C540.8340625 345.0903125 540.8340625 345.0903125 541.8125 345.4375 C546.00820261 347.23565826 549.91400556 349.48904021 553.875 351.75 C553.875 352.41 553.875 353.07 553.875 353.75 C554.535 353.9975 555.195 354.245 555.875 354.5 C561.77435174 356.95806323 566.33553144 359.21053144 570.875 363.75 C573.81176534 365.53871048 576.82648943 367.1606056 579.875 368.75 C579.875 369.41 579.875 370.07 579.875 370.75 C580.43703125 370.86214844 580.9990625 370.97429687 581.578125 371.08984375 C584.19013108 371.84057339 586.26971322 372.96167376 588.625 374.3125 C589.42421875 374.76753906 590.2234375 375.22257812 591.046875 375.69140625 C591.65015625 376.04074219 592.2534375 376.39007812 592.875 376.75 C592.875 377.41 592.875 378.07 592.875 378.75 C593.679375 378.976875 594.48375 379.20375 595.3125 379.4375 C600.21761696 381.24464835 605.63039352 383.47578129 609.35546875 387.25 C611.81438091 389.67730661 614.87007298 390.9853049 617.9140625 392.56640625 C619.875 393.75 619.875 393.75 620.875 395.75 C622.5867096 396.76960978 622.5867096 396.76960978 624.625 397.6875 C630.99199779 400.76793598 630.99199779 400.76793598 633.875 402.75 C633.875 403.41 633.875 404.07 633.875 404.75 C634.8340625 405.0903125 634.8340625 405.0903125 635.8125 405.4375 C640.00820261 407.23565826 643.91400556 409.48904021 647.875 411.75 C647.875 412.41 647.875 413.07 647.875 413.75 C648.43703125 413.86214844 648.9990625 413.97429687 649.578125 414.08984375 C652.19013108 414.84057339 654.26971322 415.96167376 656.625 417.3125 C657.42421875 417.76753906 658.2234375 418.22257812 659.046875 418.69140625 C659.65015625 419.04074219 660.2534375 419.39007812 660.875 419.75 C660.875 420.41 660.875 421.07 660.875 421.75 C662.12796875 422.09224609 662.12796875 422.09224609 663.40625 422.44140625 C667.53776258 424.00002867 670.77647907 426.16853535 674.375 428.6875 C677.90294479 431.13567987 681.30243252 433.46576114 685.15625 435.37890625 C687.70312025 436.66331927 688.92564793 437.75950066 690.875 439.75 C692.74284066 440.86097324 694.64179272 441.92065497 696.5625 442.9375 C697.55636719 443.46730469 698.55023437 443.99710938 699.57421875 444.54296875 C700.71310547 445.14044922 700.71310547 445.14044922 701.875 445.75 C701.875 446.41 701.875 447.07 701.875 447.75 C702.8959375 448.12125 702.8959375 448.12125 703.9375 448.5 C707.44365083 449.99197908 710.59120368 451.81835511 713.875 453.75 C713.875 454.41 713.875 455.07 713.875 455.75 C714.679375 455.976875 715.48375 456.20375 716.3125 456.4375 C720.78785739 458.08631588 724.76221318 460.35544412 728.875 462.75 C728.875 463.41 728.875 464.07 728.875 464.75 C729.74125 464.9975 730.6075 465.245 731.5 465.5 C735.08560064 466.82800024 737.83827987 468.43630848 740.875 470.75 C740.875 471.41 740.875 472.07 740.875 472.75 C741.42027344 472.85570312 741.96554687 472.96140625 742.52734375 473.0703125 C745.40955804 473.90476389 747.80572418 475.18557976 750.4375 476.625 C751.38753906 477.13804687 752.33757812 477.65109375 753.31640625 478.1796875 C755.58397258 479.5713847 757.03702917 480.87762865 758.875 482.75 C760.45404792 483.76917895 762.06113794 484.74565899 763.6875 485.6875 C767.50512502 487.92827991 771.19143641 490.29429094 774.875 492.75 C777.19063393 494.11768603 779.5282275 495.4358074 781.875 496.75 C781.875 497.41 781.875 498.07 781.875 498.75 C782.720625 498.9975 783.56625 499.245 784.4375 499.5 C788.25927474 500.88973627 791.39368063 502.66120838 794.875 504.75 C794.875 505.41 794.875 506.07 794.875 506.75 C795.8340625 507.0903125 795.8340625 507.0903125 796.8125 507.4375 C808.14772727 512.29545455 808.14772727 512.29545455 809.875 515.75 C811.61938791 516.80490237 811.61938791 516.80490237 813.6875 517.75 C814.37457031 518.08 815.06164063 518.41 815.76953125 518.75 C817.15666466 519.40882403 818.54987359 520.05502761 819.94921875 520.6875 C821.875 521.75 821.875 521.75 823.26953125 523.17578125 C825.44692802 525.3107956 827.87336977 526.51384282 830.5625 527.9375 C832.05330078 528.73220703 832.05330078 528.73220703 833.57421875 529.54296875 C834.71310547 530.14044922 834.71310547 530.14044922 835.875 530.75 C835.875 531.41 835.875 532.07 835.875 532.75 C836.535 532.9975 837.195 533.245 837.875 533.5 C847.79391892 537.63288288 847.79391892 537.63288288 850.75 540.6875 C854.19095089 544.02724646 858.56007537 545.74076029 862.875 547.75 C862.875 548.41 862.875 549.07 862.875 549.75 C863.514375 549.976875 864.15375 550.20375 864.8125 550.4375 C876.14772727 555.29545455 876.14772727 555.29545455 877.875 558.75 C879.98515954 559.87706706 879.98515954 559.87706706 882.4375 560.875 C883.26378906 561.22820313 884.09007813 561.58140625 884.94140625 561.9453125 C885.57949219 562.21085937 886.21757812 562.47640625 886.875 562.75 C886.89815593 601.32191356 886.91564217 639.89382603 886.92606533 678.4657452 C886.92731525 683.07416868 886.92860965 687.68259216 886.92993164 692.29101562 C886.93019395 693.20803459 886.93045626 694.12505355 886.93072652 695.06986097 C886.93448796 707.89843966 886.94064089 720.72701522 886.94874077 733.55559188 C886.97604034 776.98292492 886.97249615 820.41001572 886.89507473 863.83729982 C886.87869699 873.2073759 886.87187202 882.57741756 886.87030029 891.94750977 C886.86793631 901.46991842 886.84594155 910.99195304 886.78869122 920.5141995 C886.7620038 924.95871744 886.74370018 929.40273979 886.75160408 933.84734344 C886.75824154 937.76235803 886.73820076 941.67617766 886.69404721 945.59094143 C886.67815635 947.60408922 886.69126102 949.61740263 886.70563316 951.63056183 C886.65310972 954.78968568 886.56918026 957.66852135 885.875 960.75 C882.48315738 964.02250005 879.52771531 965.20262173 874.875 965.75 C874.545 966.74 874.215 967.73 873.875 968.75 C871.00390625 970.35546875 871.00390625 970.35546875 867.4375 971.9375 C866.26316406 972.46730469 865.08882812 972.99710938 863.87890625 973.54296875 C860.875 974.75 860.875 974.75 858.875 974.75 C858.545 975.74 858.215 976.73 857.875 977.75 C855.43359375 979.1796875 855.43359375 979.1796875 852.3125 980.625 C847.88526846 982.74145826 843.74210927 984.98947109 839.625 987.6484375 C833.10904255 991.75 833.10904255 991.75 829.875 991.75 C829.875 992.41 829.875 993.07 829.875 993.75 C827.91914675 994.75484204 825.96023763 995.75373805 824 996.75 C822.90945313 997.306875 821.81890625 997.86375 820.6953125 998.4375 C817.875 999.75 817.875 999.75 815.875 999.75 C815.875 1000.41 815.875 1001.07 815.875 1001.75 C813.58570947 1002.92154293 811.29381638 1004.08738074 809 1005.25 C808.34902344 1005.58386719 807.69804687 1005.91773438 807.02734375 1006.26171875 C802.1015625 1008.75 802.1015625 1008.75 799.875 1008.75 C799.875 1009.41 799.875 1010.07 799.875 1010.75 C799.02035156 1011.15992188 798.16570312 1011.56984375 797.28515625 1011.9921875 C796.18042969 1012.53101563 795.07570313 1013.06984375 793.9375 1013.625 C792.83535156 1014.15867187 791.73320312 1014.69234375 790.59765625 1015.2421875 C787.78095489 1016.46659845 787.78095489 1016.46659845 786.875 1018.75 C783.75741941 1020.29390924 780.60839814 1021.70309668 777.421875 1023.09570312 C773.98698553 1024.63605726 771.45088636 1026.0346782 768.875 1028.75 C767.05362622 1029.71075437 765.19497616 1030.60279353 763.3125 1031.4375 C761.85650391 1032.09298828 761.85650391 1032.09298828 760.37109375 1032.76171875 C757.875 1033.75 757.875 1033.75 755.875 1033.75 C755.545 1034.74 755.215 1035.73 754.875 1036.75 C752.00390625 1038.35546875 752.00390625 1038.35546875 748.4375 1039.9375 C747.26316406 1040.46730469 746.08882812 1040.99710938 744.87890625 1041.54296875 C741.875 1042.75 741.875 1042.75 739.875 1042.75 C739.545 1043.74 739.215 1044.73 738.875 1045.75 C736.43359375 1047.1796875 736.43359375 1047.1796875 733.3125 1048.625 C728.88526846 1050.74145826 724.74210927 1052.98947109 720.625 1055.6484375 C714.10904255 1059.75 714.10904255 1059.75 710.875 1059.75 C710.875 1060.41 710.875 1061.07 710.875 1061.75 C708.91914675 1062.75484204 706.96023763 1063.75373805 705 1064.75 C703.90945313 1065.306875 702.81890625 1065.86375 701.6953125 1066.4375 C698.875 1067.75 698.875 1067.75 696.875 1067.75 C696.875 1068.41 696.875 1069.07 696.875 1069.75 C694.77483377 1070.92441535 692.67041245 1072.08964012 690.5625 1073.25 C689.96759766 1073.58386719 689.37269531 1073.91773438 688.75976562 1074.26171875 C685.91671156 1075.81825114 684.16839012 1076.75 680.875 1076.75 C680.875 1077.41 680.875 1078.07 680.875 1078.75 C678.77483377 1079.92441535 676.67041245 1081.08964012 674.5625 1082.25 C673.96759766 1082.58386719 673.37269531 1082.91773438 672.75976562 1083.26171875 C669.91671156 1084.81825114 668.16839012 1085.75 664.875 1085.75 C664.875 1086.41 664.875 1087.07 664.875 1087.75 C664.04355469 1088.14832031 663.21210938 1088.54664063 662.35546875 1088.95703125 C661.26878906 1089.48683594 660.18210937 1090.01664063 659.0625 1090.5625 C657.98355469 1091.08457031 656.90460937 1091.60664062 655.79296875 1092.14453125 C652.95440697 1093.52341922 652.95440697 1093.52341922 651.39453125 1095.26171875 C648.30488729 1098.28782247 643.8276476 1099.5542605 639.90625 1101.25 C637.17468029 1102.6017046 635.90775076 1103.60996517 633.875 1105.75 C632.24097629 1106.70407634 630.57042213 1107.59735778 628.875 1108.4375 C628.00875 1108.87449219 627.1425 1109.31148437 626.25 1109.76171875 C623.875 1110.75 623.875 1110.75 620.875 1110.75 C620.545 1111.74 620.215 1112.73 619.875 1113.75 C617.2578125 1115.35546875 617.2578125 1115.35546875 614 1116.9375 C612.93007812 1117.46730469 611.86015625 1117.99710938 610.7578125 1118.54296875 C607.875 1119.75 607.875 1119.75 604.875 1119.75 C604.545 1120.74 604.215 1121.73 603.875 1122.75 C601.66015625 1124.13671875 601.66015625 1124.13671875 598.9375 1125.4375 C597.59365234 1126.09298828 597.59365234 1126.09298828 596.22265625 1126.76171875 C593.875 1127.75 593.875 1127.75 591.875 1127.75 C591.875 1128.41 591.875 1129.07 591.875 1129.75 C589.58570947 1130.92154293 587.29381638 1132.08738074 585 1133.25 C584.34902344 1133.58386719 583.69804688 1133.91773438 583.02734375 1134.26171875 C578.1015625 1136.75 578.1015625 1136.75 575.875 1136.75 C575.875 1137.41 575.875 1138.07 575.875 1138.75 C574.1085343 1139.7576952 572.33666177 1140.75591714 570.5625 1141.75 C569.57636719 1142.306875 568.59023437 1142.86375 567.57421875 1143.4375 C564.875 1144.75 564.875 1144.75 561.875 1144.75 C561.875 1145.41 561.875 1146.07 561.875 1146.75 C559.77483377 1147.92441535 557.67041245 1149.08964012 555.5625 1150.25 C554.96759766 1150.58386719 554.37269531 1150.91773438 553.75976562 1151.26171875 C550.91671156 1152.81825114 549.16839012 1153.75 545.875 1153.75 C545.875 1154.41 545.875 1155.07 545.875 1155.75 C545.04355469 1156.14832031 544.21210937 1156.54664063 543.35546875 1156.95703125 C542.26878906 1157.48683594 541.18210937 1158.01664063 540.0625 1158.5625 C538.98355469 1159.08457031 537.90460937 1159.60664062 536.79296875 1160.14453125 C533.95440697 1161.52341922 533.95440697 1161.52341922 532.39453125 1163.26171875 C529.30488729 1166.28782247 524.8276476 1167.5542605 520.90625 1169.25 C518.17468029 1170.6017046 516.90775076 1171.60996517 514.875 1173.75 C513.24097629 1174.70407634 511.57042213 1175.59735778 509.875 1176.4375 C509.00875 1176.87449219 508.1425 1177.31148437 507.25 1177.76171875 C504.875 1178.75 504.875 1178.75 501.875 1178.75 C501.545 1179.74 501.215 1180.73 500.875 1181.75 C498.2578125 1183.35546875 498.2578125 1183.35546875 495 1184.9375 C493.93007812 1185.46730469 492.86015625 1185.99710938 491.7578125 1186.54296875 C488.875 1187.75 488.875 1187.75 485.875 1187.75 C485.545 1188.74 485.215 1189.73 484.875 1190.75 C482.66015625 1192.13671875 482.66015625 1192.13671875 479.9375 1193.4375 C478.59365234 1194.09298828 478.59365234 1194.09298828 477.22265625 1194.76171875 C474.875 1195.75 474.875 1195.75 472.875 1195.75 C472.875 1196.41 472.875 1197.07 472.875 1197.75 C470.58570947 1198.92154293 468.29381638 1200.08738074 466 1201.25 C465.34902344 1201.58386719 464.69804688 1201.91773438 464.02734375 1202.26171875 C459.1015625 1204.75 459.1015625 1204.75 456.875 1204.75 C456.875 1205.41 456.875 1206.07 456.875 1206.75 C454.58570947 1207.92154293 452.29381638 1209.08738074 450 1210.25 C449.34902344 1210.58386719 448.69804688 1210.91773438 448.02734375 1211.26171875 C443.1015625 1213.75 443.1015625 1213.75 440.875 1213.75 C440.875 1214.41 440.875 1215.07 440.875 1215.75 C439.08618264 1216.75508801 437.29385304 1217.75392736 435.5 1218.75 C434.50226562 1219.306875 433.50453125 1219.86375 432.4765625 1220.4375 C429.875 1221.75 429.875 1221.75 427.875 1221.75 C427.875 1222.41 427.875 1223.07 427.875 1223.75 C425.58570947 1224.92154293 423.29381638 1226.08738074 421 1227.25 C420.34902344 1227.58386719 419.69804688 1227.91773438 419.02734375 1228.26171875 C414.1015625 1230.75 414.1015625 1230.75 411.875 1230.75 C411.875 1231.41 411.875 1232.07 411.875 1232.75 C410.97136719 1233.14832031 410.06773437 1233.54664063 409.13671875 1233.95703125 C407.95722656 1234.48683594 406.77773437 1235.01664063 405.5625 1235.5625 C404.39074219 1236.08457031 403.21898437 1236.60664062 402.01171875 1237.14453125 C398.97309008 1238.49707082 398.97309008 1238.49707082 397.36328125 1240.26171875 C394.31666873 1243.30833127 389.81036954 1244.56173209 385.90625 1246.25 C383.16142724 1247.60826281 381.93727721 1248.62657711 379.875 1250.75 C378.00756791 1251.76256318 376.10724669 1252.71551693 374.1875 1253.625 C369.81679278 1255.74972257 365.7032165 1258.01458935 361.625 1260.6484375 C355.10904255 1264.75 355.10904255 1264.75 351.875 1264.75 C351.545 1265.74 351.215 1266.73 350.875 1267.75 C348.44140625 1269.13671875 348.44140625 1269.13671875 345.4375 1270.4375 C344.44878906 1270.87449219 343.46007813 1271.31148437 342.44140625 1271.76171875 C339.875 1272.75 339.875 1272.75 337.875 1272.75 C337.875 1273.41 337.875 1274.07 337.875 1274.75 C335.58570947 1275.92154293 333.29381638 1277.08738074 331 1278.25 C330.34902344 1278.58386719 329.69804688 1278.91773438 329.02734375 1279.26171875 C324.1015625 1281.75 324.1015625 1281.75 321.875 1281.75 C321.875 1282.41 321.875 1283.07 321.875 1283.75 C320.08618264 1284.75508801 318.29385304 1285.75392736 316.5 1286.75 C315.50226562 1287.306875 314.50453125 1287.86375 313.4765625 1288.4375 C310.875 1289.75 310.875 1289.75 308.875 1289.75 C308.875 1290.41 308.875 1291.07 308.875 1291.75 C306.58570947 1292.92154293 304.29381638 1294.08738074 302 1295.25 C301.34902344 1295.58386719 300.69804688 1295.91773438 300.02734375 1296.26171875 C295.1015625 1298.75 295.1015625 1298.75 292.875 1298.75 C292.875 1299.41 292.875 1300.07 292.875 1300.75 C291.97136719 1301.14832031 291.06773437 1301.54664063 290.13671875 1301.95703125 C288.95722656 1302.48683594 287.77773437 1303.01664063 286.5625 1303.5625 C285.39074219 1304.08457031 284.21898437 1304.60664062 283.01171875 1305.14453125 C279.97309008 1306.49707082 279.97309008 1306.49707082 278.36328125 1308.26171875 C275.31666873 1311.30833127 270.81036954 1312.56173209 266.90625 1314.25 C264.16285574 1315.60755592 262.93624073 1316.62747914 260.875 1318.75 C259.02738894 1319.74038611 257.14794927 1320.67237651 255.25 1321.5625 C251.29433518 1323.47591567 247.65501405 1325.47101851 244.0625 1328 C241.34493425 1329.90576104 239.10128008 1331.14565438 235.875 1331.9375 C234.885 1332.205625 233.895 1332.47375 232.875 1332.75 C232.545 1333.74 232.215 1334.73 231.875 1335.75 C229.63487385 1337.04012501 227.46159675 1338.16684078 225.125 1339.25 C220.92294747 1341.24641085 216.82738002 1343.28485576 212.875 1345.75 C206.31981605 1349.75 206.31981605 1349.75 202.875 1349.75 C202.875 1350.41 202.875 1351.07 202.875 1351.75 C200.77483377 1352.92441535 198.67041245 1354.08964012 196.5625 1355.25 C195.96759766 1355.58386719 195.37269531 1355.91773438 194.75976562 1356.26171875 C191.91671156 1357.81825114 190.16839012 1358.75 186.875 1358.75 C186.875 1359.41 186.875 1360.07 186.875 1360.75 C185.08618264 1361.75508801 183.29385304 1362.75392736 181.5 1363.75 C180.50226562 1364.306875 179.50453125 1364.86375 178.4765625 1365.4375 C175.875 1366.75 175.875 1366.75 173.875 1366.75 C173.875 1367.41 173.875 1368.07 173.875 1368.75 C171.58570947 1369.92154293 169.29381638 1371.08738074 167 1372.25 C166.34902344 1372.58386719 165.69804688 1372.91773438 165.02734375 1373.26171875 C160.1015625 1375.75 160.1015625 1375.75 157.875 1375.75 C157.875 1376.41 157.875 1377.07 157.875 1377.75 C156.97136719 1378.14832031 156.06773437 1378.54664063 155.13671875 1378.95703125 C153.95722656 1379.48683594 152.77773437 1380.01664063 151.5625 1380.5625 C150.39074219 1381.08457031 149.21898437 1381.60664062 148.01171875 1382.14453125 C145.23435031 1383.5660735 143.97284047 1384.59606754 141.875 1386.75 C139.88617529 1387.87127155 137.86102241 1388.92941789 135.8125 1389.9375 C134.74902344 1390.46730469 133.68554688 1390.99710938 132.58984375 1391.54296875 C129.875 1392.75 129.875 1392.75 127.875 1392.75 C127.875 1393.41 127.875 1394.07 127.875 1394.75 C125.91914675 1395.75484204 123.96023763 1396.75373805 122 1397.75 C120.90945313 1398.306875 119.81890625 1398.86375 118.6953125 1399.4375 C115.875 1400.75 115.875 1400.75 113.875 1400.75 C113.545 1401.74 113.215 1402.73 112.875 1403.75 C111.16796875 1404.91796875 111.16796875 1404.91796875 109.0625 1405.9375 C108.03189453 1406.45376953 108.03189453 1406.45376953 106.98046875 1406.98046875 C104.875 1407.75 104.875 1407.75 100.875 1407.75 C100.875 1288.29 100.875 1168.83 100.875 1045.75 C101.865 1045.42 102.855 1045.09 103.875 1044.75 C103.875 1044.09 103.875 1043.43 103.875 1042.75 C104.80183594 1042.26789063 105.72867187 1041.78578125 106.68359375 1041.2890625 C107.89338743 1040.6513418 109.10301426 1040.01330452 110.3125 1039.375 C110.92416016 1039.05789063 111.53582031 1038.74078125 112.16601562 1038.4140625 C115.62738344 1036.72695701 115.62738344 1036.72695701 117.875 1033.75 C121.48541988 1031.544111 125.2779238 1029.93455083 129.3125 1028.6875 C130.158125 1028.378125 131.00375 1028.06875 131.875 1027.75 C132.205 1026.76 132.535 1025.77 132.875 1024.75 C134.6171875 1023.65234375 134.6171875 1023.65234375 136.75 1022.6875 C139.33726374 1021.49888621 141.48210987 1020.34526008 143.875 1018.75 C144.865 1018.75 145.855 1018.75 146.875 1018.75 C147.205 1017.76 147.535 1016.77 147.875 1015.75 C149.87109375 1014.36328125 149.87109375 1014.36328125 152.3125 1013.0625 C153.51712891 1012.40701172 153.51712891 1012.40701172 154.74609375 1011.73828125 C156.875 1010.75 156.875 1010.75 158.875 1010.75 C158.875 1010.09 158.875 1009.43 158.875 1008.75 C160.99732979 1007.57823482 163.12257791 1006.41245215 165.25 1005.25 C166.15492188 1004.74919922 166.15492188 1004.74919922 167.078125 1004.23828125 C171.6484375 1001.75 171.6484375 1001.75 173.875 1001.75 C173.875 1001.09 173.875 1000.43 173.875 999.75 C174.65746094 999.34007812 175.43992187 998.93015625 176.24609375 998.5078125 C177.25800781 997.96898437 178.26992187 997.43015625 179.3125 996.875 C180.32183594 996.34132813 181.33117188 995.80765625 182.37109375 995.2578125 C184.97640442 993.99345886 184.97640442 993.99345886 185.875 991.75 C188.17119759 990.46691614 190.45185205 989.27607908 192.8125 988.125 C193.45896484 987.80015625 194.10542969 987.4753125 194.77148438 987.140625 C199.60797991 984.75 199.60797991 984.75 201.875 984.75 C202.205 983.76 202.535 982.77 202.875 981.75 C204.8359375 980.36328125 204.8359375 980.36328125 207.25 979.0625 C208.43722656 978.40701172 208.43722656 978.40701172 209.6484375 977.73828125 C211.875 976.75 211.875 976.75 214.875 976.75 C214.875 976.09 214.875 975.43 214.875 974.75 C224.28502278 969.37870159 224.28502278 969.37870159 228.875 967.75 C228.875 967.09 228.875 966.43 228.875 965.75 C230.12216797 965.15251953 230.12216797 965.15251953 231.39453125 964.54296875 C232.48121094 964.01316406 233.56789063 963.48335937 234.6875 962.9375 C236.30591797 962.15439453 236.30591797 962.15439453 237.95703125 961.35546875 C240.52740773 959.94124555 241.88198012 958.79630918 243.875 956.75 C245.69881237 955.63620077 247.55656233 954.57685387 249.4375 953.5625 C250.40816406 953.03269531 251.37882812 952.50289062 252.37890625 951.95703125 C254.875 950.75 254.875 950.75 256.875 950.75 C256.875 950.09 256.875 949.43 256.875 948.75 C257.80183594 948.26789062 258.72867188 947.78578125 259.68359375 947.2890625 C260.89338743 946.6513418 262.10301426 946.01330452 263.3125 945.375 C264.22999023 944.89933594 264.22999023 944.89933594 265.16601562 944.4140625 C268.62738344 942.72695701 268.62738344 942.72695701 270.875 939.75 C274.48541988 937.544111 278.2779238 935.93455083 282.3125 934.6875 C283.158125 934.378125 284.00375 934.06875 284.875 933.75 C285.205 932.76 285.535 931.77 285.875 930.75 C288.2734375 929.14453125 288.2734375 929.14453125 291.25 927.5625 C292.22710938 927.03269531 293.20421875 926.50289062 294.2109375 925.95703125 C296.875 924.75 296.875 924.75 299.875 924.75 C300.205 923.76 300.535 922.77 300.875 921.75 C303.01953125 920.50390625 303.01953125 920.50390625 305.6875 919.3125 C308.57755223 918.0190202 310.61994317 917.00807525 312.85546875 914.74609375 C315.85173151 911.78460387 319.36294457 910.66149507 323.21875 909.09375 C326.05658951 907.65813707 327.6825993 906.02293787 329.875 903.75 C331.9453125 902.484375 331.9453125 902.484375 334 901.5 C334.68320313 901.16484375 335.36640625 900.8296875 336.0703125 900.484375 C337.875 899.75 337.875 899.75 339.875 899.75 C340.205 898.76 340.535 897.77 340.875 896.75 C343.52734375 895.14453125 343.52734375 895.14453125 346.8125 893.5625 C347.89402344 893.03269531 348.97554687 892.50289062 350.08984375 891.95703125 C352.875 890.75 352.875 890.75 354.875 890.75 C355.205 889.76 355.535 888.77 355.875 887.75 C357.8359375 886.36328125 357.8359375 886.36328125 360.25 885.0625 C361.43722656 884.40701172 361.43722656 884.40701172 362.6484375 883.73828125 C364.875 882.75 364.875 882.75 367.875 882.75 C367.875 882.09 367.875 881.43 367.875 880.75 C377.28502278 875.37870159 377.28502278 875.37870159 381.875 873.75 C381.875 873.09 381.875 872.43 381.875 871.75 C383.12216797 871.15251953 383.12216797 871.15251953 384.39453125 870.54296875 C385.48121094 870.01316406 386.56789063 869.48335937 387.6875 868.9375 C389.30591797 868.15439453 389.30591797 868.15439453 390.95703125 867.35546875 C393.52721865 865.94134958 394.8749189 864.78741595 396.875 862.75 C399.69854558 861.12294221 402.58056181 859.6459504 405.4765625 858.15234375 C407.98963732 856.97606038 407.98963732 856.97606038 408.875 854.75 C410.8193342 853.64467894 412.80590098 852.61279072 414.8125 851.625 C415.89402344 851.08617187 416.97554687 850.54734375 418.08984375 849.9921875 C420.875 848.75 420.875 848.75 422.875 848.75 C423.205 847.76 423.535 846.77 423.875 845.75 C426.01953125 844.3984375 426.01953125 844.3984375 428.6875 843.125 C429.99654297 842.48691406 429.99654297 842.48691406 431.33203125 841.8359375 C433.875 840.75 433.875 840.75 436.13671875 840.2890625 C436.71035156 840.11117187 437.28398438 839.93328125 437.875 839.75 C438.205 838.76 438.535 837.77 438.875 836.75 C441.0546875 835.46875 441.0546875 835.46875 443.75 834.25 C447.32174891 832.67965666 447.32174891 832.67965666 450.32421875 830.27734375 C453.2502048 827.39557915 457.27768473 826.06102011 460.96484375 824.34765625 C463.90424141 822.91040306 463.90424141 822.91040306 465.91015625 820.71484375 C468.86893772 817.75606228 472.39070432 816.65020813 476.21875 815.09375 C479.05658951 813.65813707 480.6825993 812.02293787 482.875 809.75 C484.9453125 808.484375 484.9453125 808.484375 487 807.5 C487.68320313 807.16484375 488.36640625 806.8296875 489.0703125 806.484375 C490.875 805.75 490.875 805.75 492.875 805.75 C493.205 804.76 493.535 803.77 493.875 802.75 C496.52734375 801.14453125 496.52734375 801.14453125 499.8125 799.5625 C500.89402344 799.03269531 501.97554687 798.50289062 503.08984375 797.95703125 C505.875 796.75 505.875 796.75 507.875 796.75 C508.205 795.76 508.535 794.77 508.875 793.75 C510.87109375 792.36328125 510.87109375 792.36328125 513.3125 791.0625 C514.51712891 790.40701172 514.51712891 790.40701172 515.74609375 789.73828125 C517.875 788.75 517.875 788.75 519.875 788.75 C519.875 788.09 519.875 787.43 519.875 786.75 C521.81125098 785.76836578 523.74904539 784.78977546 525.6875 783.8125 C526.76644531 783.26722656 527.84539063 782.72195313 528.95703125 782.16015625 C531.875 780.75 531.875 780.75 534.875 779.75 C534.875 779.09 534.875 778.43 534.875 777.75 C536.66381736 776.74491199 538.45614696 775.74607264 540.25 774.75 C541.24773438 774.193125 542.24546875 773.63625 543.2734375 773.0625 C545.875 771.75 545.875 771.75 547.875 771.75 C547.875 771.09 547.875 770.43 547.875 769.75 C548.80183594 769.26789062 549.72867188 768.78578125 550.68359375 768.2890625 C551.89338743 767.6513418 553.10301426 767.01330452 554.3125 766.375 C555.22999023 765.89933594 555.22999023 765.89933594 556.16601562 765.4140625 C559.62738344 763.72695701 559.62738344 763.72695701 561.875 760.75 C563.8193342 759.64467894 565.80590098 758.61279072 567.8125 757.625 C568.89402344 757.08617187 569.97554687 756.54734375 571.08984375 755.9921875 C573.875 754.75 573.875 754.75 575.875 754.75 C574.58381056 750.87643167 573.32565228 750.67744052 569.75 748.875 C566.35282983 747.10390093 563.13758964 745.34981387 560.0625 743.0625 C556.9718545 740.68789482 556.9718545 740.68789482 553.625 739.125 C550.875 737.75 550.875 737.75 549.55859375 736.36328125 C547.33585683 734.23337325 544.90363607 733.00045439 542.1875 731.5625 C540.69669922 730.76779297 540.69669922 730.76779297 539.17578125 729.95703125 C538.03689453 729.35955078 538.03689453 729.35955078 536.875 728.75 C536.875 728.09 536.875 727.43 536.875 726.75 C536.194375 726.5025 535.51375 726.255 534.8125 726 C531.30634917 724.50802092 528.15879632 722.68164489 524.875 720.75 C524.875 720.09 524.875 719.43 524.875 718.75 C524.070625 718.523125 523.26625 718.29625 522.4375 718.0625 C517.96214261 716.41368412 513.98778682 714.14455588 509.875 711.75 C509.875 711.09 509.875 710.43 509.875 709.75 C509.194375 709.5025 508.51375 709.255 507.8125 709 C504.30634917 707.50802092 501.15879632 705.68164489 497.875 703.75 C497.875 703.09 497.875 702.43 497.875 701.75 C497.070625 701.523125 496.26625 701.29625 495.4375 701.0625 C488.92554957 698.66336037 483.76990155 695.64490155 478.875 690.75 C476.27035191 689.27824739 473.59590467 687.99157786 470.875 686.75 C470.875 686.09 470.875 685.43 470.875 684.75 C470.235625 684.523125 469.59625 684.29625 468.9375 684.0625 C464.74179739 682.26434174 460.83599444 680.01095979 456.875 677.75 C456.875 677.09 456.875 676.43 456.875 675.75 C455.63943359 675.40775391 455.63943359 675.40775391 454.37890625 675.05859375 C450.12841869 673.47117643 446.6077301 671.26823712 442.8125 668.8125 C441.42598513 667.92806572 440.03927101 667.04394371 438.65234375 666.16015625 C438.00507324 665.74266113 437.35780273 665.32516602 436.69091797 664.89501953 C435.11594975 663.90192986 433.50029823 662.97392977 431.87890625 662.05859375 C431.21761719 661.62675781 430.55632813 661.19492188 429.875 660.75 C429.875 660.09 429.875 659.43 429.875 658.75 C429.029375 658.5025 428.18375 658.255 427.3125 658 C422.17152682 656.13055521 418.07460914 653.77094395 413.9375 650.25 C410.40374398 647.36530121 407.0002426 645.67037155 402.875 643.75 C402.875 643.09 402.875 642.43 402.875 641.75 C402.235625 641.523125 401.59625 641.29625 400.9375 641.0625 C396.74179739 639.26434174 392.83599444 637.01095979 388.875 634.75 C388.875 634.09 388.875 633.43 388.875 632.75 C388.00875 632.5025 387.1425 632.255 386.25 632 C382.66439936 630.67199976 379.91172013 629.06369152 376.875 626.75 C376.875 626.09 376.875 625.43 376.875 624.75 C376.06289062 624.59724609 376.06289062 624.59724609 375.234375 624.44140625 C372.26903419 623.57242393 369.81975054 622.19527709 367.125 620.6875 C365.64773438 619.86572266 365.64773438 619.86572266 364.140625 619.02734375 C363.01914063 618.39505859 363.01914063 618.39505859 361.875 617.75 C361.875 617.09 361.875 616.43 361.875 615.75 C361.029375 615.5025 360.18375 615.255 359.3125 615 C355.49072526 613.61026373 352.35631937 611.83879162 348.875 609.75 C348.875 609.09 348.875 608.43 348.875 607.75 C348.235625 607.523125 347.59625 607.29625 346.9375 607.0625 C335.60227273 602.20454545 335.60227273 602.20454545 333.875 598.75 C330.91609405 597.18325706 327.89078356 595.7951027 324.85546875 594.3828125 C321.93103745 592.78069941 320.17351264 591.12034116 317.875 588.75 C315.81769171 587.61638115 313.73661263 586.7087305 311.58203125 585.77734375 C309.875 584.75 309.875 584.75 308.875 581.75 C307.04512476 581.17728558 307.04512476 581.17728558 304.875 580.75 C303.26909285 579.93907006 301.68558994 579.08254423 300.125 578.1875 C299.32578125 577.73246094 298.5265625 577.27742188 297.703125 576.80859375 C297.09984375 576.45925781 296.4965625 576.10992188 295.875 575.75 C295.875 575.09 295.875 574.43 295.875 573.75 C295.070625 573.523125 294.26625 573.29625 293.4375 573.0625 C288.53447601 571.25612274 283.12658224 569.0254085 279.3984375 565.2578125 C277.51405683 563.39275881 275.52000593 562.31326405 273.1875 561.0625 C272.37925781 560.62550781 271.57101562 560.18851563 270.73828125 559.73828125 C270.12339844 559.41214844 269.50851562 559.08601563 268.875 558.75 C268.875 558.09 268.875 557.43 268.875 556.75 C268.00875 556.5025 267.1425 556.255 266.25 556 C262.68571059 554.67989281 259.99363198 552.89839092 256.875 550.75 C255.885 550.42 254.895 550.09 253.875 549.75 C253.318125 549.151875 252.76125 548.55375 252.1875 547.9375 C249.52537126 545.41927011 246.8979944 544.16848728 243.58203125 542.6796875 C241.875 541.75 241.875 541.75 240.875 539.75 C237.81653774 538.15408728 234.69506965 536.72953683 231.5625 535.28515625 C228.875 533.75 228.875 533.75 227.875 530.75 C226.23044725 530.03050817 224.55576231 529.38028587 222.875 528.75 C217.78888411 526.16884381 213.07919519 523.27196626 208.50390625 519.875 C206.6717989 518.5533983 206.6717989 518.5533983 203.625 517.125 C200.875 515.75 200.875 515.75 199.46875 514.3125 C197.65547398 512.53477842 195.87384664 511.54660192 193.625 510.375 C190.69740267 508.80005669 187.97526044 507.17691872 185.3125 505.1875 C182.21615069 502.88155367 178.98684553 501.23703417 175.4765625 499.64453125 C173.875 498.75 173.875 498.75 172.875 496.75 C169.81653774 495.15408728 166.69506965 493.72953683 163.5625 492.28515625 C160.875 490.75 160.875 490.75 159.875 487.75 C158.23267228 487.02544365 156.55875165 486.37225605 154.875 485.75 C152.50226275 484.47766263 150.19641114 483.11553597 147.875 481.75 C147.875 481.09 147.875 480.43 147.875 479.75 C147.32972656 479.64429688 146.78445313 479.53859375 146.22265625 479.4296875 C143.34044196 478.59523611 140.94427582 477.31442024 138.3125 475.875 C137.36246094 475.36195313 136.41242188 474.84890625 135.43359375 474.3203125 C133.16858968 472.93018786 131.7154512 471.61518845 129.875 469.75 C128.33954126 468.8085702 126.77478226 467.91365136 125.1875 467.0625 C124.37925781 466.62550781 123.57101562 466.18851563 122.73828125 465.73828125 C122.12339844 465.41214844 121.50851562 465.08601563 120.875 464.75 C120.875 464.09 120.875 463.43 120.875 462.75 C119.6375 462.4096875 119.6375 462.4096875 118.375 462.0625 C114.20990514 460.50058943 110.3749057 458.52149893 106.875 455.75 C106.875 455.09 106.875 454.43 106.875 453.75 C106.00875 453.5025 105.1425 453.255 104.25 453 C100.66439936 451.67199976 97.91172013 450.06369152 94.875 447.75 C94.875 447.09 94.875 446.43 94.875 445.75 C94.15957031 445.64558594 93.44414063 445.54117187 92.70703125 445.43359375 C89.56336323 444.67477733 87.32284227 443.48506294 84.5625 441.8125 C83.67949219 441.28785156 82.79648438 440.76320313 81.88671875 440.22265625 C80.89091797 439.49369141 80.89091797 439.49369141 79.875 438.75 C79.875 438.09 79.875 437.43 79.875 436.75 C79.029375 436.5025 78.18375 436.255 77.3125 436 C73.49072526 434.61026373 70.35631937 432.83879162 66.875 430.75 C66.875 430.09 66.875 429.43 66.875 428.75 C66.235625 428.523125 65.59625 428.29625 64.9375 428.0625 C60.74179739 426.26434174 56.83599444 424.01095979 52.875 421.75 C52.875 421.09 52.875 420.43 52.875 419.75 C52.215 419.5025 51.555 419.255 50.875 419 C48.46028936 417.99387057 46.10546113 416.94677187 43.75 415.8125 C43.08742188 415.49410156 42.42484375 415.17570312 41.7421875 414.84765625 C39.875 413.75 39.875 413.75 38.421875 412.27734375 C35.96012699 409.84667841 32.90127576 408.57879941 29.8359375 407.03125 C27.875 405.75 27.875 405.75 26.875 402.75 C26.15957031 402.64558594 25.44414063 402.54117187 24.70703125 402.43359375 C21.56336323 401.67477733 19.32284227 400.48506294 16.5625 398.8125 C15.67949219 398.28785156 14.79648438 397.76320313 13.88671875 397.22265625 C12.89091797 396.49369141 12.89091797 396.49369141 11.875 395.75 C11.875 395.09 11.875 394.43 11.875 393.75 C11.029375 393.5025 10.18375 393.255 9.3125 393 C5.49072526 391.61026373 2.35631937 389.83879162 -1.125 387.75 C-1.125 387.09 -1.125 386.43 -1.125 385.75 C-1.764375 385.523125 -2.40375 385.29625 -3.0625 385.0625 C-14.39772727 380.20454545 -14.39772727 380.20454545 -16.125 376.75 C-18.49929296 376.49930087 -18.49929296 376.49930087 -21.125 376.75 C-21.54136719 377.18699219 -21.95773437 377.62398437 -22.38671875 378.07421875 C-25.61037075 381.18196416 -30.02810126 382.49188162 -34.09375 384.25 C-36.8264456 385.60226174 -38.08891328 386.61239095 -40.125 388.75 C-41.78100054 389.7028042 -43.47214072 390.59624133 -45.1875 391.4375 C-46.06535156 391.87449219 -46.94320313 392.31148437 -47.84765625 392.76171875 C-50.125 393.75 -50.125 393.75 -52.125 393.75 C-52.125 394.41 -52.125 395.07 -52.125 395.75 C-53.08019531 396.25789063 -54.03539062 396.76578125 -55.01953125 397.2890625 C-61.98561053 400.99671232 -68.9405813 404.7207805 -75.85546875 408.5234375 C-77.33494028 409.3230142 -78.83791609 410.08095232 -80.36328125 410.7890625 C-82.3025979 411.62930872 -82.3025979 411.62930872 -83.125 413.75 C-85.23679439 414.85905121 -87.39010471 415.889927 -89.5625 416.875 C-91.32400391 417.68324219 -91.32400391 417.68324219 -93.12109375 418.5078125 C-96.125 419.75 -96.125 419.75 -98.125 419.75 C-98.455 420.74 -98.785 421.73 -99.125 422.75 C-101.9609375 424.25 -101.9609375 424.25 -105.5 425.75 C-109.39661784 427.40887057 -112.23305567 428.68841648 -115.125 431.75 C-116.75902371 432.70407634 -118.42957787 433.59735778 -120.125 434.4375 C-120.99125 434.87449219 -121.8575 435.31148437 -122.75 435.76171875 C-125.125 436.75 -125.125 436.75 -128.125 436.75 C-128.455 437.74 -128.785 438.73 -129.125 439.75 C-131.77734375 441.35546875 -131.77734375 441.35546875 -135.0625 442.9375 C-136.14402344 443.46730469 -137.22554687 443.99710938 -138.33984375 444.54296875 C-141.125 445.75 -141.125 445.75 -143.125 445.75 C-143.125 446.41 -143.125 447.07 -143.125 447.75 C-145.08085325 448.75484204 -147.03976237 449.75373805 -149 450.75 C-150.63582031 451.5853125 -150.63582031 451.5853125 -152.3046875 452.4375 C-155.125 453.75 -155.125 453.75 -157.125 453.75 C-157.125 454.41 -157.125 455.07 -157.125 455.75 C-159.41429053 456.92154293 -161.70618362 458.08738074 -164 459.25 C-164.65097656 459.58386719 -165.30195312 459.91773438 -165.97265625 460.26171875 C-170.8984375 462.75 -170.8984375 462.75 -173.125 462.75 C-173.125 463.41 -173.125 464.07 -173.125 464.75 C-174.91381736 465.75508801 -176.70614696 466.75392736 -178.5 467.75 C-179.99660156 468.5853125 -179.99660156 468.5853125 -181.5234375 469.4375 C-184.125 470.75 -184.125 470.75 -186.125 470.75 C-186.125 471.41 -186.125 472.07 -186.125 472.75 C-188.41429053 473.92154293 -190.70618362 475.08738074 -193 476.25 C-193.65097656 476.58386719 -194.30195312 476.91773438 -194.97265625 477.26171875 C-199.8984375 479.75 -199.8984375 479.75 -202.125 479.75 C-202.125 480.41 -202.125 481.07 -202.125 481.75 C-204.08085325 482.75484204 -206.03976237 483.75373805 -208 484.75 C-209.63582031 485.5853125 -209.63582031 485.5853125 -211.3046875 486.4375 C-214.125 487.75 -214.125 487.75 -216.125 487.75 C-216.125 488.41 -216.125 489.07 -216.125 489.75 C-218.22516623 490.92441535 -220.32958755 492.08964012 -222.4375 493.25 C-223.03240234 493.58386719 -223.62730469 493.91773438 -224.24023438 494.26171875 C-227.08328844 495.81825114 -228.83160988 496.75 -232.125 496.75 C-232.125 497.41 -232.125 498.07 -232.125 498.75 C-232.97964844 499.15992188 -233.83429688 499.56984375 -234.71484375 499.9921875 C-236.37193359 500.80042969 -236.37193359 500.80042969 -238.0625 501.625 C-239.16464844 502.15867187 -240.26679687 502.69234375 -241.40234375 503.2421875 C-244.21904511 504.46659845 -244.21904511 504.46659845 -245.125 506.75 C-247.42119759 508.03308386 -249.70185205 509.22392092 -252.0625 510.375 C-252.70896484 510.69984375 -253.35542969 511.0246875 -254.02148438 511.359375 C-258.85797991 513.75 -258.85797991 513.75 -261.125 513.75 C-261.125 514.41 -261.125 515.07 -261.125 515.75 C-262.48044922 516.34748047 -262.48044922 516.34748047 -263.86328125 516.95703125 C-265.04277344 517.48683594 -266.22226563 518.01664063 -267.4375 518.5625 C-268.60925781 519.08457031 -269.78101563 519.60664062 -270.98828125 520.14453125 C-273.76564969 521.5660735 -275.02715953 522.59606754 -277.125 524.75 C-279.11382471 525.87127155 -281.13897759 526.92941789 -283.1875 527.9375 C-284.25097656 528.46730469 -285.31445312 528.99710938 -286.41015625 529.54296875 C-289.125 530.75 -289.125 530.75 -291.125 530.75 C-291.125 531.41 -291.125 532.07 -291.125 532.75 C-292.115 533.26949219 -293.105 533.78898437 -294.125 534.32421875 C-302.57304811 538.73728617 -302.57304811 538.73728617 -310.75 543.625 C-313.55270785 545.38966791 -316.08158206 546.53263283 -319.125 547.75 C-319.53105469 548.20117188 -319.93710938 548.65234375 -320.35546875 549.1171875 C-323.64536305 552.15289571 -328.02474109 553.49042858 -332.09375 555.25 C-334.78478262 556.58164501 -336.16451858 557.58032087 -338.125 559.75 C-343.45833333 562.75 -343.45833333 562.75 -347.125 562.75 C-347.155879 518.01382574 -347.09016292 473.27877721 -346.93145666 428.54289032 C-346.90251955 420.37221 -346.87499106 412.20152506 -346.84749681 404.03083978 C-346.79849081 389.47750654 -346.74847312 374.92417697 -346.69775391 360.37084961 C-346.64868971 346.29174993 -346.60014269 332.21264862 -346.55224609 318.13354492 C-346.5492591 317.25557417 -346.5462721 316.37760342 -346.54319459 315.47302749 C-346.52820246 311.06547992 -346.51322002 306.65793231 -346.49824238 302.25038469 C-346.37532872 266.08358457 -346.25074608 229.91679037 -346.125 193.75 C-344.145 192.76 -344.145 192.76 -342.125 191.75 C-342.125 191.09 -342.125 190.43 -342.125 189.75 C-339.83570947 188.57845707 -337.54381638 187.41261926 -335.25 186.25 C-334.59902344 185.91613281 -333.94804688 185.58226562 -333.27734375 185.23828125 C-328.3515625 182.75 -328.3515625 182.75 -326.125 182.75 C-326.125 182.09 -326.125 181.43 -326.125 180.75 C-325.22136719 180.35167969 -324.31773438 179.95335937 -323.38671875 179.54296875 C-322.20722656 179.01316406 -321.02773437 178.48335937 -319.8125 177.9375 C-318.64074219 177.41542969 -317.46898437 176.89335938 -316.26171875 176.35546875 C-313.22309008 175.00292918 -313.22309008 175.00292918 -311.61328125 173.23828125 C-308.56666873 170.19166873 -304.06036954 168.93826791 -300.15625 167.25 C-297.41142724 165.89173719 -296.18727721 164.87342289 -294.125 162.75 C-292.25756791 161.73743682 -290.35724669 160.78448307 -288.4375 159.875 C-284.06679278 157.75027743 -279.9532165 155.48541065 -275.875 152.8515625 C-269.35904255 148.75 -269.35904255 148.75 -266.125 148.75 C-266.125 148.09 -266.125 147.43 -266.125 146.75 C-265.2071875 146.30269531 -264.289375 145.85539063 -263.34375 145.39453125 C-256.72105885 142.14140614 -250.28519 138.83187347 -244.125 134.75 C-239.46982759 131.75 -239.46982759 131.75 -236.125 131.75 C-236.125 131.09 -236.125 130.43 -236.125 129.75 C-234.02483377 128.57558465 -231.92041245 127.41035988 -229.8125 126.25 C-229.21759766 125.91613281 -228.62269531 125.58226562 -228.00976562 125.23828125 C-225.16671156 123.68174886 -223.41839012 122.75 -220.125 122.75 C-220.125 122.09 -220.125 121.43 -220.125 120.75 C-219.29355469 120.35167969 -218.46210937 119.95335937 -217.60546875 119.54296875 C-215.97544922 118.74826172 -215.97544922 118.74826172 -214.3125 117.9375 C-213.23355469 117.41542969 -212.15460938 116.89335938 -211.04296875 116.35546875 C-208.20440697 114.97658078 -208.20440697 114.97658078 -206.64453125 113.23828125 C-203.55488729 110.21217753 -199.0776476 108.9457395 -195.15625 107.25 C-192.41455409 105.8932845 -191.1874642 104.86835754 -189.125 102.75 C-187.30362622 101.78924563 -185.44497616 100.89720647 -183.5625 100.0625 C-182.59183594 99.62550781 -181.62117188 99.18851563 -180.62109375 98.73828125 C-178.125 97.75 -178.125 97.75 -176.125 97.75 C-175.795 96.76 -175.465 95.77 -175.125 94.75 C-172.5078125 93.14453125 -172.5078125 93.14453125 -169.25 91.5625 C-168.18007812 91.03269531 -167.11015625 90.50289062 -166.0078125 89.95703125 C-163.125 88.75 -163.125 88.75 -160.125 88.75 C-159.795 87.76 -159.465 86.77 -159.125 85.75 C-156.91015625 84.36328125 -156.91015625 84.36328125 -154.1875 83.0625 C-153.29160156 82.62550781 -152.39570312 82.18851563 -151.47265625 81.73828125 C-149.125 80.75 -149.125 80.75 -147.125 80.75 C-147.125 80.09 -147.125 79.43 -147.125 78.75 C-144.83570947 77.57845707 -142.54381638 76.41261926 -140.25 75.25 C-139.59902344 74.91613281 -138.94804688 74.58226562 -138.27734375 74.23828125 C-133.3515625 71.75 -133.3515625 71.75 -131.125 71.75 C-131.125 71.09 -131.125 70.43 -131.125 69.75 C-129.3585343 68.7423048 -127.58666177 67.74408286 -125.8125 66.75 C-124.82636719 66.193125 -123.84023437 65.63625 -122.82421875 65.0625 C-120.125 63.75 -120.125 63.75 -117.125 63.75 C-117.125 63.09 -117.125 62.43 -117.125 61.75 C-115.02483377 60.57558465 -112.92041245 59.41035988 -110.8125 58.25 C-109.92014648 57.74919922 -109.92014648 57.74919922 -109.00976562 57.23828125 C-106.16671156 55.68174886 -104.41839012 54.75 -101.125 54.75 C-101.125 54.09 -101.125 53.43 -101.125 52.75 C-99.33618264 51.74491199 -97.54385304 50.74607264 -95.75 49.75 C-94.25339844 48.9146875 -94.25339844 48.9146875 -92.7265625 48.0625 C-90.125 46.75 -90.125 46.75 -88.125 46.75 C-88.125 46.09 -88.125 45.43 -88.125 44.75 C-85.83570947 43.57845707 -83.54381638 42.41261926 -81.25 41.25 C-80.59902344 40.91613281 -79.94804688 40.58226562 -79.27734375 40.23828125 C-74.3515625 37.75 -74.3515625 37.75 -72.125 37.75 C-71.795 36.76 -71.465 35.77 -71.125 34.75 C-69.15625 33.57421875 -69.15625 33.57421875 -66.625 32.4375 C-62.17317251 30.33242157 -58.2205416 27.89238078 -54.16796875 25.109375 C-47.61637931 20.75 -47.61637931 20.75 -44.125 20.75 C-44.125 20.09 -44.125 19.43 -44.125 18.75 C-42.16914675 17.74515796 -40.21023763 16.74626195 -38.25 15.75 C-37.15945313 15.193125 -36.06890625 14.63625 -34.9453125 14.0625 C-32.125 12.75 -32.125 12.75 -30.125 12.75 C-30.125 12.09 -30.125 11.43 -30.125 10.75 C-27.83570947 9.57845707 -25.54381638 8.41261926 -23.25 7.25 C-22.59902344 6.91613281 -21.94804688 6.58226562 -21.27734375 6.23828125 C-16.3515625 3.75 -16.3515625 3.75 -14.125 3.75 C-13.795 2.76 -13.465 1.77 -13.125 0.75 C-8.86795068 -2.24570137 -4.67465064 -1.86986026 0 0 Z " fill="#000000" transform="translate(1415.125,632.25)"/>
<path d="M0 0 C0.66 0 1.32 0 2 0 C2 0.66 2 1.32 2 2 C2.54140625 2.10183594 3.0828125 2.20367188 3.640625 2.30859375 C6.60596581 3.17757607 9.05524946 4.55472291 11.75 6.0625 C12.73484375 6.61035156 13.7196875 7.15820312 14.734375 7.72265625 C15.48203125 8.14417969 16.2296875 8.56570313 17 9 C17 9.66 17 10.32 17 11 C17.86625 11.2475 18.7325 11.495 19.625 11.75 C23.21060064 13.07800024 25.96327987 14.68630848 29 17 C29 17.66 29 18.32 29 19 C29.54140625 19.10183594 30.0828125 19.20367188 30.640625 19.30859375 C33.60596581 20.17757607 36.05524946 21.55472291 38.75 23.0625 C39.73484375 23.61035156 40.7196875 24.15820312 41.734375 24.72265625 C42.48203125 25.14417969 43.2296875 25.56570313 44 26 C44 26.66 44 27.32 44 28 C44.845625 28.2475 45.69125 28.495 46.5625 28.75 C50.38427474 30.13973627 53.51868063 31.91120838 57 34 C57 34.66 57 35.32 57 36 C57.639375 36.226875 58.27875 36.45375 58.9375 36.6875 C63.13320261 38.48565826 67.03900556 40.73904021 71 43 C71 43.66 71 44.32 71 45 C71.56203125 45.11214844 72.1240625 45.22429687 72.703125 45.33984375 C75.31513108 46.09057339 77.39471322 47.21167376 79.75 48.5625 C80.54921875 49.01753906 81.3484375 49.47257812 82.171875 49.94140625 C82.77515625 50.29074219 83.3784375 50.64007812 84 51 C84 51.66 84 52.32 84 53 C85.2065625 53.3403125 85.2065625 53.3403125 86.4375 53.6875 C90.91285739 55.33631588 94.88721318 57.60544412 99 60 C99 60.66 99 61.32 99 62 C99.680625 62.2475 100.36125 62.495 101.0625 62.75 C104.56865083 64.24197908 107.71620368 66.06835511 111 68 C111 68.66 111 69.32 111 70 C111.804375 70.226875 112.60875 70.45375 113.4375 70.6875 C118.34052399 72.49387726 123.74841776 74.7245915 127.4765625 78.4921875 C129.36094317 80.35724119 131.35499407 81.43673595 133.6875 82.6875 C134.49574219 83.12449219 135.30398438 83.56148437 136.13671875 84.01171875 C137.05904297 84.50091797 137.05904297 84.50091797 138 85 C138 85.66 138 86.32 138 87 C138.804375 87.226875 139.60875 87.45375 140.4375 87.6875 C145.34052399 89.49387726 150.74841776 91.7245915 154.4765625 95.4921875 C156.36094317 97.35724119 158.35499407 98.43673595 160.6875 99.6875 C161.49574219 100.12449219 162.30398438 100.56148437 163.13671875 101.01171875 C164.05904297 101.50091797 164.05904297 101.50091797 165 102 C165 102.66 165 103.32 165 104 C165.81404297 104.15662109 165.81404297 104.15662109 166.64453125 104.31640625 C169.57061245 105.16560063 172.01455507 106.47790791 174.6875 107.9375 C175.66074219 108.46214844 176.63398437 108.98679687 177.63671875 109.52734375 C180 111 180 111 181 113 C182.67906128 113.98424325 182.67906128 113.98424325 184.6875 114.875 C188.35785455 116.6383376 191.62992622 118.70548168 195 121 C197.31417321 122.36887478 199.65740597 123.67962882 202 125 C206.87878788 127.75757576 206.87878788 127.75757576 208 130 C210.90164371 131.53987486 213.83658756 132.94976083 216.80859375 134.34570312 C220.06688608 135.91362877 222.54313278 137.36509893 225 140 C226.53545874 140.9414298 228.10021774 141.83634864 229.6875 142.6875 C230.49574219 143.12449219 231.30398438 143.56148437 232.13671875 144.01171875 C232.75160156 144.33785156 233.36648438 144.66398437 234 145 C234 145.66 234 146.32 234 147 C234.66 147.2475 235.32 147.495 236 147.75 C238.44462067 148.76859194 240.85336508 149.81246095 243.25 150.9375 C243.93578125 151.25589844 244.6215625 151.57429688 245.328125 151.90234375 C247 153 247 153 248 156 C249.97984481 156.72433347 251.98583438 157.37743972 254 158 C258.87256221 160.08556885 262.24973489 162.24973489 266 166 C268.0663521 167.08004597 270.15295418 168.04756646 272.29296875 168.97265625 C274 170 274 170 275 173 C275.680625 173.0825 276.36125 173.165 277.0625 173.25 C282.15731696 174.55080433 285.98926295 177.13979826 289.9375 180.5 C292.9877119 182.9899689 295.78016635 184.46536685 299.36328125 186.0078125 C301 187 301 187 302 190 C302.66 190 303.32 190 304 190 C304 190.66 304 191.32 304 192 C301.00312538 193.67233004 298.00205582 195.33699066 295 197 C294.05253906 197.52722656 293.10507813 198.05445313 292.12890625 198.59765625 C291.17886719 199.12230469 290.22882812 199.64695312 289.25 200.1875 C287.92742187 200.92033203 287.92742187 200.92033203 286.578125 201.66796875 C284.09728374 202.94973674 281.60912442 204.00984667 279 205 C279 205.66 279 206.32 279 207 C277.04414675 208.00484204 275.08523763 209.00373805 273.125 210 C271.48917969 210.8353125 271.48917969 210.8353125 269.8203125 211.6875 C267 213 267 213 265 213 C265 213.66 265 214.32 265 215 C262.71070947 216.17154293 260.41881638 217.33738074 258.125 218.5 C257.47402344 218.83386719 256.82304688 219.16773438 256.15234375 219.51171875 C251.2265625 222 251.2265625 222 249 222 C249 222.66 249 223.32 249 224 C245.04943958 226.22491685 241.09808203 228.44836995 237.14453125 230.66796875 C234.78221287 231.99480868 232.42536001 233.32913292 230.07421875 234.67578125 C228.92373047 235.33126953 228.92373047 235.33126953 227.75 236 C227.10546875 236.37125 226.4609375 236.7425 225.796875 237.125 C224 238 224 238 221.828125 238.4375 C221.22484375 238.623125 220.6215625 238.80875 220 239 C219.67 239.99 219.34 240.98 219 242 C216.34765625 243.60546875 216.34765625 243.60546875 213.0625 245.1875 C211.98097656 245.71730469 210.89945313 246.24710938 209.78515625 246.79296875 C207 248 207 248 205 248 C205 248.66 205 249.32 205 250 C203.2335343 251.0076952 201.46166177 252.00591714 199.6875 253 C198.70136719 253.556875 197.71523437 254.11375 196.69921875 254.6875 C194 256 194 256 191 256 C191 256.66 191 257.32 191 258 C188.87767021 259.17176518 186.75242209 260.33754785 184.625 261.5 C183.72007812 262.00080078 183.72007812 262.00080078 182.796875 262.51171875 C178.2265625 265 178.2265625 265 176 265 C176 265.66 176 266.32 176 267 C174.04414675 268.00484204 172.08523763 269.00373805 170.125 270 C169.03445313 270.556875 167.94390625 271.11375 166.8203125 271.6875 C164 273 164 273 162 273 C162 273.66 162 274.32 162 275 C159.71070947 276.17154293 157.41881638 277.33738074 155.125 278.5 C154.47402344 278.83386719 153.82304688 279.16773438 153.15234375 279.51171875 C148.2265625 282 148.2265625 282 146 282 C145.67 282.99 145.34 283.98 145 285 C142.5234375 286.4296875 142.5234375 286.4296875 139.375 287.875 C135.74839868 289.60665916 132.34975008 291.28346334 129.125 293.6875 C121.94594595 299 121.94594595 299 118 299 C118 299.66 118 300.32 118 301 C116.04414675 302.00484204 114.08523763 303.00373805 112.125 304 C111.03445313 304.556875 109.94390625 305.11375 108.8203125 305.6875 C106 307 106 307 104 307 C104 307.66 104 308.32 104 309 C101.89983377 310.17441535 99.79541245 311.33964012 97.6875 312.5 C97.09259766 312.83386719 96.49769531 313.16773438 95.88476562 313.51171875 C93.04171156 315.06825114 91.29339012 316 88 316 C88 316.66 88 317.32 88 318 C86.21118264 319.00508801 84.41885304 320.00392736 82.625 321 C81.12839844 321.8353125 81.12839844 321.8353125 79.6015625 322.6875 C77 324 77 324 75 324 C75 324.66 75 325.32 75 326 C72.71070947 327.17154293 70.41881638 328.33738074 68.125 329.5 C67.47402344 329.83386719 66.82304688 330.16773438 66.15234375 330.51171875 C61.2265625 333 61.2265625 333 59 333 C58.67 333.99 58.34 334.98 58 336 C55.8203125 337.38671875 55.8203125 337.38671875 53.125 338.6875 C52.24070312 339.12449219 51.35640625 339.56148437 50.4453125 340.01171875 C48 341 48 341 45 341 C44.67 341.99 44.34 342.98 44 344 C41.3125 345.53515625 41.3125 345.53515625 38 347.0625 C33.74298406 348.71765951 33.74298406 348.71765951 31 352 C29.0556658 353.10532106 27.06909902 354.13720928 25.0625 355.125 C23.98097656 355.66382813 22.89945313 356.20265625 21.78515625 356.7578125 C19 358 19 358 17 358 C17 358.66 17 359.32 17 360 C6.62642369 365.37129841 6.62642369 365.37129841 1 367 C1 367.66 1 368.32 1 369 C-1.10016623 370.17441535 -3.20458755 371.33964012 -5.3125 372.5 C-5.90740234 372.83386719 -6.50230469 373.16773438 -7.11523438 373.51171875 C-9.95828844 375.06825114 -11.70660988 376 -15 376 C-15.33 376.99 -15.66 377.98 -16 379 C-18.21484375 380.38671875 -18.21484375 380.38671875 -20.9375 381.6875 C-21.83339844 382.12449219 -22.72929688 382.56148437 -23.65234375 383.01171875 C-26 384 -26 384 -28 384 C-28.33 384.99 -28.66 385.98 -29 387 C-31.8359375 388.5 -31.8359375 388.5 -35.375 390 C-39.25330027 391.6510724 -42.14516819 392.91212069 -45 396 C-46.97265625 397.16796875 -46.97265625 397.16796875 -49.0625 398.1875 C-49.75472656 398.53167969 -50.44695312 398.87585937 -51.16015625 399.23046875 C-53 400 -53 400 -55 400 C-54.97250955 400.95108548 -54.94501909 401.90217096 -54.91669559 402.88207722 C-53.75254566 444.43196917 -53.69833258 485.9956233 -53.50937554 527.55847789 C-53.47457867 535.2007896 -53.43817487 542.84309229 -53.40075874 550.48539162 C-53.39534351 551.59177403 -53.38992828 552.69815644 -53.38434895 553.8380656 C-53.37331972 556.09019958 -53.36228724 558.34233355 -53.35125155 560.5944675 C-53.24835113 581.6306093 -53.15016546 602.66677104 -53.05365706 623.702943 C-52.9726254 641.34226416 -52.88762788 658.98156223 -52.79956055 676.62084961 C-52.28007822 780.78135829 -51.88102007 884.9392427 -52 1029 C-57.75 1032 -57.75 1032 -60 1032 C-60 1032.66 -60 1033.32 -60 1034 C-62.28929053 1035.17154293 -64.58118362 1036.33738074 -66.875 1037.5 C-67.52597656 1037.83386719 -68.17695312 1038.16773437 -68.84765625 1038.51171875 C-73.7734375 1041 -73.7734375 1041 -76 1041 C-76 1041.66 -76 1042.32 -76 1043 C-77.04800781 1043.47050781 -78.09601563 1043.94101563 -79.17578125 1044.42578125 C-80.554848 1045.05433548 -81.93374545 1045.68326124 -83.3125 1046.3125 C-84.00279297 1046.62123047 -84.69308594 1046.92996094 -85.40429688 1047.24804688 C-86.07138672 1047.55419922 -86.73847656 1047.86035156 -87.42578125 1048.17578125 C-88.03848877 1048.45333252 -88.65119629 1048.73088379 -89.2824707 1049.0168457 C-91.195322 1050.11180692 -92.46551846 1051.42939161 -94 1053 C-95.86743209 1054.01256318 -97.76775331 1054.96551693 -99.6875 1055.875 C-104.0489456 1057.99266575 -108.12488443 1060.2596003 -112.1796875 1062.90625 C-114.05148468 1064.030935 -115.91517505 1064.86874496 -117.9375 1065.6875 C-121.09419991 1066.65011462 -121.09419991 1066.65011462 -122 1069 C-124.11179439 1070.10905121 -126.26510471 1071.139927 -128.4375 1072.125 C-129.61183594 1072.66382812 -130.78617188 1073.20265625 -131.99609375 1073.7578125 C-135 1075 -135 1075 -137 1075 C-137 1075.66 -137 1076.32 -137 1077 C-138.04800781 1077.47050781 -139.09601563 1077.94101563 -140.17578125 1078.42578125 C-141.554848 1079.05433548 -142.93374545 1079.68326124 -144.3125 1080.3125 C-145.00279297 1080.62123047 -145.69308594 1080.92996094 -146.40429688 1081.24804688 C-147.40493164 1081.70727539 -147.40493164 1081.70727539 -148.42578125 1082.17578125 C-149.03848877 1082.45333252 -149.65119629 1082.73088379 -150.2824707 1083.0168457 C-152.19600966 1084.11220056 -153.47248008 1085.42144935 -155 1087 C-156.63402371 1087.95407634 -158.30457787 1088.84735778 -160 1089.6875 C-160.86625 1090.12449219 -161.7325 1090.56148437 -162.625 1091.01171875 C-165 1092 -165 1092 -168 1092 C-168 1092.66 -168 1093.32 -168 1094 C-169.39798828 1094.74443359 -169.39798828 1094.74443359 -170.82421875 1095.50390625 C-171.43499268 1095.82939453 -172.0457666 1096.15488281 -172.67504883 1096.49023438 C-174.02489621 1097.20945429 -175.37499706 1097.92819869 -176.7253418 1098.64648438 C-180.09997706 1100.44375402 -183.46828675 1102.25070246 -186.8203125 1104.08984375 C-188.54894531 1105.03537109 -188.54894531 1105.03537109 -190.3125 1106 C-191.36050781 1106.5775 -192.40851563 1107.155 -193.48828125 1107.75 C-196 1109 -196 1109 -198 1109 C-198 1109.66 -198 1110.32 -198 1111 C-199.04800781 1111.47050781 -200.09601563 1111.94101563 -201.17578125 1112.42578125 C-202.554848 1113.05433548 -203.93374545 1113.68326124 -205.3125 1114.3125 C-206.00279297 1114.62123047 -206.69308594 1114.92996094 -207.40429688 1115.24804688 C-208.40493164 1115.70727539 -208.40493164 1115.70727539 -209.42578125 1116.17578125 C-210.03848877 1116.45333252 -210.65119629 1116.73088379 -211.2824707 1117.0168457 C-213.19489344 1118.11156161 -214.46476928 1119.43095363 -216 1121 C-217.82137378 1121.96075437 -219.68002384 1122.85279353 -221.5625 1123.6875 C-223.01849609 1124.34298828 -223.01849609 1124.34298828 -224.50390625 1125.01171875 C-227 1126 -227 1126 -229 1126 C-229 1126.66 -229 1127.32 -229 1128 C-231.10016623 1129.17441535 -233.20458755 1130.33964012 -235.3125 1131.5 C-235.90740234 1131.83386719 -236.50230469 1132.16773437 -237.11523438 1132.51171875 C-239.95828844 1134.06825114 -241.70660988 1135 -245 1135 C-245 1135.66 -245 1136.32 -245 1137 C-246.95585325 1138.00484204 -248.91476237 1139.00373805 -250.875 1140 C-252.51082031 1140.8353125 -252.51082031 1140.8353125 -254.1796875 1141.6875 C-257 1143 -257 1143 -259 1143 C-259 1143.66 -259 1144.32 -259 1145 C-261.28929053 1146.17154293 -263.58118362 1147.33738074 -265.875 1148.5 C-266.52597656 1148.83386719 -267.17695312 1149.16773437 -267.84765625 1149.51171875 C-272.7734375 1152 -272.7734375 1152 -275 1152 C-275 1152.66 -275 1153.32 -275 1154 C-277.12282669 1155.00460531 -279.24833021 1156.00355602 -281.375 1157 C-283.15003906 1157.8353125 -283.15003906 1157.8353125 -284.9609375 1158.6875 C-288 1160 -288 1160 -290 1160 C-290 1160.66 -290 1161.32 -290 1162 C-292.28929053 1163.17154293 -294.58118362 1164.33738074 -296.875 1165.5 C-297.52597656 1165.83386719 -298.17695312 1166.16773437 -298.84765625 1166.51171875 C-303.7734375 1169 -303.7734375 1169 -306 1169 C-306 1169.66 -306 1170.32 -306 1171 C-307.93370231 1172.00732399 -309.87210306 1173.00563288 -311.8125 1174 C-313.43091797 1174.8353125 -313.43091797 1174.8353125 -315.08203125 1175.6875 C-318 1177 -318 1177 -321 1177 C-321 1177.66 -321 1178.32 -321 1179 C-323.12232979 1180.17176518 -325.24757791 1181.33754785 -327.375 1182.5 C-327.97828125 1182.83386719 -328.5815625 1183.16773437 -329.203125 1183.51171875 C-333.7734375 1186 -333.7734375 1186 -336 1186 C-336 1186.66 -336 1187.32 -336 1188 C-338.45620851 1189.17133058 -340.91474917 1190.33721722 -343.375 1191.5 C-344.07367187 1191.83386719 -344.77234375 1192.16773437 -345.4921875 1192.51171875 C-350.7734375 1195 -350.7734375 1195 -353 1195 C-353 1195.66 -353 1196.32 -353 1197 C-354.95585325 1198.00484204 -356.91476237 1199.00373805 -358.875 1200 C-360.51082031 1200.8353125 -360.51082031 1200.8353125 -362.1796875 1201.6875 C-365 1203 -365 1203 -367 1203 C-367 1203.66 -367 1204.32 -367 1205 C-367.99 1205 -368.98 1205 -370 1205 C-370 1167.38 -370 1129.76 -370 1091 C-370.66 1091 -371.32 1091 -372 1091 C-372.09646826 1032.27731506 -372.19243373 973.55462932 -372.28601074 914.8319397 C-372.28742048 913.94736342 -372.28883022 913.06278714 -372.29028267 912.15140553 C-372.32099818 892.87645384 -372.35163177 873.60150203 -372.38218227 854.32655009 C-372.39718846 844.85913884 -372.41221255 835.39172761 -372.42724609 825.92431641 C-372.42874094 824.98274324 -372.43023578 824.04117007 -372.43177592 823.07106438 C-372.47637495 794.98385619 -372.52192606 766.89664968 -372.56822447 738.80944424 C-372.6398999 695.31758916 -372.70995318 651.82573173 -372.77710348 608.33386941 C-372.77986846 606.54317139 -372.78263535 604.75247337 -372.78540415 602.96177535 C-372.91060627 521.98281245 -373.02141319 441.00390579 -373 211 C-371.73308493 210.32591692 -370.46129251 209.66099503 -369.1875 209 C-368.47980469 208.62875 -367.77210937 208.2575 -367.04296875 207.875 C-365 207 -365 207 -362 207 C-362 206.34 -362 205.68 -362 205 C-359.87767021 203.82823482 -357.75242209 202.66245215 -355.625 201.5 C-355.02171875 201.16613281 -354.4184375 200.83226562 -353.796875 200.48828125 C-349.2265625 198 -349.2265625 198 -347 198 C-347 197.34 -347 196.68 -347 196 C-344.87717331 194.99539469 -342.75166979 193.99644398 -340.625 193 C-339.44164062 192.443125 -338.25828125 191.88625 -337.0390625 191.3125 C-334 190 -334 190 -332 190 C-332 189.34 -332 188.68 -332 188 C-329.71070947 186.82845707 -327.41881638 185.66261926 -325.125 184.5 C-324.47402344 184.16613281 -323.82304688 183.83226562 -323.15234375 183.48828125 C-318.2265625 181 -318.2265625 181 -316 181 C-316 180.34 -316 179.68 -316 179 C-314.06629769 177.99267601 -312.12789694 176.99436712 -310.1875 176 C-309.10855469 175.443125 -308.02960938 174.88625 -306.91796875 174.3125 C-304 173 -304 173 -301 173 C-301 172.34 -301 171.68 -301 171 C-298.89983377 169.82558465 -296.79541245 168.66035988 -294.6875 167.5 C-294.09259766 167.16613281 -293.49769531 166.83226562 -292.88476562 166.48828125 C-290.04171156 164.93174886 -288.29339012 164 -285 164 C-285 163.34 -285 162.68 -285 162 C-283.04414675 160.99515796 -281.08523763 159.99626195 -279.125 159 C-278.03445313 158.443125 -276.94390625 157.88625 -275.8203125 157.3125 C-273 156 -273 156 -271 156 C-271 155.34 -271 154.68 -271 154 C-268.71070947 152.82845707 -266.41881638 151.66261926 -264.125 150.5 C-263.14853516 149.99919922 -263.14853516 149.99919922 -262.15234375 149.48828125 C-257.2265625 147 -257.2265625 147 -255 147 C-255 146.34 -255 145.68 -255 145 C-252.87717331 143.99539469 -250.75166979 142.99644398 -248.625 142 C-247.44164062 141.443125 -246.25828125 140.88625 -245.0390625 140.3125 C-242 139 -242 139 -240 139 C-240 138.34 -240 137.68 -240 137 C-237.89983377 135.82558465 -235.79541245 134.66035988 -233.6875 133.5 C-233.09259766 133.16613281 -232.49769531 132.83226562 -231.88476562 132.48828125 C-229.04171156 130.93174886 -227.29339012 130 -224 130 C-224 129.34 -224 128.68 -224 128 C-223.18917969 127.56429688 -222.37835937 127.12859375 -221.54296875 126.6796875 C-215.12907213 123.23007139 -208.72417647 119.76590137 -202.33984375 116.26171875 C-200.87499655 115.47182619 -199.38956468 114.71782824 -197.87890625 114.01953125 C-195.95504224 113.1038598 -195.95504224 113.1038598 -194.65625 111.5625 C-191.44935877 108.53713092 -187.03483587 107.23128037 -183.03125 105.5 C-180.28955409 104.1432845 -179.0624642 103.11835754 -177 101 C-175.17862622 100.03924563 -173.31997616 99.14720647 -171.4375 98.3125 C-170.46683594 97.87550781 -169.49617188 97.43851563 -168.49609375 96.98828125 C-166 96 -166 96 -164 96 C-163.67 95.01 -163.34 94.02 -163 93 C-160.3828125 91.39453125 -160.3828125 91.39453125 -157.125 89.8125 C-156.05507812 89.28269531 -154.98515625 88.75289062 -153.8828125 88.20703125 C-151 87 -151 87 -148 87 C-147.67 86.01 -147.34 85.02 -147 84 C-144.78515625 82.61328125 -144.78515625 82.61328125 -142.0625 81.3125 C-141.16660156 80.87550781 -140.27070312 80.43851563 -139.34765625 79.98828125 C-137 79 -137 79 -135 79 C-135 78.34 -135 77.68 -135 77 C-132.71070947 75.82845707 -130.41881638 74.66261926 -128.125 73.5 C-127.47402344 73.16613281 -126.82304688 72.83226562 -126.15234375 72.48828125 C-121.2265625 70 -121.2265625 70 -119 70 C-119 69.34 -119 68.68 -119 68 C-117.2335343 66.9923048 -115.46166177 65.99408286 -113.6875 65 C-112.70136719 64.443125 -111.71523437 63.88625 -110.69921875 63.3125 C-108 62 -108 62 -105 62 C-105 61.34 -105 60.68 -105 60 C-102.89983377 58.82558465 -100.79541245 57.66035988 -98.6875 56.5 C-97.79514648 55.99919922 -97.79514648 55.99919922 -96.88476562 55.48828125 C-94.04171156 53.93174886 -92.29339012 53 -89 53 C-89 52.34 -89 51.68 -89 51 C-87.21118264 49.99491199 -85.41885304 48.99607264 -83.625 48 C-82.12839844 47.1646875 -82.12839844 47.1646875 -80.6015625 46.3125 C-78 45 -78 45 -76 45 C-76 44.34 -76 43.68 -76 43 C-73.71070947 41.82845707 -71.41881638 40.66261926 -69.125 39.5 C-68.47402344 39.16613281 -67.82304688 38.83226562 -67.15234375 38.48828125 C-62.2265625 36 -62.2265625 36 -60 36 C-60 35.34 -60 34.68 -60 34 C-58.04414675 32.99515796 -56.08523763 31.99626195 -54.125 31 C-53.03445313 30.443125 -51.94390625 29.88625 -50.8203125 29.3125 C-48 28 -48 28 -46 28 C-46 27.34 -46 26.68 -46 26 C-45.00097656 25.51789063 -44.00195312 25.03578125 -42.97265625 24.5390625 C-41.66911549 23.90135911 -40.36573849 23.26332089 -39.0625 22.625 C-38.40314453 22.30789063 -37.74378906 21.99078125 -37.06445312 21.6640625 C-33.38695193 20.04522631 -33.38695193 20.04522631 -31 17 C-28.88820561 15.89094879 -26.73489529 14.860073 -24.5625 13.875 C-23.38816406 13.33617187 -22.21382812 12.79734375 -21.00390625 12.2421875 C-18 11 -18 11 -16 11 C-15.67 10.01 -15.34 9.02 -15 8 C-12.12890625 6.39453125 -12.12890625 6.39453125 -8.5625 4.8125 C-7.38816406 4.28269531 -6.21382812 3.75289062 -5.00390625 3.20703125 C-2 2 -2 2 0 2 C0 1.34 0 0.68 0 0 Z " fill="#000000" transform="translate(1437,1197)"/>
</svg>
