<svg width="551" height="328" viewBox="0 0 551 328" fill="none" xmlns="http://www.w3.org/2000/svg">
<g clip-path="url(#clip0_379_1205)">
<path d="M478.304 325.849C478.357 325.677 483.462 308.443 474.426 293.064L473.503 293.709C482.251 308.596 477.315 325.305 477.264 325.472L478.304 325.849Z" fill="#E4E4E4"/>
<path d="M467.965 295.276C468.159 296.283 468.534 297.239 469.067 298.088C469.6 298.937 470.282 299.664 471.072 300.226C471.863 300.788 472.747 301.174 473.675 301.364C474.602 301.553 475.555 301.541 476.478 301.328C477.401 301.116 478.277 300.707 479.056 300.126C479.834 299.544 480.5 298.801 481.015 297.938C481.53 297.076 481.885 296.111 482.058 295.099C482.232 294.087 482.221 293.048 482.026 292.041C481.207 287.805 474.265 277.262 470.382 278.156C466.499 279.049 467.146 291.04 467.965 295.276Z" fill="#E4E4E4"/>
<path d="M469.274 315.088C472.739 319.174 478.938 319.063 478.938 319.063C478.938 319.063 479.519 312.328 476.054 308.243C472.589 304.158 466.389 304.268 466.389 304.268C466.389 304.268 465.808 311.003 469.274 315.088Z" fill="#E4E4E4"/>
<path d="M521.798 327.045C521.922 326.639 533.972 285.967 512.646 249.674L510.469 251.197C531.112 286.328 519.465 325.76 519.345 326.154L521.798 327.045Z" fill="#E4E4E4"/>
<path d="M497.397 254.894C498.326 259.693 500.965 263.894 504.732 266.571C508.5 269.249 513.088 270.185 517.488 269.172C521.887 268.16 525.738 265.283 528.194 261.174C530.649 257.064 531.508 252.059 530.581 247.259C528.649 237.262 512.265 212.383 503.102 214.491C493.938 216.599 495.465 244.897 497.397 254.894Z" fill="#E4E4E4"/>
<path d="M500.487 301.649C508.665 311.29 523.296 311.029 523.296 311.029C523.296 311.029 524.667 295.136 516.489 285.495C508.311 275.854 493.68 276.116 493.68 276.116C493.68 276.116 492.309 292.008 500.487 301.649Z" fill="#E4E4E4"/>
<path d="M317.865 323.983L309.869 320.31L304.384 276.581H231.339L225.394 320.131L218.24 324.033C217.898 324.22 217.624 324.527 217.461 324.905C217.299 325.283 217.259 325.71 217.347 326.116C217.435 326.523 217.646 326.885 217.946 327.144C218.246 327.403 218.617 327.544 219 327.544H317.206C317.598 327.544 317.978 327.396 318.282 327.125C318.585 326.854 318.793 326.477 318.871 326.057C318.949 325.638 318.891 325.202 318.707 324.824C318.524 324.446 318.226 324.149 317.865 323.983Z" fill="#2F1717"/>
<path d="M447.67 282.399H88.8551C86.9725 282.394 85.1684 281.575 83.8387 280.121C82.509 278.668 81.7622 276.698 81.7622 274.644V219.445H454.763V274.644C454.763 276.698 454.016 278.668 452.686 280.121C451.357 281.575 449.553 282.394 447.67 282.399Z" fill="#CCCCCC"/>
<path d="M455.138 245.533H81.4346V9.34876C81.4372 6.87014 82.3409 4.49386 83.9475 2.74124C85.5541 0.988613 87.7323 0.00277819 90.0043 0H446.568C448.84 0.00277657 451.018 0.988607 452.625 2.74123C454.231 4.49385 455.135 6.87013 455.138 9.34876V245.533Z" fill="#3F3D56"/>
<path d="M432.82 17.1418H103.753C102.002 17.1442 100.323 17.9047 99.0847 19.2563C97.8468 20.608 97.1511 22.4403 97.1504 24.351V221.183C97.1511 223.093 97.8468 224.926 99.0847 226.277C100.323 227.629 102.002 228.39 103.753 228.392H432.82C434.571 228.389 436.25 227.628 437.488 226.276C438.725 224.925 439.422 223.093 439.423 221.183V24.351C439.422 22.4406 438.725 20.6088 437.488 19.2574C436.25 17.906 434.571 17.1452 432.82 17.1418Z" fill="white"/>
<path d="M162.083 17.1418V228.392H103.753C102.002 228.39 100.323 227.629 99.0847 226.277C97.8468 224.926 97.1511 223.093 97.1504 221.183V24.351C97.1511 22.4403 97.8468 20.608 99.0847 19.2563C100.323 17.9047 102.002 17.1442 103.753 17.1418H162.083Z" fill="#F0F0F0"/>
<path d="M113.962 123.858C113.305 123.695 112.624 123.691 111.966 123.847C111.307 124.002 110.688 124.313 110.152 124.757C109.616 125.202 109.176 125.769 108.862 126.419C108.549 127.069 108.37 127.787 108.338 128.52L92.6377 133.57L99.1374 139.556L113.05 133.843C114.184 133.82 115.27 133.344 116.104 132.505C116.937 131.666 117.459 130.523 117.571 129.292C117.684 128.062 117.378 126.829 116.713 125.827C116.048 124.826 115.069 124.125 113.962 123.858Z" fill="#FFB6B6"/>
<path d="M50.524 161.862C48.9719 161.86 47.4709 161.256 46.2887 160.159C45.1065 159.062 44.32 157.542 44.0693 155.871C43.8187 154.2 44.1203 152.486 44.9203 151.035C45.7204 149.584 46.9668 148.49 48.4374 147.948L80.2537 136.232L105.072 126.368L108.117 137.998L86.2081 153.748L51.8934 161.705C51.4432 161.809 50.9843 161.862 50.524 161.862Z" fill="#9E1414"/>
<path d="M70.4342 322.08H74.9011L77.0266 303.283H70.4331L70.4342 322.08Z" fill="#FFB6B6"/>
<path d="M69.2944 320.489L78.0919 320.489C79.5788 320.489 81.0051 321.133 82.0565 322.28C83.1079 323.427 83.6986 324.983 83.6987 326.605V326.804L69.2947 326.804L69.2944 320.489Z" fill="#2F2E41"/>
<path d="M36.1827 322.08H40.6496L42.7751 303.283H36.1821L36.1827 322.08Z" fill="#FFB6B6"/>
<path d="M35.0435 320.489L43.8409 320.489C45.3278 320.489 46.7541 321.133 47.8055 322.28C48.8569 323.427 49.4476 324.983 49.4477 326.605V326.804L35.0437 326.804L35.0435 320.489Z" fill="#2F2E41"/>
<path d="M36.1385 209.329C34.0942 214.524 33.6468 220.302 34.8632 225.798L33.5879 319.042H43.3988L48.8916 267.763L58.001 233.975L67.8391 260.211V314.89L77.3129 314.272L82.4141 256.235L76.5841 214.894L36.1385 209.329Z" fill="#2F2E41"/>
<path d="M72.0295 136.784L63.6489 134.001L61.4626 129.231H50.6978L47.9808 134.398C47.9808 134.398 37.0495 138.771 36.6852 159.839C36.3208 180.907 34.8633 214.696 34.8633 214.696L77.9657 221.399L72.0295 136.784Z" fill="#9E1414"/>
<path d="M84.4038 217.626C84.6865 216.96 84.8318 216.233 84.8294 215.499C84.827 214.764 84.677 214.039 84.3899 213.374C84.1029 212.71 83.6858 212.122 83.1679 211.653C82.6501 211.183 82.0442 210.843 81.3929 210.656L80.1295 192.852L73.4111 198.544L75.6409 214.578C75.4261 215.792 75.6272 217.051 76.206 218.114C76.7848 219.178 77.7011 219.973 78.7812 220.348C79.8614 220.724 81.0303 220.655 82.0666 220.153C83.1029 219.651 83.9345 218.752 84.4038 217.626Z" fill="#FFB6B6"/>
<path d="M72.9412 208.45L63.375 181.796V143.525C63.375 141.702 64.0137 139.948 65.1605 138.622C66.3072 137.296 67.8752 136.498 69.5433 136.393C71.2115 136.287 72.8536 136.881 74.1334 138.053C75.4133 139.225 76.2341 140.886 76.4277 142.697L80.3182 179.084L84.0019 207.618L72.9412 208.45Z" fill="#9E1414"/>
<path d="M58.1453 123.043C64.0866 123.043 68.9029 117.789 68.9029 111.307C68.9029 104.826 64.0866 99.5712 58.1453 99.5712C52.204 99.5712 47.3877 104.826 47.3877 111.307C47.3877 117.789 52.204 123.043 58.1453 123.043Z" fill="#FFB9B9"/>
<path d="M58.8497 107.74C58.3464 108.445 57.6564 109.081 57.5456 109.966C57.4635 110.622 57.7262 111.27 57.7512 111.932C57.7532 112.599 57.5218 113.243 57.1042 113.731C56.6865 114.219 56.1141 114.514 55.5034 114.558C55.0781 113.974 54.4635 113.591 53.7865 113.487C53.4496 113.445 53.1093 113.523 52.8157 113.708C52.5221 113.893 52.2907 114.176 52.1554 114.515C51.836 115.499 52.5754 116.499 52.6943 117.536C52.7101 118.302 52.5964 119.065 52.359 119.787C52.0864 120.976 52.0136 122.234 51.5353 123.343C51.0571 124.452 49.9938 125.406 48.893 125.161C47.9674 124.955 47.3411 123.977 47.0822 122.986C46.8234 121.994 46.835 120.944 46.6476 119.933C46.0389 116.651 43.4492 114.219 42.4331 111.059C41.1312 107.01 42.6952 102.379 45.3907 99.2539C46.4805 97.8848 47.9031 96.88 49.4942 96.3556C51.1739 95.8889 52.9499 96.2243 54.6736 96.0248C56.5169 95.8114 58.2495 94.9942 60.041 94.4749C61.8324 93.9555 63.8334 93.7599 65.4618 94.7261C66.5975 95.4 67.42 96.562 68.4782 97.3723C69.6914 98.2943 71.1622 98.7237 72.6353 98.5861L70.8762 99.425C71.5495 100.099 72.3627 100.585 73.2459 100.841C72.5271 101.463 71.6378 101.803 70.7205 101.808C70.9118 102.184 71.1718 102.513 71.4843 102.776C71.7969 103.038 72.1554 103.227 72.5377 103.332C71.2019 104.016 69.7838 104.717 68.3151 104.563C67.5956 104.488 66.9079 104.208 66.1972 104.065C64.6824 103.759 63.1267 104.076 61.6136 104.393C60.8191 104.559 59.844 104.719 59.4427 105.552C59.1086 106.246 59.3641 107.019 58.8497 107.74Z" fill="#2F2E41"/>
<path d="M129.616 141.489C139.095 141.489 146.778 133.107 146.778 122.767C146.778 112.427 139.095 104.044 129.616 104.044C120.138 104.044 112.455 112.427 112.455 122.767C112.455 133.107 120.138 141.489 129.616 141.489Z" fill="#9E1414"/>
<path d="M139.914 122.767H130.647V112.657H128.587V122.767H119.319V125.014H128.587V135.124H130.647V125.014H139.914V122.767Z" fill="white"/>
<path d="M275.76 41.8498C275.231 41.8504 274.723 42.08 274.349 42.4883C273.975 42.8966 273.764 43.4501 273.764 44.0275V80.491C273.764 81.0684 273.975 81.622 274.349 82.0303C274.723 82.4386 275.231 82.6683 275.76 82.669H410.503C411.032 82.6683 411.539 82.4386 411.914 82.0303C412.288 81.622 412.498 81.0684 412.499 80.491V44.0275C412.498 43.4501 412.288 42.8966 411.914 42.4883C411.539 42.08 411.032 41.8504 410.503 41.8498H275.76Z" fill="white"/>
<path d="M275.76 41.8498C275.231 41.8504 274.723 42.08 274.349 42.4883C273.975 42.8966 273.764 43.4501 273.764 44.0275V80.491C273.764 81.0684 273.975 81.622 274.349 82.0303C274.723 82.4386 275.231 82.6683 275.76 82.669H410.503C411.032 82.6683 411.539 82.4386 411.914 82.0303C412.288 81.622 412.498 81.0684 412.499 80.491V44.0275C412.498 43.4501 412.288 42.8966 411.914 42.4883C411.539 42.08 411.032 41.8504 410.503 41.8498H275.76Z" fill="#2F1717"/>
<path d="M276.009 80.2189H410.253V44.2998H276.009V80.2189Z" fill="white"/>
<path d="M291.273 54.6373C290.809 54.6373 290.365 54.8381 290.037 55.1954C289.71 55.5528 289.526 56.0375 289.526 56.5428C289.526 57.0482 289.71 57.5329 290.037 57.8902C290.365 58.2476 290.809 58.4483 291.273 58.4483H394.986C395.215 58.4484 395.442 58.3993 395.654 58.3036C395.866 58.208 396.059 58.0677 396.221 57.8908C396.383 57.7139 396.512 57.5039 396.6 57.2728C396.688 57.0417 396.733 56.7939 396.733 56.5437C396.733 56.2934 396.688 56.0456 396.6 55.8144C396.513 55.5832 396.384 55.373 396.222 55.196C396.06 55.019 395.867 54.8785 395.655 54.7827C395.443 54.6868 395.216 54.6374 394.987 54.6373H291.273Z" fill="#E4E4E4"/>
<path d="M291.272 66.0704C290.81 66.0713 290.366 66.2724 290.039 66.6297C289.712 66.9869 289.529 67.4711 289.529 67.9759C289.529 68.4807 289.712 68.9648 290.039 69.3221C290.366 69.6793 290.81 69.8805 291.272 69.8814H394.985C395.449 69.8825 395.893 69.6828 396.222 69.3263C396.55 68.9697 396.735 68.4855 396.736 67.9801C396.737 67.4748 396.554 66.9896 396.227 66.6315C395.9 66.2733 395.456 66.0715 394.993 66.0704H291.272Z" fill="#E4E4E4"/>
<path d="M182.06 103.72C181.531 103.721 181.024 103.95 180.649 104.359C180.275 104.767 180.065 105.321 180.064 105.898V142.361C180.065 142.939 180.275 143.492 180.649 143.901C181.023 144.309 181.531 144.539 182.06 144.539H316.803C317.332 144.539 317.84 144.309 318.214 143.901C318.588 143.492 318.799 142.939 318.799 142.361V105.898C318.799 105.321 318.588 104.767 318.214 104.359C317.84 103.95 317.332 103.721 316.803 103.72H182.06Z" fill="white"/>
<path d="M182.06 103.72C181.531 103.721 181.024 103.95 180.649 104.359C180.275 104.767 180.065 105.321 180.064 105.898V142.361C180.065 142.939 180.275 143.492 180.649 143.901C181.023 144.309 181.531 144.539 182.06 144.539H316.803C317.332 144.539 317.84 144.309 318.214 143.901C318.588 143.492 318.799 142.939 318.799 142.361V105.898C318.799 105.321 318.588 104.767 318.214 104.359C317.84 103.95 317.332 103.721 316.803 103.72H182.06Z" fill="#2F1717"/>
<path d="M182.31 142.089H316.553V106.17H182.31V142.089Z" fill="white"/>
<path d="M197.573 116.508C197.11 116.508 196.665 116.709 196.338 117.066C196.01 117.423 195.826 117.908 195.826 118.413C195.826 118.919 196.01 119.403 196.338 119.761C196.665 120.118 197.11 120.319 197.573 120.319H301.286C301.515 120.319 301.742 120.27 301.954 120.174C302.166 120.078 302.359 119.938 302.521 119.761C302.683 119.584 302.812 119.374 302.9 119.143C302.988 118.912 303.033 118.664 303.033 118.414C303.033 118.164 302.988 117.916 302.901 117.685C302.813 117.454 302.684 117.244 302.522 117.067C302.36 116.889 302.168 116.749 301.956 116.653C301.744 116.557 301.517 116.508 301.287 116.508H197.573Z" fill="#E4E4E4"/>
<path d="M197.573 127.941C197.11 127.942 196.666 128.143 196.34 128.5C196.013 128.857 195.829 129.342 195.829 129.846C195.829 130.351 196.013 130.835 196.34 131.192C196.666 131.55 197.11 131.751 197.573 131.752H301.286C301.749 131.753 302.194 131.553 302.522 131.197C302.85 130.84 303.035 130.356 303.036 129.851C303.037 129.345 302.854 128.86 302.527 128.502C302.201 128.144 301.757 127.942 301.293 127.941H197.573Z" fill="#E4E4E4"/>
<path d="M346.302 201.585C346.902 201.513 347.48 201.298 347.996 200.956C348.512 200.613 348.952 200.152 349.287 199.604C349.621 199.055 349.842 198.434 349.932 197.783C350.023 197.132 349.982 196.467 349.811 195.835L361.753 186.529L354.636 183.54L344.387 192.835C343.433 193.218 342.641 193.969 342.161 194.946C341.681 195.923 341.546 197.059 341.782 198.138C342.018 199.216 342.608 200.163 343.441 200.798C344.274 201.433 345.292 201.713 346.302 201.585Z" fill="#FFB7B7"/>
<path d="M352.931 195.456L348.97 188.075L349.054 187.97L365.037 168.119L377.447 145.031L388.224 146.529L388.383 150.083L388.351 150.136L371.229 178.213L371.211 178.23L352.931 195.456Z" fill="#3F3D56"/>
<path d="M405.741 320.36L399.647 320.359L396.747 294.715L405.742 294.716L405.741 320.36Z" fill="#FFB7B7"/>
<path d="M407.295 326.804L387.644 326.804V326.532C387.644 324.32 388.45 322.197 389.884 320.633C391.319 319.068 393.264 318.189 395.293 318.188L407.295 318.189L407.295 326.804Z" fill="#2F2E41"/>
<path d="M353.291 320.142L347.363 318.598L350.002 292.92L358.751 295.199L353.291 320.142Z" fill="#FFB7B7"/>
<path d="M353.431 326.804L334.317 321.826L334.375 321.562C334.846 319.409 336.082 317.549 337.81 316.391C339.538 315.232 341.618 314.87 343.591 315.384L355.265 318.425L353.431 326.804Z" fill="#2F2E41"/>
<path d="M376.976 133.306V122.115C376.976 118.138 378.424 114.324 381.002 111.511C383.58 108.699 387.076 107.119 390.722 107.119C394.368 107.119 397.864 108.699 400.442 111.511C403.02 114.324 404.468 118.138 404.468 122.115V133.306C404.468 133.84 404.273 134.352 403.927 134.73C403.581 135.108 403.111 135.32 402.622 135.321H378.823C378.333 135.32 377.864 135.108 377.518 134.73C377.171 134.352 376.977 133.84 376.976 133.306Z" fill="#2F2E41"/>
<path d="M387.33 135.151C392.896 135.151 397.408 130.228 397.408 124.156C397.408 118.084 392.896 113.161 387.33 113.161C381.764 113.161 377.251 118.084 377.251 124.156C377.251 130.228 381.764 135.151 387.33 135.151Z" fill="#FFB7B7"/>
<path d="M373.724 123.01C373.727 119.865 374.874 116.85 376.913 114.626C378.951 112.402 381.715 111.151 384.598 111.148H386.65C389.533 111.151 392.296 112.402 394.335 114.626C396.373 116.85 397.52 119.865 397.523 123.01V123.234H393.188L391.709 118.717L391.413 123.234H389.172L388.426 120.955L388.277 123.234H373.724V123.01Z" fill="#2F2E41"/>
<path d="M393.208 182.185L367.547 181.119L366.113 162.805C365.007 159.453 364.989 156.575 366.06 154.251C366.981 152.342 368.528 150.883 370.393 150.165L376.008 142.766C376.73 141.815 377.638 141.051 378.664 140.529C379.69 140.008 380.81 139.741 381.942 139.749L396.53 139.858C396.882 139.627 399.015 138.444 403.222 140.434C407.784 142.592 406.725 150.086 406.714 150.162L406.703 150.232L406.653 150.278L396.949 159.194L393.208 182.185Z" fill="#3F3D56"/>
<path d="M367.752 179.152L355.614 203.294L346.412 313.128L356.81 316.593L375.214 230.673L396.573 314.155L409.036 314.495L400.55 218.157L393.134 180.858L367.752 179.152Z" fill="#2F2E41"/>
<path d="M289.196 161.256C288.692 161.079 288.145 161.127 287.673 161.389C287.202 161.652 286.845 162.107 286.681 162.656L276.375 197.343C276.212 197.892 276.256 198.49 276.496 199.004C276.737 199.518 277.155 199.908 277.658 200.086L405.834 245.416C406.338 245.593 406.885 245.545 407.357 245.283C407.828 245.02 408.185 244.564 408.349 244.015L418.656 209.329C418.818 208.779 418.775 208.182 418.534 207.668C418.293 207.153 417.876 206.764 417.372 206.586L289.196 161.256Z" fill="white"/>
<path d="M289.196 161.256C288.692 161.079 288.145 161.127 287.673 161.389C287.202 161.652 286.845 162.107 286.681 162.656L276.375 197.343C276.212 197.892 276.256 198.49 276.496 199.004C276.737 199.518 277.155 199.908 277.658 200.086L405.834 245.416C406.338 245.593 406.885 245.545 407.357 245.283C407.828 245.02 408.185 244.564 408.349 244.015L418.656 209.329C418.818 208.779 418.775 208.182 418.534 207.668C418.293 207.153 417.876 206.764 417.372 206.586L289.196 161.256Z" fill="#2F1717"/>
<path d="M278.587 197.84L406.289 243.001L416.442 208.832L288.74 163.671L278.587 197.84Z" fill="white"/>
<path d="M300.338 178.639C299.897 178.484 299.418 178.526 299.005 178.755C298.593 178.985 298.281 179.384 298.138 179.865C297.996 180.345 298.034 180.868 298.244 181.318C298.454 181.768 298.82 182.109 299.26 182.265L397.919 217.155C398.137 217.233 398.367 217.262 398.596 217.243C398.825 217.223 399.048 217.155 399.253 217.041C399.457 216.928 399.639 216.771 399.788 216.581C399.938 216.39 400.051 216.17 400.122 215.932C400.192 215.693 400.22 215.442 400.201 215.193C400.183 214.943 400.12 214.7 400.016 214.477C399.912 214.254 399.768 214.055 399.593 213.893C399.419 213.731 399.216 213.607 398.998 213.53L398.996 213.53L300.338 178.639Z" fill="#9E1414"/>
<path d="M297.106 189.515C296.666 189.361 296.187 189.403 295.775 189.633C295.363 189.863 295.052 190.261 294.909 190.741C294.767 191.222 294.804 191.744 295.014 192.194C295.224 192.643 295.589 192.984 296.029 193.141L394.688 228.031C395.128 228.188 395.607 228.147 396.02 227.919C396.433 227.69 396.746 227.292 396.89 226.811C397.034 226.331 396.997 225.808 396.787 225.357C396.578 224.906 396.213 224.565 395.772 224.408L395.765 224.406L297.106 189.515Z" fill="#9E1414"/>
<path d="M400.18 218.236C400.629 217.796 400.985 217.254 401.221 216.648C401.458 216.042 401.57 215.387 401.549 214.728C401.528 214.07 401.375 213.425 401.101 212.838C400.827 212.251 400.439 211.737 399.963 211.332L404.701 196.18L397.32 198.272L393.952 212.34C393.381 213.257 393.138 214.371 393.27 215.47C393.401 216.57 393.898 217.579 394.666 218.305C395.433 219.032 396.419 219.426 397.435 219.414C398.451 219.401 399.428 218.982 400.18 218.236Z" fill="#FFB7B7"/>
<path d="M402.297 209.041L395.136 205.558L397.542 179.127L395.303 152.474L404.862 146.845L406.889 149.632L406.891 149.695L407.965 183.398L407.959 183.423L402.297 209.041Z" fill="#3F3D56"/>
<path d="M550.164 328H175.667C175.478 328.004 175.292 327.94 175.14 327.818C174.987 327.695 174.876 327.521 174.824 327.322C174.791 327.187 174.787 327.046 174.812 326.908C174.838 326.771 174.892 326.643 174.97 326.532C175.048 326.421 175.148 326.331 175.263 326.269C175.378 326.208 175.505 326.175 175.633 326.175H550.095C550.295 326.168 550.491 326.234 550.652 326.364C550.813 326.493 550.929 326.678 550.981 326.889C551.008 327.022 551.007 327.161 550.979 327.294C550.95 327.427 550.895 327.551 550.816 327.658C550.738 327.765 550.639 327.851 550.526 327.91C550.413 327.969 550.289 328 550.164 328Z" fill="#CCCCCC"/>
<path d="M126.049 328H0.870054C0.680643 328.004 0.495221 327.94 0.342679 327.818C0.190137 327.695 0.0790424 327.521 0.0267053 327.322C-0.00596932 327.187 -0.00977244 327.046 0.0155851 326.908C0.0409426 326.771 0.0947829 326.643 0.17297 326.532C0.251157 326.421 0.351603 326.331 0.466578 326.269C0.581553 326.208 0.707993 326.175 0.836167 326.175H125.98C126.18 326.168 126.376 326.234 126.537 326.364C126.698 326.493 126.814 326.678 126.866 326.889C126.893 327.022 126.892 327.161 126.864 327.294C126.835 327.427 126.78 327.551 126.701 327.658C126.623 327.765 126.524 327.851 126.411 327.91C126.298 327.969 126.174 328 126.049 328Z" fill="#CCCCCC"/>
</g>
<defs>
<clipPath id="clip0_379_1205">
<rect width="551" height="328" fill="white"/>
</clipPath>
</defs>
</svg>
